G04 #@! TF.GenerationSoftware,KiCad,Pcbnew,(5.1.10)-1*
G04 #@! TF.CreationDate,2021-12-23T23:11:10-06:00*
G04 #@! TF.ProjectId,BTMS,42544d53-2e6b-4696-9361-645f70636258,rev?*
G04 #@! TF.SameCoordinates,Original*
G04 #@! TF.FileFunction,Legend,Bot*
G04 #@! TF.FilePolarity,Positive*
%FSLAX46Y46*%
G04 Gerber Fmt 4.6, Leading zero omitted, Abs format (unit mm)*
G04 Created by KiCad (PCBNEW (5.1.10)-1) date 2021-12-23 23:11:10*
%MOMM*%
%LPD*%
G01*
G04 APERTURE LIST*
%ADD10C,0.120000*%
%ADD11C,0.100000*%
%ADD12C,0.150000*%
G04 APERTURE END LIST*
D10*
X49022000Y-85852000D02*
X49022000Y-85598000D01*
X155702000Y-85852000D02*
X49022000Y-85852000D01*
X155702000Y-40386000D02*
X155702000Y-85852000D01*
X49022000Y-40386000D02*
X49022000Y-85598000D01*
X155702000Y-40386000D02*
X49022000Y-40386000D01*
X141478000Y-96774000D02*
X142240000Y-97536000D01*
X138684000Y-96520000D02*
X137922000Y-96774000D01*
X139700000Y-93980000D02*
X139700000Y-94488000D01*
X140208000Y-93980000D02*
X140208000Y-94488000D01*
X141001269Y-94488000D02*
G75*
G03*
X141001269Y-94488000I-1047269J0D01*
G01*
X139954000Y-95504000D02*
X141478000Y-96774000D01*
X139954000Y-95504000D02*
X138684000Y-96520000D01*
X139954000Y-98552000D02*
X139954000Y-95504000D01*
X139954000Y-98552000D02*
X138430000Y-100838000D01*
X141224000Y-101092000D02*
X139954000Y-98552000D01*
D11*
G36*
X97028000Y-138938000D02*
G01*
X95758000Y-138938000D01*
X95758000Y-138176000D01*
X97028000Y-138176000D01*
X97028000Y-138938000D01*
G37*
X97028000Y-138938000D02*
X95758000Y-138938000D01*
X95758000Y-138176000D01*
X97028000Y-138176000D01*
X97028000Y-138938000D01*
G36*
X97536000Y-135636000D02*
G01*
X89916000Y-135636000D01*
X89916000Y-135382000D01*
X97536000Y-135382000D01*
X97536000Y-135636000D01*
G37*
X97536000Y-135636000D02*
X89916000Y-135636000D01*
X89916000Y-135382000D01*
X97536000Y-135382000D01*
X97536000Y-135636000D01*
G36*
X98806000Y-129984500D02*
G01*
X97282000Y-129984500D01*
X97282000Y-129095500D01*
X98806000Y-129095500D01*
X98806000Y-129984500D01*
G37*
X98806000Y-129984500D02*
X97282000Y-129984500D01*
X97282000Y-129095500D01*
X98806000Y-129095500D01*
X98806000Y-129984500D01*
G36*
X89916000Y-129984500D02*
G01*
X88392000Y-129984500D01*
X88392000Y-129095500D01*
X89916000Y-129095500D01*
X89916000Y-129984500D01*
G37*
X89916000Y-129984500D02*
X88392000Y-129984500D01*
X88392000Y-129095500D01*
X89916000Y-129095500D01*
X89916000Y-129984500D01*
G36*
X95250000Y-139446000D02*
G01*
X93980000Y-139446000D01*
X93980000Y-138430000D01*
X95250000Y-138430000D01*
X95250000Y-139446000D01*
G37*
X95250000Y-139446000D02*
X93980000Y-139446000D01*
X93980000Y-138430000D01*
X95250000Y-138430000D01*
X95250000Y-139446000D01*
G36*
X93472000Y-139446000D02*
G01*
X92202000Y-139446000D01*
X92202000Y-138430000D01*
X93472000Y-138430000D01*
X93472000Y-139446000D01*
G37*
X93472000Y-139446000D02*
X92202000Y-139446000D01*
X92202000Y-138430000D01*
X93472000Y-138430000D01*
X93472000Y-139446000D01*
G36*
X91694000Y-138938000D02*
G01*
X90424000Y-138938000D01*
X90424000Y-138176000D01*
X91694000Y-138176000D01*
X91694000Y-138938000D01*
G37*
X91694000Y-138938000D02*
X90424000Y-138938000D01*
X90424000Y-138176000D01*
X91694000Y-138176000D01*
X91694000Y-138938000D01*
G36*
X95250000Y-136906000D02*
G01*
X93980000Y-136906000D01*
X93980000Y-135636000D01*
X95250000Y-135636000D01*
X95250000Y-136906000D01*
G37*
X95250000Y-136906000D02*
X93980000Y-136906000D01*
X93980000Y-135636000D01*
X95250000Y-135636000D01*
X95250000Y-136906000D01*
G36*
X93472000Y-136906000D02*
G01*
X92202000Y-136906000D01*
X92202000Y-135636000D01*
X93472000Y-135636000D01*
X93472000Y-136906000D01*
G37*
X93472000Y-136906000D02*
X92202000Y-136906000D01*
X92202000Y-135636000D01*
X93472000Y-135636000D01*
X93472000Y-136906000D01*
G36*
X92202000Y-139446000D02*
G01*
X95250000Y-139446000D01*
X95250000Y-138938000D01*
X97536000Y-138938000D01*
X97536000Y-139192000D01*
X95504000Y-139192000D01*
X95504000Y-139700000D01*
X91948000Y-139700000D01*
X91948000Y-139192000D01*
X89916000Y-139192000D01*
X89916000Y-138938000D01*
X92202000Y-138938000D01*
X92202000Y-139446000D01*
G37*
X92202000Y-139446000D02*
X95250000Y-139446000D01*
X95250000Y-138938000D01*
X97536000Y-138938000D01*
X97536000Y-139192000D01*
X95504000Y-139192000D01*
X95504000Y-139700000D01*
X91948000Y-139700000D01*
X91948000Y-139192000D01*
X89916000Y-139192000D01*
X89916000Y-138938000D01*
X92202000Y-138938000D01*
X92202000Y-139446000D01*
D10*
X89916000Y-139446000D02*
X85852000Y-135890000D01*
X85852000Y-135890000D02*
X83312000Y-134366000D01*
X83058000Y-134366000D02*
X82296000Y-135636000D01*
X83312000Y-134366000D02*
X81026000Y-134112000D01*
X83058000Y-134366000D02*
X82042000Y-133096000D01*
X82042000Y-133096000D02*
X82042000Y-132334000D01*
X82804000Y-134366000D02*
X84074000Y-132842000D01*
X99822000Y-139954000D02*
X103632000Y-130048000D01*
X103632000Y-130048000D02*
X104902000Y-130048000D01*
X104140000Y-130048000D02*
X104140000Y-129032000D01*
X104140000Y-129032000D02*
X104902000Y-128016000D01*
X104140000Y-129032000D02*
X103378000Y-127254000D01*
X104140000Y-129032000D02*
X101854000Y-128016000D01*
D11*
G36*
X92964000Y-134112000D02*
G01*
X92202000Y-134112000D01*
X92202000Y-133350000D01*
X92964000Y-133350000D01*
X92964000Y-134112000D01*
G37*
X92964000Y-134112000D02*
X92202000Y-134112000D01*
X92202000Y-133350000D01*
X92964000Y-133350000D01*
X92964000Y-134112000D01*
G36*
X95250000Y-134112000D02*
G01*
X94488000Y-134112000D01*
X94488000Y-133350000D01*
X95250000Y-133350000D01*
X95250000Y-134112000D01*
G37*
X95250000Y-134112000D02*
X94488000Y-134112000D01*
X94488000Y-133350000D01*
X95250000Y-133350000D01*
X95250000Y-134112000D01*
G36*
X82042000Y-133096000D02*
G01*
X83058000Y-134112000D01*
X84074000Y-132842000D01*
X84328000Y-133096000D01*
X83312000Y-134112000D01*
X85852000Y-135636000D01*
X89662000Y-138938000D01*
X89916000Y-139446000D01*
X83312000Y-134620000D01*
X82296000Y-135636000D01*
X82042000Y-135636000D01*
X82804000Y-134366000D01*
X80772000Y-134366000D01*
X80772000Y-134112000D01*
X82550000Y-134112000D01*
X81788000Y-133096000D01*
X81788000Y-132334000D01*
X82042000Y-132334000D01*
X82042000Y-133096000D01*
G37*
X82042000Y-133096000D02*
X83058000Y-134112000D01*
X84074000Y-132842000D01*
X84328000Y-133096000D01*
X83312000Y-134112000D01*
X85852000Y-135636000D01*
X89662000Y-138938000D01*
X89916000Y-139446000D01*
X83312000Y-134620000D01*
X82296000Y-135636000D01*
X82042000Y-135636000D01*
X82804000Y-134366000D01*
X80772000Y-134366000D01*
X80772000Y-134112000D01*
X82550000Y-134112000D01*
X81788000Y-133096000D01*
X81788000Y-132334000D01*
X82042000Y-132334000D01*
X82042000Y-133096000D01*
G36*
X104140000Y-128524000D02*
G01*
X104648000Y-127762000D01*
X104394000Y-129032000D01*
X104394000Y-129794000D01*
X105156000Y-129794000D01*
X105156000Y-130048000D01*
X103886000Y-130048000D01*
X99822000Y-140208000D01*
X99568000Y-139954000D01*
X103632000Y-129794000D01*
X103886000Y-129794000D01*
X103886000Y-129032000D01*
X102362000Y-128270000D01*
X101346000Y-128270000D01*
X101346000Y-128016000D01*
X102362000Y-128016000D01*
X103632000Y-128524000D01*
X103124000Y-127000000D01*
X103378000Y-127000000D01*
X104140000Y-128524000D01*
G37*
X104140000Y-128524000D02*
X104648000Y-127762000D01*
X104394000Y-129032000D01*
X104394000Y-129794000D01*
X105156000Y-129794000D01*
X105156000Y-130048000D01*
X103886000Y-130048000D01*
X99822000Y-140208000D01*
X99568000Y-139954000D01*
X103632000Y-129794000D01*
X103886000Y-129794000D01*
X103886000Y-129032000D01*
X102362000Y-128270000D01*
X101346000Y-128270000D01*
X101346000Y-128016000D01*
X102362000Y-128016000D01*
X103632000Y-128524000D01*
X103124000Y-127000000D01*
X103378000Y-127000000D01*
X104140000Y-128524000D01*
D10*
X92202000Y-140970000D02*
X95504000Y-140970000D01*
X95504000Y-140970000D02*
X95504000Y-140208000D01*
X95504000Y-140208000D02*
X97536000Y-140208000D01*
X97536000Y-140208000D02*
X97536000Y-129540000D01*
X97536000Y-129540000D02*
X96520000Y-129540000D01*
X96520000Y-129540000D02*
X96266000Y-129540000D01*
X96266000Y-129540000D02*
X96266000Y-130556000D01*
X96266000Y-130302000D02*
X94996000Y-130302000D01*
X94996000Y-130302000D02*
X94996000Y-129540000D01*
X94996000Y-129286000D02*
X92456000Y-129286000D01*
X92456000Y-129540000D02*
X92456000Y-130302000D01*
X92456000Y-130302000D02*
X91186000Y-130302000D01*
X91186000Y-130556000D02*
X91186000Y-129540000D01*
X91186000Y-129540000D02*
X89916000Y-129540000D01*
X89916000Y-129540000D02*
X89916000Y-139954000D01*
X89916000Y-139954000D02*
X92202000Y-139954000D01*
X92202000Y-139954000D02*
X92202000Y-140970000D01*
D11*
G36*
X97536000Y-131572000D02*
G01*
X96266000Y-131572000D01*
X96266000Y-132588000D01*
X94488000Y-132588000D01*
X94488000Y-131572000D01*
X95250000Y-131572000D01*
X95250000Y-130810000D01*
X96266000Y-130810000D01*
X96266000Y-129540000D01*
X97536000Y-129540000D01*
X97536000Y-131572000D01*
G37*
X97536000Y-131572000D02*
X96266000Y-131572000D01*
X96266000Y-132588000D01*
X94488000Y-132588000D01*
X94488000Y-131572000D01*
X95250000Y-131572000D01*
X95250000Y-130810000D01*
X96266000Y-130810000D01*
X96266000Y-129540000D01*
X97536000Y-129540000D01*
X97536000Y-131572000D01*
G36*
X91186000Y-130810000D02*
G01*
X92202000Y-130810000D01*
X92202000Y-131572000D01*
X92964000Y-131572000D01*
X92964000Y-132588000D01*
X91186000Y-132588000D01*
X91186000Y-131572000D01*
X89916000Y-131572000D01*
X89916000Y-129540000D01*
X91186000Y-129540000D01*
X91186000Y-130810000D01*
G37*
X91186000Y-130810000D02*
X92202000Y-130810000D01*
X92202000Y-131572000D01*
X92964000Y-131572000D01*
X92964000Y-132588000D01*
X91186000Y-132588000D01*
X91186000Y-131572000D01*
X89916000Y-131572000D01*
X89916000Y-129540000D01*
X91186000Y-129540000D01*
X91186000Y-130810000D01*
D12*
X142507714Y-138027666D02*
X142031523Y-138027666D01*
X142602952Y-138313380D02*
X142269619Y-137313380D01*
X141936285Y-138313380D01*
X141460095Y-138313380D02*
X141555333Y-138265761D01*
X141602952Y-138170523D01*
X141602952Y-137313380D01*
X140936285Y-138313380D02*
X141031523Y-138265761D01*
X141079142Y-138170523D01*
X141079142Y-137313380D01*
X139888666Y-137313380D02*
X139650571Y-138313380D01*
X139460095Y-137599095D01*
X139269619Y-138313380D01*
X139031523Y-137313380D01*
X138269619Y-138265761D02*
X138364857Y-138313380D01*
X138555333Y-138313380D01*
X138650571Y-138265761D01*
X138698190Y-138170523D01*
X138698190Y-137789571D01*
X138650571Y-137694333D01*
X138555333Y-137646714D01*
X138364857Y-137646714D01*
X138269619Y-137694333D01*
X138222000Y-137789571D01*
X138222000Y-137884809D01*
X138698190Y-137980047D01*
X137364857Y-138313380D02*
X137364857Y-137789571D01*
X137412476Y-137694333D01*
X137507714Y-137646714D01*
X137698190Y-137646714D01*
X137793428Y-137694333D01*
X137364857Y-138265761D02*
X137460095Y-138313380D01*
X137698190Y-138313380D01*
X137793428Y-138265761D01*
X137841047Y-138170523D01*
X137841047Y-138075285D01*
X137793428Y-137980047D01*
X137698190Y-137932428D01*
X137460095Y-137932428D01*
X137364857Y-137884809D01*
X137031523Y-137646714D02*
X136650571Y-137646714D01*
X136888666Y-137313380D02*
X136888666Y-138170523D01*
X136841047Y-138265761D01*
X136745809Y-138313380D01*
X136650571Y-138313380D01*
X136317238Y-138313380D02*
X136317238Y-137313380D01*
X135888666Y-138313380D02*
X135888666Y-137789571D01*
X135936285Y-137694333D01*
X136031523Y-137646714D01*
X136174380Y-137646714D01*
X136269619Y-137694333D01*
X136317238Y-137741952D01*
X135031523Y-138265761D02*
X135126761Y-138313380D01*
X135317238Y-138313380D01*
X135412476Y-138265761D01*
X135460095Y-138170523D01*
X135460095Y-137789571D01*
X135412476Y-137694333D01*
X135317238Y-137646714D01*
X135126761Y-137646714D01*
X135031523Y-137694333D01*
X134983904Y-137789571D01*
X134983904Y-137884809D01*
X135460095Y-137980047D01*
X134555333Y-138313380D02*
X134555333Y-137646714D01*
X134555333Y-137837190D02*
X134507714Y-137741952D01*
X134460095Y-137694333D01*
X134364857Y-137646714D01*
X134269619Y-137646714D01*
X132698190Y-138313380D02*
X133174380Y-138313380D01*
X133174380Y-137313380D01*
X132364857Y-138313380D02*
X132364857Y-137646714D01*
X132364857Y-137313380D02*
X132412476Y-137361000D01*
X132364857Y-137408619D01*
X132317238Y-137361000D01*
X132364857Y-137313380D01*
X132364857Y-137408619D01*
X132031523Y-137646714D02*
X131650571Y-137646714D01*
X131888666Y-137313380D02*
X131888666Y-138170523D01*
X131841047Y-138265761D01*
X131745809Y-138313380D01*
X131650571Y-138313380D01*
X131317238Y-138313380D02*
X131317238Y-137313380D01*
X130888666Y-138313380D02*
X130888666Y-137789571D01*
X130936285Y-137694333D01*
X131031523Y-137646714D01*
X131174380Y-137646714D01*
X131269619Y-137694333D01*
X131317238Y-137741952D01*
X130412476Y-138313380D02*
X130412476Y-137646714D01*
X130412476Y-137313380D02*
X130460095Y-137361000D01*
X130412476Y-137408619D01*
X130364857Y-137361000D01*
X130412476Y-137313380D01*
X130412476Y-137408619D01*
X129507714Y-137646714D02*
X129507714Y-138313380D01*
X129936285Y-137646714D02*
X129936285Y-138170523D01*
X129888666Y-138265761D01*
X129793428Y-138313380D01*
X129650571Y-138313380D01*
X129555333Y-138265761D01*
X129507714Y-138218142D01*
X129031523Y-138313380D02*
X129031523Y-137646714D01*
X129031523Y-137741952D02*
X128983904Y-137694333D01*
X128888666Y-137646714D01*
X128745809Y-137646714D01*
X128650571Y-137694333D01*
X128602952Y-137789571D01*
X128602952Y-138313380D01*
X128602952Y-137789571D02*
X128555333Y-137694333D01*
X128460095Y-137646714D01*
X128317238Y-137646714D01*
X128222000Y-137694333D01*
X128174380Y-137789571D01*
X128174380Y-138313380D01*
X126936285Y-138313380D02*
X126936285Y-137313380D01*
X126936285Y-137694333D02*
X126841047Y-137646714D01*
X126650571Y-137646714D01*
X126555333Y-137694333D01*
X126507714Y-137741952D01*
X126460095Y-137837190D01*
X126460095Y-138122904D01*
X126507714Y-138218142D01*
X126555333Y-138265761D01*
X126650571Y-138313380D01*
X126841047Y-138313380D01*
X126936285Y-138265761D01*
X125602952Y-138313380D02*
X125602952Y-137789571D01*
X125650571Y-137694333D01*
X125745809Y-137646714D01*
X125936285Y-137646714D01*
X126031523Y-137694333D01*
X125602952Y-138265761D02*
X125698190Y-138313380D01*
X125936285Y-138313380D01*
X126031523Y-138265761D01*
X126079142Y-138170523D01*
X126079142Y-138075285D01*
X126031523Y-137980047D01*
X125936285Y-137932428D01*
X125698190Y-137932428D01*
X125602952Y-137884809D01*
X125269619Y-137646714D02*
X124888666Y-137646714D01*
X125126761Y-137313380D02*
X125126761Y-138170523D01*
X125079142Y-138265761D01*
X124983904Y-138313380D01*
X124888666Y-138313380D01*
X124698190Y-137646714D02*
X124317238Y-137646714D01*
X124555333Y-137313380D02*
X124555333Y-138170523D01*
X124507714Y-138265761D01*
X124412476Y-138313380D01*
X124317238Y-138313380D01*
X123602952Y-138265761D02*
X123698190Y-138313380D01*
X123888666Y-138313380D01*
X123983904Y-138265761D01*
X124031523Y-138170523D01*
X124031523Y-137789571D01*
X123983904Y-137694333D01*
X123888666Y-137646714D01*
X123698190Y-137646714D01*
X123602952Y-137694333D01*
X123555333Y-137789571D01*
X123555333Y-137884809D01*
X124031523Y-137980047D01*
X123126761Y-138313380D02*
X123126761Y-137646714D01*
X123126761Y-137837190D02*
X123079142Y-137741952D01*
X123031523Y-137694333D01*
X122936285Y-137646714D01*
X122841047Y-137646714D01*
X122602952Y-137646714D02*
X122364857Y-138313380D01*
X122126761Y-137646714D02*
X122364857Y-138313380D01*
X122460095Y-138551476D01*
X122507714Y-138599095D01*
X122602952Y-138646714D01*
X120983904Y-137646714D02*
X120983904Y-138646714D01*
X120983904Y-137694333D02*
X120888666Y-137646714D01*
X120698190Y-137646714D01*
X120602952Y-137694333D01*
X120555333Y-137741952D01*
X120507714Y-137837190D01*
X120507714Y-138122904D01*
X120555333Y-138218142D01*
X120602952Y-138265761D01*
X120698190Y-138313380D01*
X120888666Y-138313380D01*
X120983904Y-138265761D01*
X120079142Y-138313380D02*
X120079142Y-137646714D01*
X120079142Y-137837190D02*
X120031523Y-137741952D01*
X119983904Y-137694333D01*
X119888666Y-137646714D01*
X119793428Y-137646714D01*
X119317238Y-138313380D02*
X119412476Y-138265761D01*
X119460095Y-138218142D01*
X119507714Y-138122904D01*
X119507714Y-137837190D01*
X119460095Y-137741952D01*
X119412476Y-137694333D01*
X119317238Y-137646714D01*
X119174380Y-137646714D01*
X119079142Y-137694333D01*
X119031523Y-137741952D01*
X118983904Y-137837190D01*
X118983904Y-138122904D01*
X119031523Y-138218142D01*
X119079142Y-138265761D01*
X119174380Y-138313380D01*
X119317238Y-138313380D01*
X118698190Y-137646714D02*
X118317238Y-137646714D01*
X118555333Y-137313380D02*
X118555333Y-138170523D01*
X118507714Y-138265761D01*
X118412476Y-138313380D01*
X118317238Y-138313380D01*
X117602952Y-138265761D02*
X117698190Y-138313380D01*
X117888666Y-138313380D01*
X117983904Y-138265761D01*
X118031523Y-138170523D01*
X118031523Y-137789571D01*
X117983904Y-137694333D01*
X117888666Y-137646714D01*
X117698190Y-137646714D01*
X117602952Y-137694333D01*
X117555333Y-137789571D01*
X117555333Y-137884809D01*
X118031523Y-137980047D01*
X116698190Y-138265761D02*
X116793428Y-138313380D01*
X116983904Y-138313380D01*
X117079142Y-138265761D01*
X117126761Y-138218142D01*
X117174380Y-138122904D01*
X117174380Y-137837190D01*
X117126761Y-137741952D01*
X117079142Y-137694333D01*
X116983904Y-137646714D01*
X116793428Y-137646714D01*
X116698190Y-137694333D01*
X116412476Y-137646714D02*
X116031523Y-137646714D01*
X116269619Y-137313380D02*
X116269619Y-138170523D01*
X116222000Y-138265761D01*
X116126761Y-138313380D01*
X116031523Y-138313380D01*
X115698190Y-138313380D02*
X115698190Y-137646714D01*
X115698190Y-137313380D02*
X115745809Y-137361000D01*
X115698190Y-137408619D01*
X115650571Y-137361000D01*
X115698190Y-137313380D01*
X115698190Y-137408619D01*
X115079142Y-138313380D02*
X115174380Y-138265761D01*
X115222000Y-138218142D01*
X115269619Y-138122904D01*
X115269619Y-137837190D01*
X115222000Y-137741952D01*
X115174380Y-137694333D01*
X115079142Y-137646714D01*
X114936285Y-137646714D01*
X114841047Y-137694333D01*
X114793428Y-137741952D01*
X114745809Y-137837190D01*
X114745809Y-138122904D01*
X114793428Y-138218142D01*
X114841047Y-138265761D01*
X114936285Y-138313380D01*
X115079142Y-138313380D01*
X114317238Y-137646714D02*
X114317238Y-138313380D01*
X114317238Y-137741952D02*
X114269619Y-137694333D01*
X114174380Y-137646714D01*
X114031523Y-137646714D01*
X113936285Y-137694333D01*
X113888666Y-137789571D01*
X113888666Y-138313380D01*
X112698190Y-138265761D02*
X112602952Y-138313380D01*
X112412476Y-138313380D01*
X112317238Y-138265761D01*
X112269619Y-138170523D01*
X112269619Y-138122904D01*
X112317238Y-138027666D01*
X112412476Y-137980047D01*
X112555333Y-137980047D01*
X112650571Y-137932428D01*
X112698190Y-137837190D01*
X112698190Y-137789571D01*
X112650571Y-137694333D01*
X112555333Y-137646714D01*
X112412476Y-137646714D01*
X112317238Y-137694333D01*
X111936285Y-137646714D02*
X111698190Y-138313380D01*
X111460095Y-137646714D02*
X111698190Y-138313380D01*
X111793428Y-138551476D01*
X111841047Y-138599095D01*
X111936285Y-138646714D01*
X111126761Y-138265761D02*
X111031523Y-138313380D01*
X110841047Y-138313380D01*
X110745809Y-138265761D01*
X110698190Y-138170523D01*
X110698190Y-138122904D01*
X110745809Y-138027666D01*
X110841047Y-137980047D01*
X110983904Y-137980047D01*
X111079142Y-137932428D01*
X111126761Y-137837190D01*
X111126761Y-137789571D01*
X111079142Y-137694333D01*
X110983904Y-137646714D01*
X110841047Y-137646714D01*
X110745809Y-137694333D01*
X110412476Y-137646714D02*
X110031523Y-137646714D01*
X110269619Y-137313380D02*
X110269619Y-138170523D01*
X110222000Y-138265761D01*
X110126761Y-138313380D01*
X110031523Y-138313380D01*
X109317238Y-138265761D02*
X109412476Y-138313380D01*
X109602952Y-138313380D01*
X109698190Y-138265761D01*
X109745809Y-138170523D01*
X109745809Y-137789571D01*
X109698190Y-137694333D01*
X109602952Y-137646714D01*
X109412476Y-137646714D01*
X109317238Y-137694333D01*
X109269619Y-137789571D01*
X109269619Y-137884809D01*
X109745809Y-137980047D01*
X108841047Y-138313380D02*
X108841047Y-137646714D01*
X108841047Y-137741952D02*
X108793428Y-137694333D01*
X108698190Y-137646714D01*
X108555333Y-137646714D01*
X108460095Y-137694333D01*
X108412476Y-137789571D01*
X108412476Y-138313380D01*
X108412476Y-137789571D02*
X108364857Y-137694333D01*
X108269619Y-137646714D01*
X108126761Y-137646714D01*
X108031523Y-137694333D01*
X107983904Y-137789571D01*
X107983904Y-138313380D01*
X134388666Y-139963380D02*
X134388666Y-139439571D01*
X134436285Y-139344333D01*
X134531523Y-139296714D01*
X134722000Y-139296714D01*
X134817238Y-139344333D01*
X134388666Y-139915761D02*
X134483904Y-139963380D01*
X134722000Y-139963380D01*
X134817238Y-139915761D01*
X134864857Y-139820523D01*
X134864857Y-139725285D01*
X134817238Y-139630047D01*
X134722000Y-139582428D01*
X134483904Y-139582428D01*
X134388666Y-139534809D01*
X133912476Y-139296714D02*
X133912476Y-139963380D01*
X133912476Y-139391952D02*
X133864857Y-139344333D01*
X133769619Y-139296714D01*
X133626761Y-139296714D01*
X133531523Y-139344333D01*
X133483904Y-139439571D01*
X133483904Y-139963380D01*
X132579142Y-139963380D02*
X132579142Y-138963380D01*
X132579142Y-139915761D02*
X132674380Y-139963380D01*
X132864857Y-139963380D01*
X132960095Y-139915761D01*
X133007714Y-139868142D01*
X133055333Y-139772904D01*
X133055333Y-139487190D01*
X133007714Y-139391952D01*
X132960095Y-139344333D01*
X132864857Y-139296714D01*
X132674380Y-139296714D01*
X132579142Y-139344333D01*
X131341047Y-139963380D02*
X131341047Y-138963380D01*
X130960095Y-138963380D01*
X130864857Y-139011000D01*
X130817238Y-139058619D01*
X130769619Y-139153857D01*
X130769619Y-139296714D01*
X130817238Y-139391952D01*
X130864857Y-139439571D01*
X130960095Y-139487190D01*
X131341047Y-139487190D01*
X130198190Y-139963380D02*
X130293428Y-139915761D01*
X130341047Y-139868142D01*
X130388666Y-139772904D01*
X130388666Y-139487190D01*
X130341047Y-139391952D01*
X130293428Y-139344333D01*
X130198190Y-139296714D01*
X130055333Y-139296714D01*
X129960095Y-139344333D01*
X129912476Y-139391952D01*
X129864857Y-139487190D01*
X129864857Y-139772904D01*
X129912476Y-139868142D01*
X129960095Y-139915761D01*
X130055333Y-139963380D01*
X130198190Y-139963380D01*
X129531523Y-139296714D02*
X129341047Y-139963380D01*
X129150571Y-139487190D01*
X128960095Y-139963380D01*
X128769619Y-139296714D01*
X128007714Y-139915761D02*
X128102952Y-139963380D01*
X128293428Y-139963380D01*
X128388666Y-139915761D01*
X128436285Y-139820523D01*
X128436285Y-139439571D01*
X128388666Y-139344333D01*
X128293428Y-139296714D01*
X128102952Y-139296714D01*
X128007714Y-139344333D01*
X127960095Y-139439571D01*
X127960095Y-139534809D01*
X128436285Y-139630047D01*
X127531523Y-139963380D02*
X127531523Y-139296714D01*
X127531523Y-139487190D02*
X127483904Y-139391952D01*
X127436285Y-139344333D01*
X127341047Y-139296714D01*
X127245809Y-139296714D01*
X125579142Y-139868142D02*
X125626761Y-139915761D01*
X125769619Y-139963380D01*
X125864857Y-139963380D01*
X126007714Y-139915761D01*
X126102952Y-139820523D01*
X126150571Y-139725285D01*
X126198190Y-139534809D01*
X126198190Y-139391952D01*
X126150571Y-139201476D01*
X126102952Y-139106238D01*
X126007714Y-139011000D01*
X125864857Y-138963380D01*
X125769619Y-138963380D01*
X125626761Y-139011000D01*
X125579142Y-139058619D01*
X125007714Y-139963380D02*
X125102952Y-139915761D01*
X125150571Y-139868142D01*
X125198190Y-139772904D01*
X125198190Y-139487190D01*
X125150571Y-139391952D01*
X125102952Y-139344333D01*
X125007714Y-139296714D01*
X124864857Y-139296714D01*
X124769619Y-139344333D01*
X124722000Y-139391952D01*
X124674380Y-139487190D01*
X124674380Y-139772904D01*
X124722000Y-139868142D01*
X124769619Y-139915761D01*
X124864857Y-139963380D01*
X125007714Y-139963380D01*
X124245809Y-139296714D02*
X124245809Y-139963380D01*
X124245809Y-139391952D02*
X124198190Y-139344333D01*
X124102952Y-139296714D01*
X123960095Y-139296714D01*
X123864857Y-139344333D01*
X123817238Y-139439571D01*
X123817238Y-139963380D01*
X123483904Y-139296714D02*
X123102952Y-139296714D01*
X123341047Y-138963380D02*
X123341047Y-139820523D01*
X123293428Y-139915761D01*
X123198190Y-139963380D01*
X123102952Y-139963380D01*
X122769619Y-139963380D02*
X122769619Y-139296714D01*
X122769619Y-139487190D02*
X122722000Y-139391952D01*
X122674380Y-139344333D01*
X122579142Y-139296714D01*
X122483904Y-139296714D01*
X122007714Y-139963380D02*
X122102952Y-139915761D01*
X122150571Y-139868142D01*
X122198190Y-139772904D01*
X122198190Y-139487190D01*
X122150571Y-139391952D01*
X122102952Y-139344333D01*
X122007714Y-139296714D01*
X121864857Y-139296714D01*
X121769619Y-139344333D01*
X121722000Y-139391952D01*
X121674380Y-139487190D01*
X121674380Y-139772904D01*
X121722000Y-139868142D01*
X121769619Y-139915761D01*
X121864857Y-139963380D01*
X122007714Y-139963380D01*
X121102952Y-139963380D02*
X121198190Y-139915761D01*
X121245809Y-139820523D01*
X121245809Y-138963380D01*
X119388666Y-139963380D02*
X119722000Y-139487190D01*
X119960095Y-139963380D02*
X119960095Y-138963380D01*
X119579142Y-138963380D01*
X119483904Y-139011000D01*
X119436285Y-139058619D01*
X119388666Y-139153857D01*
X119388666Y-139296714D01*
X119436285Y-139391952D01*
X119483904Y-139439571D01*
X119579142Y-139487190D01*
X119960095Y-139487190D01*
X118579142Y-139915761D02*
X118674380Y-139963380D01*
X118864857Y-139963380D01*
X118960095Y-139915761D01*
X119007714Y-139820523D01*
X119007714Y-139439571D01*
X118960095Y-139344333D01*
X118864857Y-139296714D01*
X118674380Y-139296714D01*
X118579142Y-139344333D01*
X118531523Y-139439571D01*
X118531523Y-139534809D01*
X119007714Y-139630047D01*
X118198190Y-139296714D02*
X117960095Y-139963380D01*
X117722000Y-139296714D01*
X117341047Y-139868142D02*
X117293428Y-139915761D01*
X117341047Y-139963380D01*
X117388666Y-139915761D01*
X117341047Y-139868142D01*
X117341047Y-139963380D01*
X115579142Y-139963380D02*
X116150571Y-139963380D01*
X115864857Y-139963380D02*
X115864857Y-138963380D01*
X115960095Y-139106238D01*
X116055333Y-139201476D01*
X116150571Y-139249095D01*
X131674380Y-142263380D02*
X131674380Y-142977666D01*
X131722000Y-143120523D01*
X131817238Y-143215761D01*
X131960095Y-143263380D01*
X132055333Y-143263380D01*
X130769619Y-143263380D02*
X130769619Y-142739571D01*
X130817238Y-142644333D01*
X130912476Y-142596714D01*
X131102952Y-142596714D01*
X131198190Y-142644333D01*
X130769619Y-143215761D02*
X130864857Y-143263380D01*
X131102952Y-143263380D01*
X131198190Y-143215761D01*
X131245809Y-143120523D01*
X131245809Y-143025285D01*
X131198190Y-142930047D01*
X131102952Y-142882428D01*
X130864857Y-142882428D01*
X130769619Y-142834809D01*
X130293428Y-143263380D02*
X130293428Y-142596714D01*
X130293428Y-142787190D02*
X130245809Y-142691952D01*
X130198190Y-142644333D01*
X130102952Y-142596714D01*
X130007714Y-142596714D01*
X129674380Y-143263380D02*
X129674380Y-142596714D01*
X129674380Y-142787190D02*
X129626761Y-142691952D01*
X129579142Y-142644333D01*
X129483904Y-142596714D01*
X129388666Y-142596714D01*
X128674380Y-143215761D02*
X128769619Y-143263380D01*
X128960095Y-143263380D01*
X129055333Y-143215761D01*
X129102952Y-143120523D01*
X129102952Y-142739571D01*
X129055333Y-142644333D01*
X128960095Y-142596714D01*
X128769619Y-142596714D01*
X128674380Y-142644333D01*
X128626761Y-142739571D01*
X128626761Y-142834809D01*
X129102952Y-142930047D01*
X128341047Y-142596714D02*
X127960095Y-142596714D01*
X128198190Y-142263380D02*
X128198190Y-143120523D01*
X128150571Y-143215761D01*
X128055333Y-143263380D01*
X127960095Y-143263380D01*
X127769619Y-142596714D02*
X127388666Y-142596714D01*
X127626761Y-142263380D02*
X127626761Y-143120523D01*
X127579142Y-143215761D01*
X127483904Y-143263380D01*
X127388666Y-143263380D01*
X125722000Y-143168142D02*
X125769619Y-143215761D01*
X125912476Y-143263380D01*
X126007714Y-143263380D01*
X126150571Y-143215761D01*
X126245809Y-143120523D01*
X126293428Y-143025285D01*
X126341047Y-142834809D01*
X126341047Y-142691952D01*
X126293428Y-142501476D01*
X126245809Y-142406238D01*
X126150571Y-142311000D01*
X126007714Y-142263380D01*
X125912476Y-142263380D01*
X125769619Y-142311000D01*
X125722000Y-142358619D01*
X125293428Y-143263380D02*
X125293428Y-142596714D01*
X125293428Y-142263380D02*
X125341047Y-142311000D01*
X125293428Y-142358619D01*
X125245809Y-142311000D01*
X125293428Y-142263380D01*
X125293428Y-142358619D01*
X124388666Y-142596714D02*
X124388666Y-143406238D01*
X124436285Y-143501476D01*
X124483904Y-143549095D01*
X124579142Y-143596714D01*
X124722000Y-143596714D01*
X124817238Y-143549095D01*
X124388666Y-143215761D02*
X124483904Y-143263380D01*
X124674380Y-143263380D01*
X124769619Y-143215761D01*
X124817238Y-143168142D01*
X124864857Y-143072904D01*
X124864857Y-142787190D01*
X124817238Y-142691952D01*
X124769619Y-142644333D01*
X124674380Y-142596714D01*
X124483904Y-142596714D01*
X124388666Y-142644333D01*
X123483904Y-143263380D02*
X123483904Y-142739571D01*
X123531523Y-142644333D01*
X123626761Y-142596714D01*
X123817238Y-142596714D01*
X123912476Y-142644333D01*
X123483904Y-143215761D02*
X123579142Y-143263380D01*
X123817238Y-143263380D01*
X123912476Y-143215761D01*
X123960095Y-143120523D01*
X123960095Y-143025285D01*
X123912476Y-142930047D01*
X123817238Y-142882428D01*
X123579142Y-142882428D01*
X123483904Y-142834809D01*
X123007714Y-143263380D02*
X123007714Y-142596714D01*
X123007714Y-142263380D02*
X123055333Y-142311000D01*
X123007714Y-142358619D01*
X122960095Y-142311000D01*
X123007714Y-142263380D01*
X123007714Y-142358619D01*
X122531523Y-142596714D02*
X122531523Y-143263380D01*
X122531523Y-142691952D02*
X122483904Y-142644333D01*
X122388666Y-142596714D01*
X122245809Y-142596714D01*
X122150571Y-142644333D01*
X122102952Y-142739571D01*
X122102952Y-143263380D01*
X121245809Y-143215761D02*
X121341047Y-143263380D01*
X121531523Y-143263380D01*
X121626761Y-143215761D01*
X121674380Y-143120523D01*
X121674380Y-142739571D01*
X121626761Y-142644333D01*
X121531523Y-142596714D01*
X121341047Y-142596714D01*
X121245809Y-142644333D01*
X121198190Y-142739571D01*
X121198190Y-142834809D01*
X121674380Y-142930047D01*
X120769619Y-143263380D02*
X120769619Y-142596714D01*
X120769619Y-142787190D02*
X120722000Y-142691952D01*
X120674380Y-142644333D01*
X120579142Y-142596714D01*
X120483904Y-142596714D01*
X120007714Y-143263380D02*
X120102952Y-143215761D01*
X120150571Y-143168142D01*
X120198190Y-143072904D01*
X120198190Y-142787190D01*
X120150571Y-142691952D01*
X120102952Y-142644333D01*
X120007714Y-142596714D01*
X119864857Y-142596714D01*
X119769619Y-142644333D01*
X119722000Y-142691952D01*
X119674380Y-142787190D01*
X119674380Y-143072904D01*
X119722000Y-143168142D01*
X119769619Y-143215761D01*
X119864857Y-143263380D01*
X120007714Y-143263380D01*
X119198190Y-143215761D02*
X119198190Y-143263380D01*
X119245809Y-143358619D01*
X119293428Y-143406238D01*
X149055333Y-144913380D02*
X149055333Y-143913380D01*
X148817238Y-143913380D01*
X148674380Y-143961000D01*
X148579142Y-144056238D01*
X148531523Y-144151476D01*
X148483904Y-144341952D01*
X148483904Y-144484809D01*
X148531523Y-144675285D01*
X148579142Y-144770523D01*
X148674380Y-144865761D01*
X148817238Y-144913380D01*
X149055333Y-144913380D01*
X147674380Y-144865761D02*
X147769619Y-144913380D01*
X147960095Y-144913380D01*
X148055333Y-144865761D01*
X148102952Y-144770523D01*
X148102952Y-144389571D01*
X148055333Y-144294333D01*
X147960095Y-144246714D01*
X147769619Y-144246714D01*
X147674380Y-144294333D01*
X147626761Y-144389571D01*
X147626761Y-144484809D01*
X148102952Y-144580047D01*
X147245809Y-144865761D02*
X147150571Y-144913380D01*
X146960095Y-144913380D01*
X146864857Y-144865761D01*
X146817238Y-144770523D01*
X146817238Y-144722904D01*
X146864857Y-144627666D01*
X146960095Y-144580047D01*
X147102952Y-144580047D01*
X147198190Y-144532428D01*
X147245809Y-144437190D01*
X147245809Y-144389571D01*
X147198190Y-144294333D01*
X147102952Y-144246714D01*
X146960095Y-144246714D01*
X146864857Y-144294333D01*
X146388666Y-144913380D02*
X146388666Y-144246714D01*
X146388666Y-143913380D02*
X146436285Y-143961000D01*
X146388666Y-144008619D01*
X146341047Y-143961000D01*
X146388666Y-143913380D01*
X146388666Y-144008619D01*
X145483904Y-144246714D02*
X145483904Y-145056238D01*
X145531523Y-145151476D01*
X145579142Y-145199095D01*
X145674380Y-145246714D01*
X145817238Y-145246714D01*
X145912476Y-145199095D01*
X145483904Y-144865761D02*
X145579142Y-144913380D01*
X145769619Y-144913380D01*
X145864857Y-144865761D01*
X145912476Y-144818142D01*
X145960095Y-144722904D01*
X145960095Y-144437190D01*
X145912476Y-144341952D01*
X145864857Y-144294333D01*
X145769619Y-144246714D01*
X145579142Y-144246714D01*
X145483904Y-144294333D01*
X145007714Y-144246714D02*
X145007714Y-144913380D01*
X145007714Y-144341952D02*
X144960095Y-144294333D01*
X144864857Y-144246714D01*
X144722000Y-144246714D01*
X144626761Y-144294333D01*
X144579142Y-144389571D01*
X144579142Y-144913380D01*
X143722000Y-144865761D02*
X143817238Y-144913380D01*
X144007714Y-144913380D01*
X144102952Y-144865761D01*
X144150571Y-144770523D01*
X144150571Y-144389571D01*
X144102952Y-144294333D01*
X144007714Y-144246714D01*
X143817238Y-144246714D01*
X143722000Y-144294333D01*
X143674380Y-144389571D01*
X143674380Y-144484809D01*
X144150571Y-144580047D01*
X142817238Y-144913380D02*
X142817238Y-143913380D01*
X142817238Y-144865761D02*
X142912476Y-144913380D01*
X143102952Y-144913380D01*
X143198190Y-144865761D01*
X143245809Y-144818142D01*
X143293428Y-144722904D01*
X143293428Y-144437190D01*
X143245809Y-144341952D01*
X143198190Y-144294333D01*
X143102952Y-144246714D01*
X142912476Y-144246714D01*
X142817238Y-144294333D01*
X141579142Y-144913380D02*
X141579142Y-143913380D01*
X141007714Y-144913380D01*
X141007714Y-143913380D01*
X140388666Y-144913380D02*
X140483904Y-144865761D01*
X140531523Y-144818142D01*
X140579142Y-144722904D01*
X140579142Y-144437190D01*
X140531523Y-144341952D01*
X140483904Y-144294333D01*
X140388666Y-144246714D01*
X140245809Y-144246714D01*
X140150571Y-144294333D01*
X140102952Y-144341952D01*
X140055333Y-144437190D01*
X140055333Y-144722904D01*
X140102952Y-144818142D01*
X140150571Y-144865761D01*
X140245809Y-144913380D01*
X140388666Y-144913380D01*
X139722000Y-144246714D02*
X139483904Y-144913380D01*
X139245809Y-144246714D01*
X138483904Y-144865761D02*
X138579142Y-144913380D01*
X138769619Y-144913380D01*
X138864857Y-144865761D01*
X138912476Y-144770523D01*
X138912476Y-144389571D01*
X138864857Y-144294333D01*
X138769619Y-144246714D01*
X138579142Y-144246714D01*
X138483904Y-144294333D01*
X138436285Y-144389571D01*
X138436285Y-144484809D01*
X138912476Y-144580047D01*
X138007714Y-144913380D02*
X138007714Y-144246714D01*
X138007714Y-144341952D02*
X137960095Y-144294333D01*
X137864857Y-144246714D01*
X137722000Y-144246714D01*
X137626761Y-144294333D01*
X137579142Y-144389571D01*
X137579142Y-144913380D01*
X137579142Y-144389571D02*
X137531523Y-144294333D01*
X137436285Y-144246714D01*
X137293428Y-144246714D01*
X137198190Y-144294333D01*
X137150571Y-144389571D01*
X137150571Y-144913380D01*
X136674380Y-144913380D02*
X136674380Y-143913380D01*
X136674380Y-144294333D02*
X136579142Y-144246714D01*
X136388666Y-144246714D01*
X136293428Y-144294333D01*
X136245809Y-144341952D01*
X136198190Y-144437190D01*
X136198190Y-144722904D01*
X136245809Y-144818142D01*
X136293428Y-144865761D01*
X136388666Y-144913380D01*
X136579142Y-144913380D01*
X136674380Y-144865761D01*
X135388666Y-144865761D02*
X135483904Y-144913380D01*
X135674380Y-144913380D01*
X135769619Y-144865761D01*
X135817238Y-144770523D01*
X135817238Y-144389571D01*
X135769619Y-144294333D01*
X135674380Y-144246714D01*
X135483904Y-144246714D01*
X135388666Y-144294333D01*
X135341047Y-144389571D01*
X135341047Y-144484809D01*
X135817238Y-144580047D01*
X134912476Y-144913380D02*
X134912476Y-144246714D01*
X134912476Y-144437190D02*
X134864857Y-144341952D01*
X134817238Y-144294333D01*
X134722000Y-144246714D01*
X134626761Y-144246714D01*
X133007714Y-144913380D02*
X133579142Y-144913380D01*
X133293428Y-144913380D02*
X133293428Y-143913380D01*
X133388666Y-144056238D01*
X133483904Y-144151476D01*
X133579142Y-144199095D01*
X132150571Y-143913380D02*
X132341047Y-143913380D01*
X132436285Y-143961000D01*
X132483904Y-144008619D01*
X132579142Y-144151476D01*
X132626761Y-144341952D01*
X132626761Y-144722904D01*
X132579142Y-144818142D01*
X132531523Y-144865761D01*
X132436285Y-144913380D01*
X132245809Y-144913380D01*
X132150571Y-144865761D01*
X132102952Y-144818142D01*
X132055333Y-144722904D01*
X132055333Y-144484809D01*
X132102952Y-144389571D01*
X132150571Y-144341952D01*
X132245809Y-144294333D01*
X132436285Y-144294333D01*
X132531523Y-144341952D01*
X132579142Y-144389571D01*
X132626761Y-144484809D01*
X131579142Y-144865761D02*
X131579142Y-144913380D01*
X131626761Y-145008619D01*
X131674380Y-145056238D01*
X130436285Y-144008619D02*
X130388666Y-143961000D01*
X130293428Y-143913380D01*
X130055333Y-143913380D01*
X129960095Y-143961000D01*
X129912476Y-144008619D01*
X129864857Y-144103857D01*
X129864857Y-144199095D01*
X129912476Y-144341952D01*
X130483904Y-144913380D01*
X129864857Y-144913380D01*
X129245809Y-143913380D02*
X129150571Y-143913380D01*
X129055333Y-143961000D01*
X129007714Y-144008619D01*
X128960095Y-144103857D01*
X128912476Y-144294333D01*
X128912476Y-144532428D01*
X128960095Y-144722904D01*
X129007714Y-144818142D01*
X129055333Y-144865761D01*
X129150571Y-144913380D01*
X129245809Y-144913380D01*
X129341047Y-144865761D01*
X129388666Y-144818142D01*
X129436285Y-144722904D01*
X129483904Y-144532428D01*
X129483904Y-144294333D01*
X129436285Y-144103857D01*
X129388666Y-144008619D01*
X129341047Y-143961000D01*
X129245809Y-143913380D01*
X128531523Y-144008619D02*
X128483904Y-143961000D01*
X128388666Y-143913380D01*
X128150571Y-143913380D01*
X128055333Y-143961000D01*
X128007714Y-144008619D01*
X127960095Y-144103857D01*
X127960095Y-144199095D01*
X128007714Y-144341952D01*
X128579142Y-144913380D01*
X127960095Y-144913380D01*
X127341047Y-143913380D02*
X127245809Y-143913380D01*
X127150571Y-143961000D01*
X127102952Y-144008619D01*
X127055333Y-144103857D01*
X127007714Y-144294333D01*
X127007714Y-144532428D01*
X127055333Y-144722904D01*
X127102952Y-144818142D01*
X127150571Y-144865761D01*
X127245809Y-144913380D01*
X127341047Y-144913380D01*
X127436285Y-144865761D01*
X127483904Y-144818142D01*
X127531523Y-144722904D01*
X127579142Y-144532428D01*
X127579142Y-144294333D01*
X127531523Y-144103857D01*
X127483904Y-144008619D01*
X127436285Y-143961000D01*
X127341047Y-143913380D01*
X125817238Y-144532428D02*
X125055333Y-144532428D01*
X123483904Y-144389571D02*
X123817238Y-144389571D01*
X123817238Y-144913380D02*
X123817238Y-143913380D01*
X123341047Y-143913380D01*
X122579142Y-144865761D02*
X122674380Y-144913380D01*
X122864857Y-144913380D01*
X122960095Y-144865761D01*
X123007714Y-144770523D01*
X123007714Y-144389571D01*
X122960095Y-144294333D01*
X122864857Y-144246714D01*
X122674380Y-144246714D01*
X122579142Y-144294333D01*
X122531523Y-144389571D01*
X122531523Y-144484809D01*
X123007714Y-144580047D01*
X122102952Y-144913380D02*
X122102952Y-143913380D01*
X122102952Y-144294333D02*
X122007714Y-144246714D01*
X121817238Y-144246714D01*
X121722000Y-144294333D01*
X121674380Y-144341952D01*
X121626761Y-144437190D01*
X121626761Y-144722904D01*
X121674380Y-144818142D01*
X121722000Y-144865761D01*
X121817238Y-144913380D01*
X122007714Y-144913380D01*
X122102952Y-144865761D01*
X121198190Y-144818142D02*
X121150571Y-144865761D01*
X121198190Y-144913380D01*
X121245809Y-144865761D01*
X121198190Y-144818142D01*
X121198190Y-144913380D01*
X120055333Y-143913380D02*
X119388666Y-143913380D01*
X119817238Y-144913380D01*
X118960095Y-144865761D02*
X118960095Y-144913380D01*
X119007714Y-145008619D01*
X119055333Y-145056238D01*
X117817238Y-144008619D02*
X117769619Y-143961000D01*
X117674380Y-143913380D01*
X117436285Y-143913380D01*
X117341047Y-143961000D01*
X117293428Y-144008619D01*
X117245809Y-144103857D01*
X117245809Y-144199095D01*
X117293428Y-144341952D01*
X117864857Y-144913380D01*
X117245809Y-144913380D01*
X116626761Y-143913380D02*
X116531523Y-143913380D01*
X116436285Y-143961000D01*
X116388666Y-144008619D01*
X116341047Y-144103857D01*
X116293428Y-144294333D01*
X116293428Y-144532428D01*
X116341047Y-144722904D01*
X116388666Y-144818142D01*
X116436285Y-144865761D01*
X116531523Y-144913380D01*
X116626761Y-144913380D01*
X116722000Y-144865761D01*
X116769619Y-144818142D01*
X116817238Y-144722904D01*
X116864857Y-144532428D01*
X116864857Y-144294333D01*
X116817238Y-144103857D01*
X116769619Y-144008619D01*
X116722000Y-143961000D01*
X116626761Y-143913380D01*
X115912476Y-144008619D02*
X115864857Y-143961000D01*
X115769619Y-143913380D01*
X115531523Y-143913380D01*
X115436285Y-143961000D01*
X115388666Y-144008619D01*
X115341047Y-144103857D01*
X115341047Y-144199095D01*
X115388666Y-144341952D01*
X115960095Y-144913380D01*
X115341047Y-144913380D01*
X114388666Y-144913380D02*
X114960095Y-144913380D01*
X114674380Y-144913380D02*
X114674380Y-143913380D01*
X114769619Y-144056238D01*
X114864857Y-144151476D01*
X114960095Y-144199095D01*
X113198190Y-144532428D02*
X112436285Y-144532428D01*
X110912476Y-143913380D02*
X110912476Y-144627666D01*
X110960095Y-144770523D01*
X111055333Y-144865761D01*
X111198190Y-144913380D01*
X111293428Y-144913380D01*
X110007714Y-144246714D02*
X110007714Y-144913380D01*
X110436285Y-144246714D02*
X110436285Y-144770523D01*
X110388666Y-144865761D01*
X110293428Y-144913380D01*
X110150571Y-144913380D01*
X110055333Y-144865761D01*
X110007714Y-144818142D01*
X109531523Y-144246714D02*
X109531523Y-144913380D01*
X109531523Y-144341952D02*
X109483904Y-144294333D01*
X109388666Y-144246714D01*
X109245809Y-144246714D01*
X109150571Y-144294333D01*
X109102952Y-144389571D01*
X109102952Y-144913380D01*
X107341047Y-144913380D02*
X107912476Y-144913380D01*
X107626761Y-144913380D02*
X107626761Y-143913380D01*
X107722000Y-144056238D01*
X107817238Y-144151476D01*
X107912476Y-144199095D01*
X106769619Y-144341952D02*
X106864857Y-144294333D01*
X106912476Y-144246714D01*
X106960095Y-144151476D01*
X106960095Y-144103857D01*
X106912476Y-144008619D01*
X106864857Y-143961000D01*
X106769619Y-143913380D01*
X106579142Y-143913380D01*
X106483904Y-143961000D01*
X106436285Y-144008619D01*
X106388666Y-144103857D01*
X106388666Y-144151476D01*
X106436285Y-144246714D01*
X106483904Y-144294333D01*
X106579142Y-144341952D01*
X106769619Y-144341952D01*
X106864857Y-144389571D01*
X106912476Y-144437190D01*
X106960095Y-144532428D01*
X106960095Y-144722904D01*
X106912476Y-144818142D01*
X106864857Y-144865761D01*
X106769619Y-144913380D01*
X106579142Y-144913380D01*
X106483904Y-144865761D01*
X106436285Y-144818142D01*
X106388666Y-144722904D01*
X106388666Y-144532428D01*
X106436285Y-144437190D01*
X106483904Y-144389571D01*
X106579142Y-144341952D01*
X105912476Y-144865761D02*
X105912476Y-144913380D01*
X105960095Y-145008619D01*
X106007714Y-145056238D01*
X104769619Y-144008619D02*
X104722000Y-143961000D01*
X104626761Y-143913380D01*
X104388666Y-143913380D01*
X104293428Y-143961000D01*
X104245809Y-144008619D01*
X104198190Y-144103857D01*
X104198190Y-144199095D01*
X104245809Y-144341952D01*
X104817238Y-144913380D01*
X104198190Y-144913380D01*
X103579142Y-143913380D02*
X103483904Y-143913380D01*
X103388666Y-143961000D01*
X103341047Y-144008619D01*
X103293428Y-144103857D01*
X103245809Y-144294333D01*
X103245809Y-144532428D01*
X103293428Y-144722904D01*
X103341047Y-144818142D01*
X103388666Y-144865761D01*
X103483904Y-144913380D01*
X103579142Y-144913380D01*
X103674380Y-144865761D01*
X103722000Y-144818142D01*
X103769619Y-144722904D01*
X103817238Y-144532428D01*
X103817238Y-144294333D01*
X103769619Y-144103857D01*
X103722000Y-144008619D01*
X103674380Y-143961000D01*
X103579142Y-143913380D01*
X102864857Y-144008619D02*
X102817238Y-143961000D01*
X102722000Y-143913380D01*
X102483904Y-143913380D01*
X102388666Y-143961000D01*
X102341047Y-144008619D01*
X102293428Y-144103857D01*
X102293428Y-144199095D01*
X102341047Y-144341952D01*
X102912476Y-144913380D01*
X102293428Y-144913380D01*
X101341047Y-144913380D02*
X101912476Y-144913380D01*
X101626761Y-144913380D02*
X101626761Y-143913380D01*
X101722000Y-144056238D01*
X101817238Y-144151476D01*
X101912476Y-144199095D01*
X132483904Y-146563380D02*
X132483904Y-145563380D01*
X132245809Y-145563380D01*
X132102952Y-145611000D01*
X132007714Y-145706238D01*
X131960095Y-145801476D01*
X131912476Y-145991952D01*
X131912476Y-146134809D01*
X131960095Y-146325285D01*
X132007714Y-146420523D01*
X132102952Y-146515761D01*
X132245809Y-146563380D01*
X132483904Y-146563380D01*
X131102952Y-146515761D02*
X131198190Y-146563380D01*
X131388666Y-146563380D01*
X131483904Y-146515761D01*
X131531523Y-146420523D01*
X131531523Y-146039571D01*
X131483904Y-145944333D01*
X131388666Y-145896714D01*
X131198190Y-145896714D01*
X131102952Y-145944333D01*
X131055333Y-146039571D01*
X131055333Y-146134809D01*
X131531523Y-146230047D01*
X130198190Y-146515761D02*
X130293428Y-146563380D01*
X130483904Y-146563380D01*
X130579142Y-146515761D01*
X130626761Y-146468142D01*
X130674380Y-146372904D01*
X130674380Y-146087190D01*
X130626761Y-145991952D01*
X130579142Y-145944333D01*
X130483904Y-145896714D01*
X130293428Y-145896714D01*
X130198190Y-145944333D01*
X129388666Y-146515761D02*
X129483904Y-146563380D01*
X129674380Y-146563380D01*
X129769619Y-146515761D01*
X129817238Y-146420523D01*
X129817238Y-146039571D01*
X129769619Y-145944333D01*
X129674380Y-145896714D01*
X129483904Y-145896714D01*
X129388666Y-145944333D01*
X129341047Y-146039571D01*
X129341047Y-146134809D01*
X129817238Y-146230047D01*
X128912476Y-146563380D02*
X128912476Y-145896714D01*
X128912476Y-145991952D02*
X128864857Y-145944333D01*
X128769619Y-145896714D01*
X128626761Y-145896714D01*
X128531523Y-145944333D01*
X128483904Y-146039571D01*
X128483904Y-146563380D01*
X128483904Y-146039571D02*
X128436285Y-145944333D01*
X128341047Y-145896714D01*
X128198190Y-145896714D01*
X128102952Y-145944333D01*
X128055333Y-146039571D01*
X128055333Y-146563380D01*
X127579142Y-146563380D02*
X127579142Y-145563380D01*
X127579142Y-145944333D02*
X127483904Y-145896714D01*
X127293428Y-145896714D01*
X127198190Y-145944333D01*
X127150571Y-145991952D01*
X127102952Y-146087190D01*
X127102952Y-146372904D01*
X127150571Y-146468142D01*
X127198190Y-146515761D01*
X127293428Y-146563380D01*
X127483904Y-146563380D01*
X127579142Y-146515761D01*
X126293428Y-146515761D02*
X126388666Y-146563380D01*
X126579142Y-146563380D01*
X126674380Y-146515761D01*
X126722000Y-146420523D01*
X126722000Y-146039571D01*
X126674380Y-145944333D01*
X126579142Y-145896714D01*
X126388666Y-145896714D01*
X126293428Y-145944333D01*
X126245809Y-146039571D01*
X126245809Y-146134809D01*
X126722000Y-146230047D01*
X125817238Y-146563380D02*
X125817238Y-145896714D01*
X125817238Y-146087190D02*
X125769619Y-145991952D01*
X125722000Y-145944333D01*
X125626761Y-145896714D01*
X125531523Y-145896714D01*
X124483904Y-145658619D02*
X124436285Y-145611000D01*
X124341047Y-145563380D01*
X124102952Y-145563380D01*
X124007714Y-145611000D01*
X123960095Y-145658619D01*
X123912476Y-145753857D01*
X123912476Y-145849095D01*
X123960095Y-145991952D01*
X124531523Y-146563380D01*
X123912476Y-146563380D01*
X123579142Y-145563380D02*
X122960095Y-145563380D01*
X123293428Y-145944333D01*
X123150571Y-145944333D01*
X123055333Y-145991952D01*
X123007714Y-146039571D01*
X122960095Y-146134809D01*
X122960095Y-146372904D01*
X123007714Y-146468142D01*
X123055333Y-146515761D01*
X123150571Y-146563380D01*
X123436285Y-146563380D01*
X123531523Y-146515761D01*
X123579142Y-146468142D01*
X122483904Y-146515761D02*
X122483904Y-146563380D01*
X122531523Y-146658619D01*
X122579142Y-146706238D01*
X121341047Y-145658619D02*
X121293428Y-145611000D01*
X121198190Y-145563380D01*
X120960095Y-145563380D01*
X120864857Y-145611000D01*
X120817238Y-145658619D01*
X120769619Y-145753857D01*
X120769619Y-145849095D01*
X120817238Y-145991952D01*
X121388666Y-146563380D01*
X120769619Y-146563380D01*
X120150571Y-145563380D02*
X120055333Y-145563380D01*
X119960095Y-145611000D01*
X119912476Y-145658619D01*
X119864857Y-145753857D01*
X119817238Y-145944333D01*
X119817238Y-146182428D01*
X119864857Y-146372904D01*
X119912476Y-146468142D01*
X119960095Y-146515761D01*
X120055333Y-146563380D01*
X120150571Y-146563380D01*
X120245809Y-146515761D01*
X120293428Y-146468142D01*
X120341047Y-146372904D01*
X120388666Y-146182428D01*
X120388666Y-145944333D01*
X120341047Y-145753857D01*
X120293428Y-145658619D01*
X120245809Y-145611000D01*
X120150571Y-145563380D01*
X119436285Y-145658619D02*
X119388666Y-145611000D01*
X119293428Y-145563380D01*
X119055333Y-145563380D01*
X118960095Y-145611000D01*
X118912476Y-145658619D01*
X118864857Y-145753857D01*
X118864857Y-145849095D01*
X118912476Y-145991952D01*
X119483904Y-146563380D01*
X118864857Y-146563380D01*
X117912476Y-146563380D02*
X118483904Y-146563380D01*
X118198190Y-146563380D02*
X118198190Y-145563380D01*
X118293428Y-145706238D01*
X118388666Y-145801476D01*
X118483904Y-145849095D01*
X77365714Y-141644666D02*
X76889523Y-141644666D01*
X77460952Y-141930380D02*
X77127619Y-140930380D01*
X76794285Y-141930380D01*
X76460952Y-141263714D02*
X76460952Y-141930380D01*
X76460952Y-141358952D02*
X76413333Y-141311333D01*
X76318095Y-141263714D01*
X76175238Y-141263714D01*
X76080000Y-141311333D01*
X76032380Y-141406571D01*
X76032380Y-141930380D01*
X74365714Y-141930380D02*
X74365714Y-141406571D01*
X74413333Y-141311333D01*
X74508571Y-141263714D01*
X74699047Y-141263714D01*
X74794285Y-141311333D01*
X74365714Y-141882761D02*
X74460952Y-141930380D01*
X74699047Y-141930380D01*
X74794285Y-141882761D01*
X74841904Y-141787523D01*
X74841904Y-141692285D01*
X74794285Y-141597047D01*
X74699047Y-141549428D01*
X74460952Y-141549428D01*
X74365714Y-141501809D01*
X73889523Y-141930380D02*
X73889523Y-140930380D01*
X73889523Y-141311333D02*
X73794285Y-141263714D01*
X73603809Y-141263714D01*
X73508571Y-141311333D01*
X73460952Y-141358952D01*
X73413333Y-141454190D01*
X73413333Y-141739904D01*
X73460952Y-141835142D01*
X73508571Y-141882761D01*
X73603809Y-141930380D01*
X73794285Y-141930380D01*
X73889523Y-141882761D01*
X72841904Y-141930380D02*
X72937142Y-141882761D01*
X72984761Y-141835142D01*
X73032380Y-141739904D01*
X73032380Y-141454190D01*
X72984761Y-141358952D01*
X72937142Y-141311333D01*
X72841904Y-141263714D01*
X72699047Y-141263714D01*
X72603809Y-141311333D01*
X72556190Y-141358952D01*
X72508571Y-141454190D01*
X72508571Y-141739904D01*
X72556190Y-141835142D01*
X72603809Y-141882761D01*
X72699047Y-141930380D01*
X72841904Y-141930380D01*
X72080000Y-141930380D02*
X72080000Y-141263714D01*
X72080000Y-141358952D02*
X72032380Y-141311333D01*
X71937142Y-141263714D01*
X71794285Y-141263714D01*
X71699047Y-141311333D01*
X71651428Y-141406571D01*
X71651428Y-141930380D01*
X71651428Y-141406571D02*
X71603809Y-141311333D01*
X71508571Y-141263714D01*
X71365714Y-141263714D01*
X71270476Y-141311333D01*
X71222857Y-141406571D01*
X71222857Y-141930380D01*
X70746666Y-141930380D02*
X70746666Y-141263714D01*
X70746666Y-140930380D02*
X70794285Y-140978000D01*
X70746666Y-141025619D01*
X70699047Y-140978000D01*
X70746666Y-140930380D01*
X70746666Y-141025619D01*
X70270476Y-141263714D02*
X70270476Y-141930380D01*
X70270476Y-141358952D02*
X70222857Y-141311333D01*
X70127619Y-141263714D01*
X69984761Y-141263714D01*
X69889523Y-141311333D01*
X69841904Y-141406571D01*
X69841904Y-141930380D01*
X68937142Y-141930380D02*
X68937142Y-141406571D01*
X68984761Y-141311333D01*
X69080000Y-141263714D01*
X69270476Y-141263714D01*
X69365714Y-141311333D01*
X68937142Y-141882761D02*
X69032380Y-141930380D01*
X69270476Y-141930380D01*
X69365714Y-141882761D01*
X69413333Y-141787523D01*
X69413333Y-141692285D01*
X69365714Y-141597047D01*
X69270476Y-141549428D01*
X69032380Y-141549428D01*
X68937142Y-141501809D01*
X68603809Y-141263714D02*
X68222857Y-141263714D01*
X68460952Y-140930380D02*
X68460952Y-141787523D01*
X68413333Y-141882761D01*
X68318095Y-141930380D01*
X68222857Y-141930380D01*
X67889523Y-141930380D02*
X67889523Y-141263714D01*
X67889523Y-140930380D02*
X67937142Y-140978000D01*
X67889523Y-141025619D01*
X67841904Y-140978000D01*
X67889523Y-140930380D01*
X67889523Y-141025619D01*
X67270476Y-141930380D02*
X67365714Y-141882761D01*
X67413333Y-141835142D01*
X67460952Y-141739904D01*
X67460952Y-141454190D01*
X67413333Y-141358952D01*
X67365714Y-141311333D01*
X67270476Y-141263714D01*
X67127619Y-141263714D01*
X67032380Y-141311333D01*
X66984761Y-141358952D01*
X66937142Y-141454190D01*
X66937142Y-141739904D01*
X66984761Y-141835142D01*
X67032380Y-141882761D01*
X67127619Y-141930380D01*
X67270476Y-141930380D01*
X66508571Y-141263714D02*
X66508571Y-141930380D01*
X66508571Y-141358952D02*
X66460952Y-141311333D01*
X66365714Y-141263714D01*
X66222857Y-141263714D01*
X66127619Y-141311333D01*
X66080000Y-141406571D01*
X66080000Y-141930380D01*
X64699047Y-141930380D02*
X64794285Y-141882761D01*
X64841904Y-141835142D01*
X64889523Y-141739904D01*
X64889523Y-141454190D01*
X64841904Y-141358952D01*
X64794285Y-141311333D01*
X64699047Y-141263714D01*
X64556190Y-141263714D01*
X64460952Y-141311333D01*
X64413333Y-141358952D01*
X64365714Y-141454190D01*
X64365714Y-141739904D01*
X64413333Y-141835142D01*
X64460952Y-141882761D01*
X64556190Y-141930380D01*
X64699047Y-141930380D01*
X64080000Y-141263714D02*
X63699047Y-141263714D01*
X63937142Y-141930380D02*
X63937142Y-141073238D01*
X63889523Y-140978000D01*
X63794285Y-140930380D01*
X63699047Y-140930380D01*
X62603809Y-141406571D02*
X62270476Y-141406571D01*
X62127619Y-141930380D02*
X62603809Y-141930380D01*
X62603809Y-140930380D01*
X62127619Y-140930380D01*
X61699047Y-141406571D02*
X61365714Y-141406571D01*
X61222857Y-141930380D02*
X61699047Y-141930380D01*
X61699047Y-140930380D01*
X61222857Y-140930380D01*
X60794285Y-141835142D02*
X60746666Y-141882761D01*
X60794285Y-141930380D01*
X60841904Y-141882761D01*
X60794285Y-141835142D01*
X60794285Y-141930380D01*
X60318095Y-141835142D02*
X60270476Y-141882761D01*
X60318095Y-141930380D01*
X60365714Y-141882761D01*
X60318095Y-141835142D01*
X60318095Y-141930380D01*
X59841904Y-141835142D02*
X59794285Y-141882761D01*
X59841904Y-141930380D01*
X59889523Y-141882761D01*
X59841904Y-141835142D01*
X59841904Y-141930380D01*
D11*
G36*
X97028000Y-136906000D02*
G01*
X95758000Y-136906000D01*
X95758000Y-135636000D01*
X97028000Y-135636000D01*
X97028000Y-136906000D01*
G37*
X97028000Y-136906000D02*
X95758000Y-136906000D01*
X95758000Y-135636000D01*
X97028000Y-135636000D01*
X97028000Y-136906000D01*
G36*
X91694000Y-136906000D02*
G01*
X90424000Y-136906000D01*
X90424000Y-135636000D01*
X91694000Y-135636000D01*
X91694000Y-136906000D01*
G37*
X91694000Y-136906000D02*
X90424000Y-136906000D01*
X90424000Y-135636000D01*
X91694000Y-135636000D01*
X91694000Y-136906000D01*
G36*
X95250000Y-130048000D02*
G01*
X96012000Y-130048000D01*
X96012000Y-129286000D01*
X97790000Y-129286000D01*
X97790000Y-140208000D01*
X97536000Y-140208000D01*
X97536000Y-129540000D01*
X96266000Y-129540000D01*
X96266000Y-130302000D01*
X94996000Y-130302000D01*
X94996000Y-129286000D01*
X92456000Y-129286000D01*
X92456000Y-130302000D01*
X91186000Y-130302000D01*
X91186000Y-129540000D01*
X89916000Y-129540000D01*
X89916000Y-139954000D01*
X92202000Y-139954000D01*
X92202000Y-140970000D01*
X95504000Y-140970000D01*
X95504000Y-140208000D01*
X97282000Y-140208000D01*
X97282000Y-140462000D01*
X95758000Y-140462000D01*
X95758000Y-141224000D01*
X91948000Y-141224000D01*
X91948000Y-140208000D01*
X89662000Y-140208000D01*
X89662000Y-129286000D01*
X91440000Y-129286000D01*
X91440000Y-130048000D01*
X92202000Y-130048000D01*
X92202000Y-129032000D01*
X95250000Y-129032000D01*
X95250000Y-130048000D01*
G37*
X95250000Y-130048000D02*
X96012000Y-130048000D01*
X96012000Y-129286000D01*
X97790000Y-129286000D01*
X97790000Y-140208000D01*
X97536000Y-140208000D01*
X97536000Y-129540000D01*
X96266000Y-129540000D01*
X96266000Y-130302000D01*
X94996000Y-130302000D01*
X94996000Y-129286000D01*
X92456000Y-129286000D01*
X92456000Y-130302000D01*
X91186000Y-130302000D01*
X91186000Y-129540000D01*
X89916000Y-129540000D01*
X89916000Y-139954000D01*
X92202000Y-139954000D01*
X92202000Y-140970000D01*
X95504000Y-140970000D01*
X95504000Y-140208000D01*
X97282000Y-140208000D01*
X97282000Y-140462000D01*
X95758000Y-140462000D01*
X95758000Y-141224000D01*
X91948000Y-141224000D01*
X91948000Y-140208000D01*
X89662000Y-140208000D01*
X89662000Y-129286000D01*
X91440000Y-129286000D01*
X91440000Y-130048000D01*
X92202000Y-130048000D01*
X92202000Y-129032000D01*
X95250000Y-129032000D01*
X95250000Y-130048000D01*
G36*
X99822000Y-139700000D02*
G01*
X100584000Y-140716000D01*
X101092000Y-145288000D01*
X101092000Y-151638000D01*
X100584000Y-153670000D01*
X98806000Y-156464000D01*
X96012000Y-158750000D01*
X91694000Y-158496000D01*
X89408000Y-156464000D01*
X87376000Y-152654000D01*
X87376000Y-147320000D01*
X87630000Y-147320000D01*
X87630000Y-152654000D01*
X89662000Y-156210000D01*
X91948000Y-158242000D01*
X95758000Y-158496000D01*
X98552000Y-156210000D01*
X100330000Y-153416000D01*
X100838000Y-151638000D01*
X100838000Y-145288000D01*
X100330000Y-140970000D01*
X99568000Y-139954000D01*
X98298000Y-139446000D01*
X97790000Y-139446000D01*
X97790000Y-140208000D01*
X97536000Y-140208000D01*
X97536000Y-139192000D01*
X98298000Y-139192000D01*
X99822000Y-139700000D01*
G37*
X99822000Y-139700000D02*
X100584000Y-140716000D01*
X101092000Y-145288000D01*
X101092000Y-151638000D01*
X100584000Y-153670000D01*
X98806000Y-156464000D01*
X96012000Y-158750000D01*
X91694000Y-158496000D01*
X89408000Y-156464000D01*
X87376000Y-152654000D01*
X87376000Y-147320000D01*
X87630000Y-147320000D01*
X87630000Y-152654000D01*
X89662000Y-156210000D01*
X91948000Y-158242000D01*
X95758000Y-158496000D01*
X98552000Y-156210000D01*
X100330000Y-153416000D01*
X100838000Y-151638000D01*
X100838000Y-145288000D01*
X100330000Y-140970000D01*
X99568000Y-139954000D01*
X98298000Y-139446000D01*
X97790000Y-139446000D01*
X97790000Y-140208000D01*
X97536000Y-140208000D01*
X97536000Y-139192000D01*
X98298000Y-139192000D01*
X99822000Y-139700000D01*
G36*
X87630000Y-148082000D02*
G01*
X87376000Y-148082000D01*
X87376000Y-146812000D01*
X87884000Y-144272000D01*
X88138000Y-144272000D01*
X87630000Y-148082000D01*
G37*
X87630000Y-148082000D02*
X87376000Y-148082000D01*
X87376000Y-146812000D01*
X87884000Y-144272000D01*
X88138000Y-144272000D01*
X87630000Y-148082000D01*
G36*
X91186000Y-157734000D02*
G01*
X89662000Y-159258000D01*
X89662000Y-163830000D01*
X90678000Y-164846000D01*
X90424000Y-165100000D01*
X89408000Y-164084000D01*
X89408000Y-165862000D01*
X89154000Y-165862000D01*
X89154000Y-164084000D01*
X88392000Y-164084000D01*
X87630000Y-164592000D01*
X87630000Y-164338000D01*
X88392000Y-163830000D01*
X89154000Y-163830000D01*
X89154000Y-159258000D01*
X90678000Y-157480000D01*
X91186000Y-157734000D01*
G37*
X91186000Y-157734000D02*
X89662000Y-159258000D01*
X89662000Y-163830000D01*
X90678000Y-164846000D01*
X90424000Y-165100000D01*
X89408000Y-164084000D01*
X89408000Y-165862000D01*
X89154000Y-165862000D01*
X89154000Y-164084000D01*
X88392000Y-164084000D01*
X87630000Y-164592000D01*
X87630000Y-164338000D01*
X88392000Y-163830000D01*
X89154000Y-163830000D01*
X89154000Y-159258000D01*
X90678000Y-157480000D01*
X91186000Y-157734000D01*
G36*
X100076000Y-158496000D02*
G01*
X100076000Y-164338000D01*
X100584000Y-164592000D01*
X100584000Y-164846000D01*
X101600000Y-166370000D01*
X101600000Y-167132000D01*
X101346000Y-167132000D01*
X101346000Y-166878000D01*
X100076000Y-164846000D01*
X100076000Y-166878000D01*
X99822000Y-166878000D01*
X99822000Y-164846000D01*
X99060000Y-165608000D01*
X98806000Y-165354000D01*
X99568000Y-164592000D01*
X99568000Y-158496000D01*
X99060000Y-156210000D01*
X99314000Y-155702000D01*
X100076000Y-158496000D01*
G37*
X100076000Y-158496000D02*
X100076000Y-164338000D01*
X100584000Y-164592000D01*
X100584000Y-164846000D01*
X101600000Y-166370000D01*
X101600000Y-167132000D01*
X101346000Y-167132000D01*
X101346000Y-166878000D01*
X100076000Y-164846000D01*
X100076000Y-166878000D01*
X99822000Y-166878000D01*
X99822000Y-164846000D01*
X99060000Y-165608000D01*
X98806000Y-165354000D01*
X99568000Y-164592000D01*
X99568000Y-158496000D01*
X99060000Y-156210000D01*
X99314000Y-155702000D01*
X100076000Y-158496000D01*
G36*
X88138000Y-144272000D02*
G01*
X87884000Y-144272000D01*
X89408000Y-140208000D01*
X89916000Y-140208000D01*
X88138000Y-144272000D01*
G37*
X88138000Y-144272000D02*
X87884000Y-144272000D01*
X89408000Y-140208000D01*
X89916000Y-140208000D01*
X88138000Y-144272000D01*
D10*
X85172000Y-139200000D02*
X85172000Y-140200000D01*
X86532000Y-140200000D02*
X86532000Y-139200000D01*
X136636000Y-125178000D02*
X134636000Y-125178000D01*
X134636000Y-122218000D02*
X136636000Y-122218000D01*
X136636000Y-121876000D02*
X134636000Y-121876000D01*
X134636000Y-118916000D02*
X136636000Y-118916000D01*
X134628000Y-108624000D02*
X135628000Y-108624000D01*
X135628000Y-110324000D02*
X134628000Y-110324000D01*
X135628000Y-112356000D02*
X134628000Y-112356000D01*
X134628000Y-110656000D02*
X135628000Y-110656000D01*
X134612000Y-112688000D02*
X135612000Y-112688000D01*
X135612000Y-114388000D02*
X134612000Y-114388000D01*
X135628000Y-116420000D02*
X134628000Y-116420000D01*
X134628000Y-114720000D02*
X135628000Y-114720000D01*
X135628000Y-118452000D02*
X134628000Y-118452000D01*
X134628000Y-116752000D02*
X135628000Y-116752000D01*
X120352000Y-90186000D02*
X120352000Y-92186000D01*
X117392000Y-92186000D02*
X117392000Y-90186000D01*
X111594000Y-90686000D02*
X111594000Y-91686000D01*
X109894000Y-91686000D02*
X109894000Y-90686000D01*
X116674000Y-90686000D02*
X116674000Y-91686000D01*
X114974000Y-91686000D02*
X114974000Y-90686000D01*
X112434000Y-91686000D02*
X112434000Y-90686000D01*
X114134000Y-90686000D02*
X114134000Y-91686000D01*
X93568000Y-152054000D02*
X92868000Y-152054000D01*
X92868000Y-153254000D02*
X93568000Y-153254000D01*
X79792000Y-92186000D02*
X83692000Y-92186000D01*
X79792000Y-90186000D02*
X83692000Y-90186000D01*
X79792000Y-92186000D02*
X79792000Y-90186000D01*
X80808000Y-133334000D02*
X80808000Y-131334000D01*
X80808000Y-131334000D02*
X84708000Y-131334000D01*
X80808000Y-133334000D02*
X84708000Y-133334000D01*
X82566000Y-137450000D02*
X82566000Y-141350000D01*
X84566000Y-137450000D02*
X84566000Y-141350000D01*
X82566000Y-137450000D02*
X84566000Y-137450000D01*
X83622000Y-144778000D02*
X83622000Y-143318000D01*
X80462000Y-144778000D02*
X80462000Y-142618000D01*
X80462000Y-144778000D02*
X81392000Y-144778000D01*
X83622000Y-144778000D02*
X82692000Y-144778000D01*
X80764000Y-88220000D02*
X79764000Y-88220000D01*
X79764000Y-89580000D02*
X80764000Y-89580000D01*
X84066000Y-88220000D02*
X83066000Y-88220000D01*
X83066000Y-89580000D02*
X84066000Y-89580000D01*
X102100000Y-130130000D02*
X101100000Y-130130000D01*
X101100000Y-131490000D02*
X102100000Y-131490000D01*
X100576000Y-132924000D02*
X99576000Y-132924000D01*
X99576000Y-134284000D02*
X100576000Y-134284000D01*
X85844000Y-143846000D02*
X84844000Y-143846000D01*
X84844000Y-145206000D02*
X85844000Y-145206000D01*
X80346000Y-140216000D02*
X80346000Y-141216000D01*
X81706000Y-141216000D02*
X81706000Y-140216000D01*
X94118000Y-151724000D02*
X91168000Y-151724000D01*
X92318000Y-148504000D02*
X94118000Y-148504000D01*
X108196000Y-96862000D02*
X107196000Y-96862000D01*
X107196000Y-95162000D02*
X108196000Y-95162000D01*
X108974000Y-111164000D02*
X109974000Y-111164000D01*
X109974000Y-112864000D02*
X108974000Y-112864000D01*
X59428000Y-105322000D02*
X60428000Y-105322000D01*
X60428000Y-107022000D02*
X59428000Y-107022000D01*
X129818000Y-113196000D02*
X130818000Y-113196000D01*
X130818000Y-114896000D02*
X129818000Y-114896000D01*
X129452000Y-95242000D02*
X129452000Y-94242000D01*
X131152000Y-94242000D02*
X131152000Y-95242000D01*
X108196000Y-93300000D02*
X107196000Y-93300000D01*
X107196000Y-94660000D02*
X108196000Y-94660000D01*
X109990999Y-109332001D02*
X108990999Y-109332001D01*
X108990999Y-110692001D02*
X109990999Y-110692001D01*
X60444000Y-107270000D02*
X59444000Y-107270000D01*
X59444000Y-108630000D02*
X60444000Y-108630000D01*
X129824999Y-112724001D02*
X130824999Y-112724001D01*
X130824999Y-111364001D02*
X129824999Y-111364001D01*
X126066000Y-94242000D02*
X126066000Y-95242000D01*
X127426000Y-95242000D02*
X127426000Y-94242000D01*
D12*
X87828380Y-139057142D02*
X87352190Y-138723809D01*
X87828380Y-138485714D02*
X86828380Y-138485714D01*
X86828380Y-138866666D01*
X86876000Y-138961904D01*
X86923619Y-139009523D01*
X87018857Y-139057142D01*
X87161714Y-139057142D01*
X87256952Y-139009523D01*
X87304571Y-138961904D01*
X87352190Y-138866666D01*
X87352190Y-138485714D01*
X86828380Y-139961904D02*
X86828380Y-139485714D01*
X87304571Y-139438095D01*
X87256952Y-139485714D01*
X87209333Y-139580952D01*
X87209333Y-139819047D01*
X87256952Y-139914285D01*
X87304571Y-139961904D01*
X87399809Y-140009523D01*
X87637904Y-140009523D01*
X87733142Y-139961904D01*
X87780761Y-139914285D01*
X87828380Y-139819047D01*
X87828380Y-139580952D01*
X87780761Y-139485714D01*
X87733142Y-139438095D01*
X86828380Y-140342857D02*
X86828380Y-141009523D01*
X87828380Y-140580952D01*
X139580857Y-124055142D02*
X139628476Y-124102761D01*
X139771333Y-124150380D01*
X139866571Y-124150380D01*
X140009428Y-124102761D01*
X140104666Y-124007523D01*
X140152285Y-123912285D01*
X140199904Y-123721809D01*
X140199904Y-123578952D01*
X140152285Y-123388476D01*
X140104666Y-123293238D01*
X140009428Y-123198000D01*
X139866571Y-123150380D01*
X139771333Y-123150380D01*
X139628476Y-123198000D01*
X139580857Y-123245619D01*
X139199904Y-123245619D02*
X139152285Y-123198000D01*
X139057047Y-123150380D01*
X138818952Y-123150380D01*
X138723714Y-123198000D01*
X138676095Y-123245619D01*
X138628476Y-123340857D01*
X138628476Y-123436095D01*
X138676095Y-123578952D01*
X139247523Y-124150380D01*
X138628476Y-124150380D01*
X137771333Y-123483714D02*
X137771333Y-124150380D01*
X138009428Y-123102761D02*
X138247523Y-123817047D01*
X137628476Y-123817047D01*
X139580857Y-120753142D02*
X139628476Y-120800761D01*
X139771333Y-120848380D01*
X139866571Y-120848380D01*
X140009428Y-120800761D01*
X140104666Y-120705523D01*
X140152285Y-120610285D01*
X140199904Y-120419809D01*
X140199904Y-120276952D01*
X140152285Y-120086476D01*
X140104666Y-119991238D01*
X140009428Y-119896000D01*
X139866571Y-119848380D01*
X139771333Y-119848380D01*
X139628476Y-119896000D01*
X139580857Y-119943619D01*
X139199904Y-119943619D02*
X139152285Y-119896000D01*
X139057047Y-119848380D01*
X138818952Y-119848380D01*
X138723714Y-119896000D01*
X138676095Y-119943619D01*
X138628476Y-120038857D01*
X138628476Y-120134095D01*
X138676095Y-120276952D01*
X139247523Y-120848380D01*
X138628476Y-120848380D01*
X138152285Y-120848380D02*
X137961809Y-120848380D01*
X137866571Y-120800761D01*
X137818952Y-120753142D01*
X137723714Y-120610285D01*
X137676095Y-120419809D01*
X137676095Y-120038857D01*
X137723714Y-119943619D01*
X137771333Y-119896000D01*
X137866571Y-119848380D01*
X138057047Y-119848380D01*
X138152285Y-119896000D01*
X138199904Y-119943619D01*
X138247523Y-120038857D01*
X138247523Y-120276952D01*
X138199904Y-120372190D01*
X138152285Y-120419809D01*
X138057047Y-120467428D01*
X137866571Y-120467428D01*
X137771333Y-120419809D01*
X137723714Y-120372190D01*
X137676095Y-120276952D01*
X139580857Y-109831142D02*
X139628476Y-109878761D01*
X139771333Y-109926380D01*
X139866571Y-109926380D01*
X140009428Y-109878761D01*
X140104666Y-109783523D01*
X140152285Y-109688285D01*
X140199904Y-109497809D01*
X140199904Y-109354952D01*
X140152285Y-109164476D01*
X140104666Y-109069238D01*
X140009428Y-108974000D01*
X139866571Y-108926380D01*
X139771333Y-108926380D01*
X139628476Y-108974000D01*
X139580857Y-109021619D01*
X138723714Y-109259714D02*
X138723714Y-109926380D01*
X138961809Y-108878761D02*
X139199904Y-109593047D01*
X138580857Y-109593047D01*
X138009428Y-108926380D02*
X137914190Y-108926380D01*
X137818952Y-108974000D01*
X137771333Y-109021619D01*
X137723714Y-109116857D01*
X137676095Y-109307333D01*
X137676095Y-109545428D01*
X137723714Y-109735904D01*
X137771333Y-109831142D01*
X137818952Y-109878761D01*
X137914190Y-109926380D01*
X138009428Y-109926380D01*
X138104666Y-109878761D01*
X138152285Y-109831142D01*
X138199904Y-109735904D01*
X138247523Y-109545428D01*
X138247523Y-109307333D01*
X138199904Y-109116857D01*
X138152285Y-109021619D01*
X138104666Y-108974000D01*
X138009428Y-108926380D01*
X139580857Y-111863142D02*
X139628476Y-111910761D01*
X139771333Y-111958380D01*
X139866571Y-111958380D01*
X140009428Y-111910761D01*
X140104666Y-111815523D01*
X140152285Y-111720285D01*
X140199904Y-111529809D01*
X140199904Y-111386952D01*
X140152285Y-111196476D01*
X140104666Y-111101238D01*
X140009428Y-111006000D01*
X139866571Y-110958380D01*
X139771333Y-110958380D01*
X139628476Y-111006000D01*
X139580857Y-111053619D01*
X138723714Y-111291714D02*
X138723714Y-111958380D01*
X138961809Y-110910761D02*
X139199904Y-111625047D01*
X138580857Y-111625047D01*
X138057047Y-111386952D02*
X138152285Y-111339333D01*
X138199904Y-111291714D01*
X138247523Y-111196476D01*
X138247523Y-111148857D01*
X138199904Y-111053619D01*
X138152285Y-111006000D01*
X138057047Y-110958380D01*
X137866571Y-110958380D01*
X137771333Y-111006000D01*
X137723714Y-111053619D01*
X137676095Y-111148857D01*
X137676095Y-111196476D01*
X137723714Y-111291714D01*
X137771333Y-111339333D01*
X137866571Y-111386952D01*
X138057047Y-111386952D01*
X138152285Y-111434571D01*
X138199904Y-111482190D01*
X138247523Y-111577428D01*
X138247523Y-111767904D01*
X138199904Y-111863142D01*
X138152285Y-111910761D01*
X138057047Y-111958380D01*
X137866571Y-111958380D01*
X137771333Y-111910761D01*
X137723714Y-111863142D01*
X137676095Y-111767904D01*
X137676095Y-111577428D01*
X137723714Y-111482190D01*
X137771333Y-111434571D01*
X137866571Y-111386952D01*
X139580857Y-113895142D02*
X139628476Y-113942761D01*
X139771333Y-113990380D01*
X139866571Y-113990380D01*
X140009428Y-113942761D01*
X140104666Y-113847523D01*
X140152285Y-113752285D01*
X140199904Y-113561809D01*
X140199904Y-113418952D01*
X140152285Y-113228476D01*
X140104666Y-113133238D01*
X140009428Y-113038000D01*
X139866571Y-112990380D01*
X139771333Y-112990380D01*
X139628476Y-113038000D01*
X139580857Y-113085619D01*
X138676095Y-112990380D02*
X139152285Y-112990380D01*
X139199904Y-113466571D01*
X139152285Y-113418952D01*
X139057047Y-113371333D01*
X138818952Y-113371333D01*
X138723714Y-113418952D01*
X138676095Y-113466571D01*
X138628476Y-113561809D01*
X138628476Y-113799904D01*
X138676095Y-113895142D01*
X138723714Y-113942761D01*
X138818952Y-113990380D01*
X139057047Y-113990380D01*
X139152285Y-113942761D01*
X139199904Y-113895142D01*
X137771333Y-112990380D02*
X137961809Y-112990380D01*
X138057047Y-113038000D01*
X138104666Y-113085619D01*
X138199904Y-113228476D01*
X138247523Y-113418952D01*
X138247523Y-113799904D01*
X138199904Y-113895142D01*
X138152285Y-113942761D01*
X138057047Y-113990380D01*
X137866571Y-113990380D01*
X137771333Y-113942761D01*
X137723714Y-113895142D01*
X137676095Y-113799904D01*
X137676095Y-113561809D01*
X137723714Y-113466571D01*
X137771333Y-113418952D01*
X137866571Y-113371333D01*
X138057047Y-113371333D01*
X138152285Y-113418952D01*
X138199904Y-113466571D01*
X138247523Y-113561809D01*
X139580857Y-115927142D02*
X139628476Y-115974761D01*
X139771333Y-116022380D01*
X139866571Y-116022380D01*
X140009428Y-115974761D01*
X140104666Y-115879523D01*
X140152285Y-115784285D01*
X140199904Y-115593809D01*
X140199904Y-115450952D01*
X140152285Y-115260476D01*
X140104666Y-115165238D01*
X140009428Y-115070000D01*
X139866571Y-115022380D01*
X139771333Y-115022380D01*
X139628476Y-115070000D01*
X139580857Y-115117619D01*
X138723714Y-115022380D02*
X138914190Y-115022380D01*
X139009428Y-115070000D01*
X139057047Y-115117619D01*
X139152285Y-115260476D01*
X139199904Y-115450952D01*
X139199904Y-115831904D01*
X139152285Y-115927142D01*
X139104666Y-115974761D01*
X139009428Y-116022380D01*
X138818952Y-116022380D01*
X138723714Y-115974761D01*
X138676095Y-115927142D01*
X138628476Y-115831904D01*
X138628476Y-115593809D01*
X138676095Y-115498571D01*
X138723714Y-115450952D01*
X138818952Y-115403333D01*
X139009428Y-115403333D01*
X139104666Y-115450952D01*
X139152285Y-115498571D01*
X139199904Y-115593809D01*
X138247523Y-115117619D02*
X138199904Y-115070000D01*
X138104666Y-115022380D01*
X137866571Y-115022380D01*
X137771333Y-115070000D01*
X137723714Y-115117619D01*
X137676095Y-115212857D01*
X137676095Y-115308095D01*
X137723714Y-115450952D01*
X138295142Y-116022380D01*
X137676095Y-116022380D01*
X139580857Y-117959142D02*
X139628476Y-118006761D01*
X139771333Y-118054380D01*
X139866571Y-118054380D01*
X140009428Y-118006761D01*
X140104666Y-117911523D01*
X140152285Y-117816285D01*
X140199904Y-117625809D01*
X140199904Y-117482952D01*
X140152285Y-117292476D01*
X140104666Y-117197238D01*
X140009428Y-117102000D01*
X139866571Y-117054380D01*
X139771333Y-117054380D01*
X139628476Y-117102000D01*
X139580857Y-117149619D01*
X139104666Y-118054380D02*
X138914190Y-118054380D01*
X138818952Y-118006761D01*
X138771333Y-117959142D01*
X138676095Y-117816285D01*
X138628476Y-117625809D01*
X138628476Y-117244857D01*
X138676095Y-117149619D01*
X138723714Y-117102000D01*
X138818952Y-117054380D01*
X139009428Y-117054380D01*
X139104666Y-117102000D01*
X139152285Y-117149619D01*
X139199904Y-117244857D01*
X139199904Y-117482952D01*
X139152285Y-117578190D01*
X139104666Y-117625809D01*
X139009428Y-117673428D01*
X138818952Y-117673428D01*
X138723714Y-117625809D01*
X138676095Y-117578190D01*
X138628476Y-117482952D01*
X138057047Y-117482952D02*
X138152285Y-117435333D01*
X138199904Y-117387714D01*
X138247523Y-117292476D01*
X138247523Y-117244857D01*
X138199904Y-117149619D01*
X138152285Y-117102000D01*
X138057047Y-117054380D01*
X137866571Y-117054380D01*
X137771333Y-117102000D01*
X137723714Y-117149619D01*
X137676095Y-117244857D01*
X137676095Y-117292476D01*
X137723714Y-117387714D01*
X137771333Y-117435333D01*
X137866571Y-117482952D01*
X138057047Y-117482952D01*
X138152285Y-117530571D01*
X138199904Y-117578190D01*
X138247523Y-117673428D01*
X138247523Y-117863904D01*
X138199904Y-117959142D01*
X138152285Y-118006761D01*
X138057047Y-118054380D01*
X137866571Y-118054380D01*
X137771333Y-118006761D01*
X137723714Y-117959142D01*
X137676095Y-117863904D01*
X137676095Y-117673428D01*
X137723714Y-117578190D01*
X137771333Y-117530571D01*
X137866571Y-117482952D01*
X119483142Y-94384952D02*
X119530761Y-94337333D01*
X119578380Y-94194476D01*
X119578380Y-94099238D01*
X119530761Y-93956380D01*
X119435523Y-93861142D01*
X119340285Y-93813523D01*
X119149809Y-93765904D01*
X119006952Y-93765904D01*
X118816476Y-93813523D01*
X118721238Y-93861142D01*
X118626000Y-93956380D01*
X118578380Y-94099238D01*
X118578380Y-94194476D01*
X118626000Y-94337333D01*
X118673619Y-94384952D01*
X119578380Y-95337333D02*
X119578380Y-94765904D01*
X119578380Y-95051619D02*
X118578380Y-95051619D01*
X118721238Y-94956380D01*
X118816476Y-94861142D01*
X118864095Y-94765904D01*
X118578380Y-95956380D02*
X118578380Y-96051619D01*
X118626000Y-96146857D01*
X118673619Y-96194476D01*
X118768857Y-96242095D01*
X118959333Y-96289714D01*
X119197428Y-96289714D01*
X119387904Y-96242095D01*
X119483142Y-96194476D01*
X119530761Y-96146857D01*
X119578380Y-96051619D01*
X119578380Y-95956380D01*
X119530761Y-95861142D01*
X119483142Y-95813523D01*
X119387904Y-95765904D01*
X119197428Y-95718285D01*
X118959333Y-95718285D01*
X118768857Y-95765904D01*
X118673619Y-95813523D01*
X118626000Y-95861142D01*
X118578380Y-95956380D01*
X118911714Y-97146857D02*
X119578380Y-97146857D01*
X118530761Y-96908761D02*
X119245047Y-96670666D01*
X119245047Y-97289714D01*
X109323142Y-89812952D02*
X109370761Y-89765333D01*
X109418380Y-89622476D01*
X109418380Y-89527238D01*
X109370761Y-89384380D01*
X109275523Y-89289142D01*
X109180285Y-89241523D01*
X108989809Y-89193904D01*
X108846952Y-89193904D01*
X108656476Y-89241523D01*
X108561238Y-89289142D01*
X108466000Y-89384380D01*
X108418380Y-89527238D01*
X108418380Y-89622476D01*
X108466000Y-89765333D01*
X108513619Y-89812952D01*
X109418380Y-90765333D02*
X109418380Y-90193904D01*
X109418380Y-90479619D02*
X108418380Y-90479619D01*
X108561238Y-90384380D01*
X108656476Y-90289142D01*
X108704095Y-90193904D01*
X108418380Y-91384380D02*
X108418380Y-91479619D01*
X108466000Y-91574857D01*
X108513619Y-91622476D01*
X108608857Y-91670095D01*
X108799333Y-91717714D01*
X109037428Y-91717714D01*
X109227904Y-91670095D01*
X109323142Y-91622476D01*
X109370761Y-91574857D01*
X109418380Y-91479619D01*
X109418380Y-91384380D01*
X109370761Y-91289142D01*
X109323142Y-91241523D01*
X109227904Y-91193904D01*
X109037428Y-91146285D01*
X108799333Y-91146285D01*
X108608857Y-91193904D01*
X108513619Y-91241523D01*
X108466000Y-91289142D01*
X108418380Y-91384380D01*
X108418380Y-92622476D02*
X108418380Y-92146285D01*
X108894571Y-92098666D01*
X108846952Y-92146285D01*
X108799333Y-92241523D01*
X108799333Y-92479619D01*
X108846952Y-92574857D01*
X108894571Y-92622476D01*
X108989809Y-92670095D01*
X109227904Y-92670095D01*
X109323142Y-92622476D01*
X109370761Y-92574857D01*
X109418380Y-92479619D01*
X109418380Y-92241523D01*
X109370761Y-92146285D01*
X109323142Y-92098666D01*
X116181142Y-94384952D02*
X116228761Y-94337333D01*
X116276380Y-94194476D01*
X116276380Y-94099238D01*
X116228761Y-93956380D01*
X116133523Y-93861142D01*
X116038285Y-93813523D01*
X115847809Y-93765904D01*
X115704952Y-93765904D01*
X115514476Y-93813523D01*
X115419238Y-93861142D01*
X115324000Y-93956380D01*
X115276380Y-94099238D01*
X115276380Y-94194476D01*
X115324000Y-94337333D01*
X115371619Y-94384952D01*
X116276380Y-95337333D02*
X116276380Y-94765904D01*
X116276380Y-95051619D02*
X115276380Y-95051619D01*
X115419238Y-94956380D01*
X115514476Y-94861142D01*
X115562095Y-94765904D01*
X115276380Y-95956380D02*
X115276380Y-96051619D01*
X115324000Y-96146857D01*
X115371619Y-96194476D01*
X115466857Y-96242095D01*
X115657333Y-96289714D01*
X115895428Y-96289714D01*
X116085904Y-96242095D01*
X116181142Y-96194476D01*
X116228761Y-96146857D01*
X116276380Y-96051619D01*
X116276380Y-95956380D01*
X116228761Y-95861142D01*
X116181142Y-95813523D01*
X116085904Y-95765904D01*
X115895428Y-95718285D01*
X115657333Y-95718285D01*
X115466857Y-95765904D01*
X115371619Y-95813523D01*
X115324000Y-95861142D01*
X115276380Y-95956380D01*
X115276380Y-97146857D02*
X115276380Y-96956380D01*
X115324000Y-96861142D01*
X115371619Y-96813523D01*
X115514476Y-96718285D01*
X115704952Y-96670666D01*
X116085904Y-96670666D01*
X116181142Y-96718285D01*
X116228761Y-96765904D01*
X116276380Y-96861142D01*
X116276380Y-97051619D01*
X116228761Y-97146857D01*
X116181142Y-97194476D01*
X116085904Y-97242095D01*
X115847809Y-97242095D01*
X115752571Y-97194476D01*
X115704952Y-97146857D01*
X115657333Y-97051619D01*
X115657333Y-96861142D01*
X115704952Y-96765904D01*
X115752571Y-96718285D01*
X115847809Y-96670666D01*
X113641047Y-94337142D02*
X113688666Y-94384761D01*
X113831523Y-94432380D01*
X113926761Y-94432380D01*
X114069619Y-94384761D01*
X114164857Y-94289523D01*
X114212476Y-94194285D01*
X114260095Y-94003809D01*
X114260095Y-93860952D01*
X114212476Y-93670476D01*
X114164857Y-93575238D01*
X114069619Y-93480000D01*
X113926761Y-93432380D01*
X113831523Y-93432380D01*
X113688666Y-93480000D01*
X113641047Y-93527619D01*
X112688666Y-94432380D02*
X113260095Y-94432380D01*
X112974380Y-94432380D02*
X112974380Y-93432380D01*
X113069619Y-93575238D01*
X113164857Y-93670476D01*
X113260095Y-93718095D01*
X112069619Y-93432380D02*
X111974380Y-93432380D01*
X111879142Y-93480000D01*
X111831523Y-93527619D01*
X111783904Y-93622857D01*
X111736285Y-93813333D01*
X111736285Y-94051428D01*
X111783904Y-94241904D01*
X111831523Y-94337142D01*
X111879142Y-94384761D01*
X111974380Y-94432380D01*
X112069619Y-94432380D01*
X112164857Y-94384761D01*
X112212476Y-94337142D01*
X112260095Y-94241904D01*
X112307714Y-94051428D01*
X112307714Y-93813333D01*
X112260095Y-93622857D01*
X112212476Y-93527619D01*
X112164857Y-93480000D01*
X112069619Y-93432380D01*
X111402952Y-93432380D02*
X110736285Y-93432380D01*
X111164857Y-94432380D01*
X98401047Y-153011142D02*
X98448666Y-153058761D01*
X98591523Y-153106380D01*
X98686761Y-153106380D01*
X98829619Y-153058761D01*
X98924857Y-152963523D01*
X98972476Y-152868285D01*
X99020095Y-152677809D01*
X99020095Y-152534952D01*
X98972476Y-152344476D01*
X98924857Y-152249238D01*
X98829619Y-152154000D01*
X98686761Y-152106380D01*
X98591523Y-152106380D01*
X98448666Y-152154000D01*
X98401047Y-152201619D01*
X97448666Y-153106380D02*
X98020095Y-153106380D01*
X97734380Y-153106380D02*
X97734380Y-152106380D01*
X97829619Y-152249238D01*
X97924857Y-152344476D01*
X98020095Y-152392095D01*
X96496285Y-153106380D02*
X97067714Y-153106380D01*
X96782000Y-153106380D02*
X96782000Y-152106380D01*
X96877238Y-152249238D01*
X96972476Y-152344476D01*
X97067714Y-152392095D01*
X95877238Y-152106380D02*
X95782000Y-152106380D01*
X95686761Y-152154000D01*
X95639142Y-152201619D01*
X95591523Y-152296857D01*
X95543904Y-152487333D01*
X95543904Y-152725428D01*
X95591523Y-152915904D01*
X95639142Y-153011142D01*
X95686761Y-153058761D01*
X95782000Y-153106380D01*
X95877238Y-153106380D01*
X95972476Y-153058761D01*
X96020095Y-153011142D01*
X96067714Y-152915904D01*
X96115333Y-152725428D01*
X96115333Y-152487333D01*
X96067714Y-152296857D01*
X96020095Y-152201619D01*
X95972476Y-152154000D01*
X95877238Y-152106380D01*
X83256285Y-93638380D02*
X83256285Y-92638380D01*
X83018190Y-92638380D01*
X82875333Y-92686000D01*
X82780095Y-92781238D01*
X82732476Y-92876476D01*
X82684857Y-93066952D01*
X82684857Y-93209809D01*
X82732476Y-93400285D01*
X82780095Y-93495523D01*
X82875333Y-93590761D01*
X83018190Y-93638380D01*
X83256285Y-93638380D01*
X81780095Y-92638380D02*
X82256285Y-92638380D01*
X82303904Y-93114571D01*
X82256285Y-93066952D01*
X82161047Y-93019333D01*
X81922952Y-93019333D01*
X81827714Y-93066952D01*
X81780095Y-93114571D01*
X81732476Y-93209809D01*
X81732476Y-93447904D01*
X81780095Y-93543142D01*
X81827714Y-93590761D01*
X81922952Y-93638380D01*
X82161047Y-93638380D01*
X82256285Y-93590761D01*
X82303904Y-93543142D01*
X81256285Y-93638380D02*
X81065809Y-93638380D01*
X80970571Y-93590761D01*
X80922952Y-93543142D01*
X80827714Y-93400285D01*
X80780095Y-93209809D01*
X80780095Y-92828857D01*
X80827714Y-92733619D01*
X80875333Y-92686000D01*
X80970571Y-92638380D01*
X81161047Y-92638380D01*
X81256285Y-92686000D01*
X81303904Y-92733619D01*
X81351523Y-92828857D01*
X81351523Y-93066952D01*
X81303904Y-93162190D01*
X81256285Y-93209809D01*
X81161047Y-93257428D01*
X80970571Y-93257428D01*
X80875333Y-93209809D01*
X80827714Y-93162190D01*
X80780095Y-93066952D01*
X88082285Y-132786380D02*
X88082285Y-131786380D01*
X87844190Y-131786380D01*
X87701333Y-131834000D01*
X87606095Y-131929238D01*
X87558476Y-132024476D01*
X87510857Y-132214952D01*
X87510857Y-132357809D01*
X87558476Y-132548285D01*
X87606095Y-132643523D01*
X87701333Y-132738761D01*
X87844190Y-132786380D01*
X88082285Y-132786380D01*
X86653714Y-131786380D02*
X86844190Y-131786380D01*
X86939428Y-131834000D01*
X86987047Y-131881619D01*
X87082285Y-132024476D01*
X87129904Y-132214952D01*
X87129904Y-132595904D01*
X87082285Y-132691142D01*
X87034666Y-132738761D01*
X86939428Y-132786380D01*
X86748952Y-132786380D01*
X86653714Y-132738761D01*
X86606095Y-132691142D01*
X86558476Y-132595904D01*
X86558476Y-132357809D01*
X86606095Y-132262571D01*
X86653714Y-132214952D01*
X86748952Y-132167333D01*
X86939428Y-132167333D01*
X87034666Y-132214952D01*
X87082285Y-132262571D01*
X87129904Y-132357809D01*
X85939428Y-131786380D02*
X85844190Y-131786380D01*
X85748952Y-131834000D01*
X85701333Y-131881619D01*
X85653714Y-131976857D01*
X85606095Y-132167333D01*
X85606095Y-132405428D01*
X85653714Y-132595904D01*
X85701333Y-132691142D01*
X85748952Y-132738761D01*
X85844190Y-132786380D01*
X85939428Y-132786380D01*
X86034666Y-132738761D01*
X86082285Y-132691142D01*
X86129904Y-132595904D01*
X86177523Y-132405428D01*
X86177523Y-132167333D01*
X86129904Y-131976857D01*
X86082285Y-131881619D01*
X86034666Y-131834000D01*
X85939428Y-131786380D01*
X87320285Y-142438380D02*
X87320285Y-141438380D01*
X87082190Y-141438380D01*
X86939333Y-141486000D01*
X86844095Y-141581238D01*
X86796476Y-141676476D01*
X86748857Y-141866952D01*
X86748857Y-142009809D01*
X86796476Y-142200285D01*
X86844095Y-142295523D01*
X86939333Y-142390761D01*
X87082190Y-142438380D01*
X87320285Y-142438380D01*
X85891714Y-141438380D02*
X86082190Y-141438380D01*
X86177428Y-141486000D01*
X86225047Y-141533619D01*
X86320285Y-141676476D01*
X86367904Y-141866952D01*
X86367904Y-142247904D01*
X86320285Y-142343142D01*
X86272666Y-142390761D01*
X86177428Y-142438380D01*
X85986952Y-142438380D01*
X85891714Y-142390761D01*
X85844095Y-142343142D01*
X85796476Y-142247904D01*
X85796476Y-142009809D01*
X85844095Y-141914571D01*
X85891714Y-141866952D01*
X85986952Y-141819333D01*
X86177428Y-141819333D01*
X86272666Y-141866952D01*
X86320285Y-141914571D01*
X86367904Y-142009809D01*
X84844095Y-142438380D02*
X85415523Y-142438380D01*
X85129809Y-142438380D02*
X85129809Y-141438380D01*
X85225047Y-141581238D01*
X85320285Y-141676476D01*
X85415523Y-141724095D01*
X80089619Y-143446571D02*
X80042000Y-143351333D01*
X79946761Y-143256095D01*
X79803904Y-143113238D01*
X79756285Y-143018000D01*
X79756285Y-142922761D01*
X79994380Y-142970380D02*
X79946761Y-142875142D01*
X79851523Y-142779904D01*
X79661047Y-142732285D01*
X79327714Y-142732285D01*
X79137238Y-142779904D01*
X79042000Y-142875142D01*
X78994380Y-142970380D01*
X78994380Y-143160857D01*
X79042000Y-143256095D01*
X79137238Y-143351333D01*
X79327714Y-143398952D01*
X79661047Y-143398952D01*
X79851523Y-143351333D01*
X79946761Y-143256095D01*
X79994380Y-143160857D01*
X79994380Y-142970380D01*
X79994380Y-144351333D02*
X79994380Y-143779904D01*
X79994380Y-144065619D02*
X78994380Y-144065619D01*
X79137238Y-143970380D01*
X79232476Y-143875142D01*
X79280095Y-143779904D01*
X79422952Y-144922761D02*
X79375333Y-144827523D01*
X79327714Y-144779904D01*
X79232476Y-144732285D01*
X79184857Y-144732285D01*
X79089619Y-144779904D01*
X79042000Y-144827523D01*
X78994380Y-144922761D01*
X78994380Y-145113238D01*
X79042000Y-145208476D01*
X79089619Y-145256095D01*
X79184857Y-145303714D01*
X79232476Y-145303714D01*
X79327714Y-145256095D01*
X79375333Y-145208476D01*
X79422952Y-145113238D01*
X79422952Y-144922761D01*
X79470571Y-144827523D01*
X79518190Y-144779904D01*
X79613428Y-144732285D01*
X79803904Y-144732285D01*
X79899142Y-144779904D01*
X79946761Y-144827523D01*
X79994380Y-144922761D01*
X79994380Y-145113238D01*
X79946761Y-145208476D01*
X79899142Y-145256095D01*
X79803904Y-145303714D01*
X79613428Y-145303714D01*
X79518190Y-145256095D01*
X79470571Y-145208476D01*
X79422952Y-145113238D01*
X78366857Y-90876380D02*
X78700190Y-90400190D01*
X78938285Y-90876380D02*
X78938285Y-89876380D01*
X78557333Y-89876380D01*
X78462095Y-89924000D01*
X78414476Y-89971619D01*
X78366857Y-90066857D01*
X78366857Y-90209714D01*
X78414476Y-90304952D01*
X78462095Y-90352571D01*
X78557333Y-90400190D01*
X78938285Y-90400190D01*
X77462095Y-89876380D02*
X77938285Y-89876380D01*
X77985904Y-90352571D01*
X77938285Y-90304952D01*
X77843047Y-90257333D01*
X77604952Y-90257333D01*
X77509714Y-90304952D01*
X77462095Y-90352571D01*
X77414476Y-90447809D01*
X77414476Y-90685904D01*
X77462095Y-90781142D01*
X77509714Y-90828761D01*
X77604952Y-90876380D01*
X77843047Y-90876380D01*
X77938285Y-90828761D01*
X77985904Y-90781142D01*
X76557333Y-89876380D02*
X76747809Y-89876380D01*
X76843047Y-89924000D01*
X76890666Y-89971619D01*
X76985904Y-90114476D01*
X77033523Y-90304952D01*
X77033523Y-90685904D01*
X76985904Y-90781142D01*
X76938285Y-90828761D01*
X76843047Y-90876380D01*
X76652571Y-90876380D01*
X76557333Y-90828761D01*
X76509714Y-90781142D01*
X76462095Y-90685904D01*
X76462095Y-90447809D01*
X76509714Y-90352571D01*
X76557333Y-90304952D01*
X76652571Y-90257333D01*
X76843047Y-90257333D01*
X76938285Y-90304952D01*
X76985904Y-90352571D01*
X77033523Y-90447809D01*
X84208857Y-87902380D02*
X84542190Y-87426190D01*
X84780285Y-87902380D02*
X84780285Y-86902380D01*
X84399333Y-86902380D01*
X84304095Y-86950000D01*
X84256476Y-86997619D01*
X84208857Y-87092857D01*
X84208857Y-87235714D01*
X84256476Y-87330952D01*
X84304095Y-87378571D01*
X84399333Y-87426190D01*
X84780285Y-87426190D01*
X83304095Y-86902380D02*
X83780285Y-86902380D01*
X83827904Y-87378571D01*
X83780285Y-87330952D01*
X83685047Y-87283333D01*
X83446952Y-87283333D01*
X83351714Y-87330952D01*
X83304095Y-87378571D01*
X83256476Y-87473809D01*
X83256476Y-87711904D01*
X83304095Y-87807142D01*
X83351714Y-87854761D01*
X83446952Y-87902380D01*
X83685047Y-87902380D01*
X83780285Y-87854761D01*
X83827904Y-87807142D01*
X82685047Y-87330952D02*
X82780285Y-87283333D01*
X82827904Y-87235714D01*
X82875523Y-87140476D01*
X82875523Y-87092857D01*
X82827904Y-86997619D01*
X82780285Y-86950000D01*
X82685047Y-86902380D01*
X82494571Y-86902380D01*
X82399333Y-86950000D01*
X82351714Y-86997619D01*
X82304095Y-87092857D01*
X82304095Y-87140476D01*
X82351714Y-87235714D01*
X82399333Y-87283333D01*
X82494571Y-87330952D01*
X82685047Y-87330952D01*
X82780285Y-87378571D01*
X82827904Y-87426190D01*
X82875523Y-87521428D01*
X82875523Y-87711904D01*
X82827904Y-87807142D01*
X82780285Y-87854761D01*
X82685047Y-87902380D01*
X82494571Y-87902380D01*
X82399333Y-87854761D01*
X82351714Y-87807142D01*
X82304095Y-87711904D01*
X82304095Y-87521428D01*
X82351714Y-87426190D01*
X82399333Y-87378571D01*
X82494571Y-87330952D01*
X102242857Y-129812380D02*
X102576190Y-129336190D01*
X102814285Y-129812380D02*
X102814285Y-128812380D01*
X102433333Y-128812380D01*
X102338095Y-128860000D01*
X102290476Y-128907619D01*
X102242857Y-129002857D01*
X102242857Y-129145714D01*
X102290476Y-129240952D01*
X102338095Y-129288571D01*
X102433333Y-129336190D01*
X102814285Y-129336190D01*
X101338095Y-128812380D02*
X101814285Y-128812380D01*
X101861904Y-129288571D01*
X101814285Y-129240952D01*
X101719047Y-129193333D01*
X101480952Y-129193333D01*
X101385714Y-129240952D01*
X101338095Y-129288571D01*
X101290476Y-129383809D01*
X101290476Y-129621904D01*
X101338095Y-129717142D01*
X101385714Y-129764761D01*
X101480952Y-129812380D01*
X101719047Y-129812380D01*
X101814285Y-129764761D01*
X101861904Y-129717142D01*
X100814285Y-129812380D02*
X100623809Y-129812380D01*
X100528571Y-129764761D01*
X100480952Y-129717142D01*
X100385714Y-129574285D01*
X100338095Y-129383809D01*
X100338095Y-129002857D01*
X100385714Y-128907619D01*
X100433333Y-128860000D01*
X100528571Y-128812380D01*
X100719047Y-128812380D01*
X100814285Y-128860000D01*
X100861904Y-128907619D01*
X100909523Y-129002857D01*
X100909523Y-129240952D01*
X100861904Y-129336190D01*
X100814285Y-129383809D01*
X100719047Y-129431428D01*
X100528571Y-129431428D01*
X100433333Y-129383809D01*
X100385714Y-129336190D01*
X100338095Y-129240952D01*
X100718857Y-132606380D02*
X101052190Y-132130190D01*
X101290285Y-132606380D02*
X101290285Y-131606380D01*
X100909333Y-131606380D01*
X100814095Y-131654000D01*
X100766476Y-131701619D01*
X100718857Y-131796857D01*
X100718857Y-131939714D01*
X100766476Y-132034952D01*
X100814095Y-132082571D01*
X100909333Y-132130190D01*
X101290285Y-132130190D01*
X99861714Y-131606380D02*
X100052190Y-131606380D01*
X100147428Y-131654000D01*
X100195047Y-131701619D01*
X100290285Y-131844476D01*
X100337904Y-132034952D01*
X100337904Y-132415904D01*
X100290285Y-132511142D01*
X100242666Y-132558761D01*
X100147428Y-132606380D01*
X99956952Y-132606380D01*
X99861714Y-132558761D01*
X99814095Y-132511142D01*
X99766476Y-132415904D01*
X99766476Y-132177809D01*
X99814095Y-132082571D01*
X99861714Y-132034952D01*
X99956952Y-131987333D01*
X100147428Y-131987333D01*
X100242666Y-132034952D01*
X100290285Y-132082571D01*
X100337904Y-132177809D01*
X99147428Y-131606380D02*
X99052190Y-131606380D01*
X98956952Y-131654000D01*
X98909333Y-131701619D01*
X98861714Y-131796857D01*
X98814095Y-131987333D01*
X98814095Y-132225428D01*
X98861714Y-132415904D01*
X98909333Y-132511142D01*
X98956952Y-132558761D01*
X99052190Y-132606380D01*
X99147428Y-132606380D01*
X99242666Y-132558761D01*
X99290285Y-132511142D01*
X99337904Y-132415904D01*
X99385523Y-132225428D01*
X99385523Y-131987333D01*
X99337904Y-131796857D01*
X99290285Y-131701619D01*
X99242666Y-131654000D01*
X99147428Y-131606380D01*
X85986857Y-146428380D02*
X86320190Y-145952190D01*
X86558285Y-146428380D02*
X86558285Y-145428380D01*
X86177333Y-145428380D01*
X86082095Y-145476000D01*
X86034476Y-145523619D01*
X85986857Y-145618857D01*
X85986857Y-145761714D01*
X86034476Y-145856952D01*
X86082095Y-145904571D01*
X86177333Y-145952190D01*
X86558285Y-145952190D01*
X85129714Y-145428380D02*
X85320190Y-145428380D01*
X85415428Y-145476000D01*
X85463047Y-145523619D01*
X85558285Y-145666476D01*
X85605904Y-145856952D01*
X85605904Y-146237904D01*
X85558285Y-146333142D01*
X85510666Y-146380761D01*
X85415428Y-146428380D01*
X85224952Y-146428380D01*
X85129714Y-146380761D01*
X85082095Y-146333142D01*
X85034476Y-146237904D01*
X85034476Y-145999809D01*
X85082095Y-145904571D01*
X85129714Y-145856952D01*
X85224952Y-145809333D01*
X85415428Y-145809333D01*
X85510666Y-145856952D01*
X85558285Y-145904571D01*
X85605904Y-145999809D01*
X84082095Y-146428380D02*
X84653523Y-146428380D01*
X84367809Y-146428380D02*
X84367809Y-145428380D01*
X84463047Y-145571238D01*
X84558285Y-145666476D01*
X84653523Y-145714095D01*
X79954380Y-140073142D02*
X79478190Y-139739809D01*
X79954380Y-139501714D02*
X78954380Y-139501714D01*
X78954380Y-139882666D01*
X79002000Y-139977904D01*
X79049619Y-140025523D01*
X79144857Y-140073142D01*
X79287714Y-140073142D01*
X79382952Y-140025523D01*
X79430571Y-139977904D01*
X79478190Y-139882666D01*
X79478190Y-139501714D01*
X78954380Y-140930285D02*
X78954380Y-140739809D01*
X79002000Y-140644571D01*
X79049619Y-140596952D01*
X79192476Y-140501714D01*
X79382952Y-140454095D01*
X79763904Y-140454095D01*
X79859142Y-140501714D01*
X79906761Y-140549333D01*
X79954380Y-140644571D01*
X79954380Y-140835047D01*
X79906761Y-140930285D01*
X79859142Y-140977904D01*
X79763904Y-141025523D01*
X79525809Y-141025523D01*
X79430571Y-140977904D01*
X79382952Y-140930285D01*
X79335333Y-140835047D01*
X79335333Y-140644571D01*
X79382952Y-140549333D01*
X79430571Y-140501714D01*
X79525809Y-140454095D01*
X78954380Y-141358857D02*
X78954380Y-141977904D01*
X79335333Y-141644571D01*
X79335333Y-141787428D01*
X79382952Y-141882666D01*
X79430571Y-141930285D01*
X79525809Y-141977904D01*
X79763904Y-141977904D01*
X79859142Y-141930285D01*
X79906761Y-141882666D01*
X79954380Y-141787428D01*
X79954380Y-141501714D01*
X79906761Y-141406476D01*
X79859142Y-141358857D01*
X98774095Y-149566380D02*
X98774095Y-150375904D01*
X98726476Y-150471142D01*
X98678857Y-150518761D01*
X98583619Y-150566380D01*
X98393142Y-150566380D01*
X98297904Y-150518761D01*
X98250285Y-150471142D01*
X98202666Y-150375904D01*
X98202666Y-149566380D01*
X97202666Y-150566380D02*
X97774095Y-150566380D01*
X97488380Y-150566380D02*
X97488380Y-149566380D01*
X97583619Y-149709238D01*
X97678857Y-149804476D01*
X97774095Y-149852095D01*
X96297904Y-149566380D02*
X96774095Y-149566380D01*
X96821714Y-150042571D01*
X96774095Y-149994952D01*
X96678857Y-149947333D01*
X96440761Y-149947333D01*
X96345523Y-149994952D01*
X96297904Y-150042571D01*
X96250285Y-150137809D01*
X96250285Y-150375904D01*
X96297904Y-150471142D01*
X96345523Y-150518761D01*
X96440761Y-150566380D01*
X96678857Y-150566380D01*
X96774095Y-150518761D01*
X96821714Y-150471142D01*
X108815047Y-97869142D02*
X108862666Y-97916761D01*
X109005523Y-97964380D01*
X109100761Y-97964380D01*
X109243619Y-97916761D01*
X109338857Y-97821523D01*
X109386476Y-97726285D01*
X109434095Y-97535809D01*
X109434095Y-97392952D01*
X109386476Y-97202476D01*
X109338857Y-97107238D01*
X109243619Y-97012000D01*
X109100761Y-96964380D01*
X109005523Y-96964380D01*
X108862666Y-97012000D01*
X108815047Y-97059619D01*
X107862666Y-97964380D02*
X108434095Y-97964380D01*
X108148380Y-97964380D02*
X108148380Y-96964380D01*
X108243619Y-97107238D01*
X108338857Y-97202476D01*
X108434095Y-97250095D01*
X106910285Y-97964380D02*
X107481714Y-97964380D01*
X107196000Y-97964380D02*
X107196000Y-96964380D01*
X107291238Y-97107238D01*
X107386476Y-97202476D01*
X107481714Y-97250095D01*
X105957904Y-97964380D02*
X106529333Y-97964380D01*
X106243619Y-97964380D02*
X106243619Y-96964380D01*
X106338857Y-97107238D01*
X106434095Y-97202476D01*
X106529333Y-97250095D01*
X113641047Y-114911142D02*
X113688666Y-114958761D01*
X113831523Y-115006380D01*
X113926761Y-115006380D01*
X114069619Y-114958761D01*
X114164857Y-114863523D01*
X114212476Y-114768285D01*
X114260095Y-114577809D01*
X114260095Y-114434952D01*
X114212476Y-114244476D01*
X114164857Y-114149238D01*
X114069619Y-114054000D01*
X113926761Y-114006380D01*
X113831523Y-114006380D01*
X113688666Y-114054000D01*
X113641047Y-114101619D01*
X112688666Y-115006380D02*
X113260095Y-115006380D01*
X112974380Y-115006380D02*
X112974380Y-114006380D01*
X113069619Y-114149238D01*
X113164857Y-114244476D01*
X113260095Y-114292095D01*
X111736285Y-115006380D02*
X112307714Y-115006380D01*
X112022000Y-115006380D02*
X112022000Y-114006380D01*
X112117238Y-114149238D01*
X112212476Y-114244476D01*
X112307714Y-114292095D01*
X111355333Y-114101619D02*
X111307714Y-114054000D01*
X111212476Y-114006380D01*
X110974380Y-114006380D01*
X110879142Y-114054000D01*
X110831523Y-114101619D01*
X110783904Y-114196857D01*
X110783904Y-114292095D01*
X110831523Y-114434952D01*
X111402952Y-115006380D01*
X110783904Y-115006380D01*
X61047047Y-104751142D02*
X61094666Y-104798761D01*
X61237523Y-104846380D01*
X61332761Y-104846380D01*
X61475619Y-104798761D01*
X61570857Y-104703523D01*
X61618476Y-104608285D01*
X61666095Y-104417809D01*
X61666095Y-104274952D01*
X61618476Y-104084476D01*
X61570857Y-103989238D01*
X61475619Y-103894000D01*
X61332761Y-103846380D01*
X61237523Y-103846380D01*
X61094666Y-103894000D01*
X61047047Y-103941619D01*
X60094666Y-104846380D02*
X60666095Y-104846380D01*
X60380380Y-104846380D02*
X60380380Y-103846380D01*
X60475619Y-103989238D01*
X60570857Y-104084476D01*
X60666095Y-104132095D01*
X59142285Y-104846380D02*
X59713714Y-104846380D01*
X59428000Y-104846380D02*
X59428000Y-103846380D01*
X59523238Y-103989238D01*
X59618476Y-104084476D01*
X59713714Y-104132095D01*
X58808952Y-103846380D02*
X58189904Y-103846380D01*
X58523238Y-104227333D01*
X58380380Y-104227333D01*
X58285142Y-104274952D01*
X58237523Y-104322571D01*
X58189904Y-104417809D01*
X58189904Y-104655904D01*
X58237523Y-104751142D01*
X58285142Y-104798761D01*
X58380380Y-104846380D01*
X58666095Y-104846380D01*
X58761333Y-104798761D01*
X58808952Y-104751142D01*
X131437047Y-116181142D02*
X131484666Y-116228761D01*
X131627523Y-116276380D01*
X131722761Y-116276380D01*
X131865619Y-116228761D01*
X131960857Y-116133523D01*
X132008476Y-116038285D01*
X132056095Y-115847809D01*
X132056095Y-115704952D01*
X132008476Y-115514476D01*
X131960857Y-115419238D01*
X131865619Y-115324000D01*
X131722761Y-115276380D01*
X131627523Y-115276380D01*
X131484666Y-115324000D01*
X131437047Y-115371619D01*
X130484666Y-116276380D02*
X131056095Y-116276380D01*
X130770380Y-116276380D02*
X130770380Y-115276380D01*
X130865619Y-115419238D01*
X130960857Y-115514476D01*
X131056095Y-115562095D01*
X129532285Y-116276380D02*
X130103714Y-116276380D01*
X129818000Y-116276380D02*
X129818000Y-115276380D01*
X129913238Y-115419238D01*
X130008476Y-115514476D01*
X130103714Y-115562095D01*
X128675142Y-115609714D02*
X128675142Y-116276380D01*
X128913238Y-115228761D02*
X129151333Y-115943047D01*
X128532285Y-115943047D01*
X132437142Y-93622952D02*
X132484761Y-93575333D01*
X132532380Y-93432476D01*
X132532380Y-93337238D01*
X132484761Y-93194380D01*
X132389523Y-93099142D01*
X132294285Y-93051523D01*
X132103809Y-93003904D01*
X131960952Y-93003904D01*
X131770476Y-93051523D01*
X131675238Y-93099142D01*
X131580000Y-93194380D01*
X131532380Y-93337238D01*
X131532380Y-93432476D01*
X131580000Y-93575333D01*
X131627619Y-93622952D01*
X132532380Y-94575333D02*
X132532380Y-94003904D01*
X132532380Y-94289619D02*
X131532380Y-94289619D01*
X131675238Y-94194380D01*
X131770476Y-94099142D01*
X131818095Y-94003904D01*
X132532380Y-95527714D02*
X132532380Y-94956285D01*
X132532380Y-95242000D02*
X131532380Y-95242000D01*
X131675238Y-95146761D01*
X131770476Y-95051523D01*
X131818095Y-94956285D01*
X131532380Y-96432476D02*
X131532380Y-95956285D01*
X132008571Y-95908666D01*
X131960952Y-95956285D01*
X131913333Y-96051523D01*
X131913333Y-96289619D01*
X131960952Y-96384857D01*
X132008571Y-96432476D01*
X132103809Y-96480095D01*
X132341904Y-96480095D01*
X132437142Y-96432476D01*
X132484761Y-96384857D01*
X132532380Y-96289619D01*
X132532380Y-96051523D01*
X132484761Y-95956285D01*
X132437142Y-95908666D01*
X107322857Y-92908380D02*
X107656190Y-92432190D01*
X107894285Y-92908380D02*
X107894285Y-91908380D01*
X107513333Y-91908380D01*
X107418095Y-91956000D01*
X107370476Y-92003619D01*
X107322857Y-92098857D01*
X107322857Y-92241714D01*
X107370476Y-92336952D01*
X107418095Y-92384571D01*
X107513333Y-92432190D01*
X107894285Y-92432190D01*
X106465714Y-91908380D02*
X106656190Y-91908380D01*
X106751428Y-91956000D01*
X106799047Y-92003619D01*
X106894285Y-92146476D01*
X106941904Y-92336952D01*
X106941904Y-92717904D01*
X106894285Y-92813142D01*
X106846666Y-92860761D01*
X106751428Y-92908380D01*
X106560952Y-92908380D01*
X106465714Y-92860761D01*
X106418095Y-92813142D01*
X106370476Y-92717904D01*
X106370476Y-92479809D01*
X106418095Y-92384571D01*
X106465714Y-92336952D01*
X106560952Y-92289333D01*
X106751428Y-92289333D01*
X106846666Y-92336952D01*
X106894285Y-92384571D01*
X106941904Y-92479809D01*
X105989523Y-92003619D02*
X105941904Y-91956000D01*
X105846666Y-91908380D01*
X105608571Y-91908380D01*
X105513333Y-91956000D01*
X105465714Y-92003619D01*
X105418095Y-92098857D01*
X105418095Y-92194095D01*
X105465714Y-92336952D01*
X106037142Y-92908380D01*
X105418095Y-92908380D01*
X113926857Y-110688380D02*
X114260190Y-110212190D01*
X114498285Y-110688380D02*
X114498285Y-109688380D01*
X114117333Y-109688380D01*
X114022095Y-109736000D01*
X113974476Y-109783619D01*
X113926857Y-109878857D01*
X113926857Y-110021714D01*
X113974476Y-110116952D01*
X114022095Y-110164571D01*
X114117333Y-110212190D01*
X114498285Y-110212190D01*
X113069714Y-109688380D02*
X113260190Y-109688380D01*
X113355428Y-109736000D01*
X113403047Y-109783619D01*
X113498285Y-109926476D01*
X113545904Y-110116952D01*
X113545904Y-110497904D01*
X113498285Y-110593142D01*
X113450666Y-110640761D01*
X113355428Y-110688380D01*
X113164952Y-110688380D01*
X113069714Y-110640761D01*
X113022095Y-110593142D01*
X112974476Y-110497904D01*
X112974476Y-110259809D01*
X113022095Y-110164571D01*
X113069714Y-110116952D01*
X113164952Y-110069333D01*
X113355428Y-110069333D01*
X113450666Y-110116952D01*
X113498285Y-110164571D01*
X113545904Y-110259809D01*
X112117333Y-110021714D02*
X112117333Y-110688380D01*
X112355428Y-109640761D02*
X112593523Y-110355047D01*
X111974476Y-110355047D01*
X60586857Y-110180380D02*
X60920190Y-109704190D01*
X61158285Y-110180380D02*
X61158285Y-109180380D01*
X60777333Y-109180380D01*
X60682095Y-109228000D01*
X60634476Y-109275619D01*
X60586857Y-109370857D01*
X60586857Y-109513714D01*
X60634476Y-109608952D01*
X60682095Y-109656571D01*
X60777333Y-109704190D01*
X61158285Y-109704190D01*
X59729714Y-109180380D02*
X59920190Y-109180380D01*
X60015428Y-109228000D01*
X60063047Y-109275619D01*
X60158285Y-109418476D01*
X60205904Y-109608952D01*
X60205904Y-109989904D01*
X60158285Y-110085142D01*
X60110666Y-110132761D01*
X60015428Y-110180380D01*
X59824952Y-110180380D01*
X59729714Y-110132761D01*
X59682095Y-110085142D01*
X59634476Y-109989904D01*
X59634476Y-109751809D01*
X59682095Y-109656571D01*
X59729714Y-109608952D01*
X59824952Y-109561333D01*
X60015428Y-109561333D01*
X60110666Y-109608952D01*
X60158285Y-109656571D01*
X60205904Y-109751809D01*
X58729714Y-109180380D02*
X59205904Y-109180380D01*
X59253523Y-109656571D01*
X59205904Y-109608952D01*
X59110666Y-109561333D01*
X58872571Y-109561333D01*
X58777333Y-109608952D01*
X58729714Y-109656571D01*
X58682095Y-109751809D01*
X58682095Y-109989904D01*
X58729714Y-110085142D01*
X58777333Y-110132761D01*
X58872571Y-110180380D01*
X59110666Y-110180380D01*
X59205904Y-110132761D01*
X59253523Y-110085142D01*
X130967856Y-111046381D02*
X131301189Y-110570191D01*
X131539284Y-111046381D02*
X131539284Y-110046381D01*
X131158332Y-110046381D01*
X131063094Y-110094001D01*
X131015475Y-110141620D01*
X130967856Y-110236858D01*
X130967856Y-110379715D01*
X131015475Y-110474953D01*
X131063094Y-110522572D01*
X131158332Y-110570191D01*
X131539284Y-110570191D01*
X130110713Y-110046381D02*
X130301189Y-110046381D01*
X130396427Y-110094001D01*
X130444046Y-110141620D01*
X130539284Y-110284477D01*
X130586903Y-110474953D01*
X130586903Y-110855905D01*
X130539284Y-110951143D01*
X130491665Y-110998762D01*
X130396427Y-111046381D01*
X130205951Y-111046381D01*
X130110713Y-110998762D01*
X130063094Y-110951143D01*
X130015475Y-110855905D01*
X130015475Y-110617810D01*
X130063094Y-110522572D01*
X130110713Y-110474953D01*
X130205951Y-110427334D01*
X130396427Y-110427334D01*
X130491665Y-110474953D01*
X130539284Y-110522572D01*
X130586903Y-110617810D01*
X129158332Y-110046381D02*
X129348808Y-110046381D01*
X129444046Y-110094001D01*
X129491665Y-110141620D01*
X129586903Y-110284477D01*
X129634522Y-110474953D01*
X129634522Y-110855905D01*
X129586903Y-110951143D01*
X129539284Y-110998762D01*
X129444046Y-111046381D01*
X129253570Y-111046381D01*
X129158332Y-110998762D01*
X129110713Y-110951143D01*
X129063094Y-110855905D01*
X129063094Y-110617810D01*
X129110713Y-110522572D01*
X129158332Y-110474953D01*
X129253570Y-110427334D01*
X129444046Y-110427334D01*
X129539284Y-110474953D01*
X129586903Y-110522572D01*
X129634522Y-110617810D01*
X125748380Y-94099142D02*
X125272190Y-93765809D01*
X125748380Y-93527714D02*
X124748380Y-93527714D01*
X124748380Y-93908666D01*
X124796000Y-94003904D01*
X124843619Y-94051523D01*
X124938857Y-94099142D01*
X125081714Y-94099142D01*
X125176952Y-94051523D01*
X125224571Y-94003904D01*
X125272190Y-93908666D01*
X125272190Y-93527714D01*
X124748380Y-94956285D02*
X124748380Y-94765809D01*
X124796000Y-94670571D01*
X124843619Y-94622952D01*
X124986476Y-94527714D01*
X125176952Y-94480095D01*
X125557904Y-94480095D01*
X125653142Y-94527714D01*
X125700761Y-94575333D01*
X125748380Y-94670571D01*
X125748380Y-94861047D01*
X125700761Y-94956285D01*
X125653142Y-95003904D01*
X125557904Y-95051523D01*
X125319809Y-95051523D01*
X125224571Y-95003904D01*
X125176952Y-94956285D01*
X125129333Y-94861047D01*
X125129333Y-94670571D01*
X125176952Y-94575333D01*
X125224571Y-94527714D01*
X125319809Y-94480095D01*
X124748380Y-95384857D02*
X124748380Y-96051523D01*
X125748380Y-95622952D01*
M02*
