M48
; DRILL file {KiCad (5.1.10)-1} date 12/23/21 23:11:13
; FORMAT={-:-/ absolute / metric / decimal}
; #@! TF.CreationDate,2021-12-23T23:11:13-06:00
; #@! TF.GenerationSoftware,Kicad,Pcbnew,(5.1.10)-1
; #@! TF.FileFunction,Plated,1,4,PTH
FMAT,2
METRIC
T1C0.300
T2C0.400
T3C0.500
T4C0.762
T5C0.800
T6C1.000
T7C1.020
T8C1.100
T9C3.048
%
G90
G05
T1
X91.926Y-86.776
X91.926Y-87.976
X93.026Y-86.776
X93.026Y-87.976
X94.326Y-86.776
X94.326Y-87.976
X95.526Y-86.776
X95.526Y-87.976
T2
X41.656Y-171.958
X44.704Y-171.704
X47.244Y-121.412
X49.276Y-96.266
X49.276Y-97.282
X49.276Y-98.298
X49.276Y-99.314
X49.276Y-100.33
X49.276Y-121.412
X50.292Y-96.774
X50.292Y-97.79
X50.292Y-98.806
X50.292Y-99.822
X51.308Y-96.266
X51.308Y-97.282
X51.308Y-98.298
X51.308Y-99.314
X51.308Y-100.33
X51.816Y-158.242
X54.102Y-118.364
X56.642Y-95.25
X57.912Y-106.426
X58.928Y-95.25
X61.214Y-95.25
X61.722Y-120.142
X62.992Y-120.142
X63.5Y-95.25
X65.786Y-95.25
X83.82Y-93.218
X84.328Y-150.876
X86.614Y-95.25
X88.392Y-134.112
X88.9Y-79.756
X89.916Y-91.694
X90.825Y-130.78
X92.553Y-130.048
X93.472Y-131.318
X94.488Y-80.01
X94.742Y-102.87
X95.504Y-78.994
X95.504Y-80.01
X95.504Y-91.186
X96.774Y-130.81
X98.806Y-131.826
X100.076Y-92.456
X101.6Y-117.348
X101.854Y-97.028
X101.854Y-174.244
X103.124Y-165.1
X103.632Y-104.648
X104.648Y-91.948
X104.648Y-93.218
X105.156Y-174.244
X105.41Y-104.648
X106.172Y-122.682
X106.934Y-140.462
X108.966Y-174.244
X113.284Y-140.97
X113.284Y-174.244
X114.3Y-102.616
X114.3Y-103.632
X116.84Y-174.244
X119.126Y-140.716
X119.634Y-135.382
X123.19Y-174.244
X123.444Y-145.542
X124.206Y-143.764
X124.206Y-144.78
X124.46Y-98.298
X124.714Y-103.886
X124.714Y-162.56
X125.222Y-136.398
X128.524Y-162.052
X128.778Y-92.964
X128.778Y-174.244
X131.064Y-161.544
X135.128Y-132.588
X135.382Y-133.604
X138.938Y-144.526
X140.716Y-137.16
X143.002Y-131.826
X150.622Y-73.914
X150.622Y-77.978
X150.622Y-82.296
X150.622Y-86.614
X150.622Y-90.932
X150.622Y-95.25
X150.622Y-99.314
X150.622Y-103.378
X150.622Y-107.442
X150.622Y-111.76
X150.622Y-115.824
X150.622Y-120.142
X150.622Y-124.206
X150.622Y-128.016
T3
X32.258Y-53.34
X32.258Y-129.286
X32.258Y-133.604
X32.258Y-137.668
X32.258Y-141.732
X32.258Y-145.796
X32.258Y-149.86
X32.258Y-154.178
X32.258Y-158.496
X33.782Y-52.324
X34.544Y-133.35
X35.052Y-53.34
X36.068Y-67.564
X36.068Y-72.644
X36.576Y-52.324
X36.83Y-66.548
X36.83Y-71.628
X37.846Y-67.564
X37.846Y-72.644
X38.608Y-66.548
X38.608Y-71.628
X40.386Y-40.64
X40.386Y-120.904
X42.672Y-121.666
X44.45Y-150.114
X44.704Y-120.904
X44.704Y-134.366
X45.212Y-40.64
X45.212Y-147.828
X45.212Y-151.892
X47.498Y-173.736
X48.006Y-89.408
X48.006Y-155.194
X48.26Y-131.826
X48.26Y-170.688
X48.514Y-83.058
X48.514Y-147.828
X48.768Y-75.184
X48.768Y-90.424
X49.022Y-153.416
X49.276Y-82.042
X49.53Y-89.408
X50.038Y-83.058
X50.292Y-75.184
X50.292Y-90.424
X50.546Y-40.64
X50.8Y-82.042
X51.054Y-89.408
X51.054Y-113.792
X51.562Y-75.946
X51.562Y-83.058
X51.562Y-121.666
X51.562Y-153.162
X51.816Y-90.424
X52.324Y-82.042
X52.324Y-111.252
X52.578Y-89.408
X52.832Y-121.666
X53.086Y-83.058
X53.34Y-90.424
X53.848Y-82.042
X54.102Y-89.408
X54.102Y-121.666
X54.61Y-83.058
X54.864Y-40.64
X54.864Y-90.424
X55.372Y-76.454
X55.372Y-82.042
X55.372Y-121.666
X55.626Y-89.408
X55.88Y-112.522
X56.134Y-83.058
X56.388Y-90.424
X56.642Y-76.454
X56.642Y-121.666
X56.896Y-82.042
X57.15Y-89.408
X57.15Y-104.14
X57.15Y-112.522
X57.658Y-83.058
X57.658Y-116.84
X57.912Y-76.454
X57.912Y-90.424
X58.42Y-82.042
X58.42Y-104.14
X58.674Y-89.408
X59.182Y-40.64
X59.182Y-76.454
X59.182Y-83.058
X59.436Y-90.424
X59.436Y-97.536
X59.436Y-99.06
X59.69Y-104.14
X59.944Y-82.042
X59.944Y-133.858
X59.944Y-136.906
X60.198Y-89.408
X60.452Y-76.454
X60.706Y-54.61
X60.706Y-55.88
X60.706Y-57.15
X60.706Y-58.42
X60.706Y-59.69
X60.706Y-60.96
X60.706Y-62.23
X60.706Y-63.5
X60.706Y-64.77
X60.706Y-66.04
X60.706Y-67.31
X60.706Y-68.58
X60.706Y-69.85
X60.706Y-71.12
X60.706Y-83.058
X60.96Y-90.424
X60.96Y-97.536
X60.96Y-99.06
X60.96Y-104.14
X61.468Y-82.042
X61.722Y-49.022
X61.722Y-76.454
X61.722Y-89.408
X62.23Y-83.058
X62.484Y-90.424
X62.484Y-97.536
X62.484Y-99.06
X62.992Y-82.042
X63.246Y-40.64
X63.246Y-89.408
X63.5Y-155.448
X63.5Y-157.48
X63.5Y-159.512
X63.5Y-161.544
X63.5Y-163.576
X63.5Y-165.608
X63.5Y-167.386
X63.5Y-169.164
X63.754Y-83.058
X64.008Y-90.424
X64.008Y-97.536
X64.008Y-99.06
X64.516Y-46.228
X64.516Y-82.042
X64.516Y-111.252
X64.77Y-51.562
X64.77Y-89.408
X65.278Y-104.14
X65.532Y-90.424
X65.532Y-97.536
X65.532Y-99.06
X66.548Y-104.14
X66.802Y-55.88
X66.802Y-59.69
X67.056Y-97.536
X67.056Y-99.06
X67.056Y-133.858
X67.056Y-136.906
X67.31Y-40.64
X68.072Y-111.252
X68.326Y-63.5
X68.326Y-64.77
X68.326Y-66.04
X68.326Y-67.31
X68.326Y-68.58
X68.326Y-69.85
X68.326Y-71.12
X68.326Y-120.142
X68.58Y-45.72
X68.58Y-48.768
X69.342Y-111.252
X69.85Y-158.242
X69.85Y-160.274
X69.85Y-162.306
X69.85Y-164.084
X69.85Y-165.862
X69.85Y-167.64
X69.85Y-169.418
X70.358Y-104.14
X70.612Y-111.252
X70.612Y-138.938
X71.374Y-40.64
X72.644Y-75.184
X72.898Y-144.78
X72.898Y-148.844
X73.914Y-120.396
X74.422Y-70.612
X74.422Y-72.898
X74.422Y-75.438
X74.676Y-87.63
X74.727Y-90.226
X74.93Y-45.72
X74.93Y-48.768
X75.184Y-120.396
X75.438Y-40.64
X75.438Y-71.628
X75.438Y-74.168
X76.2Y-87.63
X76.251Y-90.226
X76.454Y-70.612
X76.454Y-72.898
X76.454Y-75.438
X76.454Y-120.396
X76.708Y-103.124
X76.708Y-105.664
X76.708Y-108.204
X76.708Y-110.744
X76.708Y-113.284
X76.708Y-115.824
X76.708Y-118.11
X76.708Y-144.78
X76.708Y-148.844
X77.216Y-136.652
X77.216Y-137.922
X77.47Y-71.628
X77.47Y-74.168
X77.724Y-87.63
X77.724Y-120.396
X77.851Y-90.226
X77.978Y-104.394
X77.978Y-106.934
X77.978Y-109.474
X77.978Y-112.014
X77.978Y-114.554
X77.978Y-117.094
X78.486Y-70.612
X78.486Y-72.898
X78.486Y-75.438
X78.74Y-136.652
X78.994Y-120.396
X79.248Y-103.124
X79.248Y-105.664
X79.248Y-108.204
X79.248Y-110.744
X79.248Y-113.284
X79.248Y-115.824
X79.248Y-118.11
X79.502Y-71.628
X79.502Y-74.168
X79.756Y-40.64
X80.264Y-45.72
X80.264Y-48.768
X80.264Y-120.396
X80.518Y-70.612
X80.518Y-72.898
X80.518Y-75.438
X81.026Y-134.112
X81.534Y-120.396
X81.544Y-87.747
X82.804Y-120.396
X82.804Y-141.986
X83.566Y-75.946
X83.82Y-40.64
X85.09Y-78.994
X85.09Y-82.55
X85.09Y-134.112
X85.598Y-96.012
X85.852Y-45.72
X85.852Y-48.768
X86.106Y-87.884
X86.868Y-102.108
X86.868Y-104.14
X86.868Y-106.172
X86.868Y-108.204
X86.868Y-110.49
X86.868Y-113.03
X86.868Y-115.57
X87.884Y-95.758
X88.138Y-40.64
X88.138Y-103.124
X88.138Y-105.156
X88.138Y-107.188
X88.138Y-109.22
X88.138Y-111.76
X88.138Y-114.3
X88.9Y-94.996
X89.154Y-83.82
X89.408Y-104.14
X89.408Y-106.172
X89.408Y-108.204
X89.408Y-110.49
X89.408Y-113.03
X89.916Y-137.922
X89.916Y-139.7
X89.916Y-141.478
X89.916Y-143.256
X89.916Y-145.034
X91.186Y-70.612
X91.186Y-72.898
X91.694Y-45.72
X91.694Y-48.768
X91.948Y-80.264
X91.948Y-137.922
X91.948Y-139.7
X91.948Y-141.478
X91.948Y-143.256
X91.948Y-145.034
X92.202Y-40.64
X92.202Y-71.628
X92.456Y-93.218
X93.218Y-70.612
X93.218Y-72.898
X93.218Y-75.438
X93.218Y-83.312
X93.726Y-91.948
X94.234Y-71.628
X94.234Y-74.168
X94.234Y-82.296
X94.234Y-137.922
X94.234Y-139.7
X94.234Y-141.478
X94.234Y-143.256
X94.234Y-145.034
X94.234Y-154.94
X94.234Y-157.226
X94.234Y-159.258
X94.234Y-161.544
X94.234Y-163.576
X94.234Y-165.608
X94.234Y-167.894
X94.234Y-169.926
X94.234Y-171.958
X94.488Y-132.588
X95.25Y-70.612
X95.25Y-72.898
X95.25Y-75.438
X95.504Y-93.98
X95.504Y-119.38
X96.266Y-40.64
X96.266Y-71.628
X96.266Y-137.922
X96.266Y-139.7
X96.266Y-141.478
X96.266Y-143.256
X96.266Y-145.034
X96.52Y-74.168
X96.52Y-120.142
X96.774Y-80.772
X97.282Y-70.612
X97.282Y-72.898
X97.282Y-75.438
X97.79Y-133.096
X98.552Y-45.72
X98.552Y-48.768
X98.552Y-137.922
X98.552Y-139.7
X98.552Y-141.478
X98.552Y-143.256
X98.552Y-145.034
X98.806Y-86.36
X98.806Y-87.63
X98.806Y-88.9
X98.979Y-135.778
X99.822Y-131.064
X99.822Y-149.098
X99.822Y-151.384
X99.822Y-153.67
X99.822Y-155.956
X99.822Y-158.242
X99.822Y-160.528
X99.822Y-162.814
X99.822Y-165.1
X99.822Y-167.386
X99.822Y-169.672
X100.076Y-86.36
X100.076Y-87.63
X100.076Y-88.9
X100.33Y-40.64
X100.33Y-78.994
X100.33Y-80.264
X100.33Y-81.534
X100.33Y-82.804
X100.33Y-98.806
X100.584Y-76.708
X100.838Y-108.966
X101.346Y-86.36
X101.346Y-87.63
X101.346Y-88.9
X101.6Y-141.224
X101.854Y-78.994
X101.854Y-80.264
X101.854Y-81.534
X101.854Y-82.804
X102.108Y-68.834
X102.108Y-136.906
X102.616Y-86.36
X102.616Y-87.63
X102.616Y-88.9
X103.378Y-78.994
X103.378Y-80.264
X103.378Y-81.534
X103.378Y-82.804
X103.378Y-115.57
X103.378Y-149.352
X103.886Y-86.36
X103.886Y-87.63
X103.886Y-88.9
X104.14Y-114.554
X104.648Y-40.64
X104.648Y-151.384
X104.902Y-99.314
X104.902Y-115.57
X105.156Y-135.382
X105.41Y-45.72
X105.41Y-48.768
X106.172Y-149.352
X106.426Y-112.268
X106.426Y-144.526
X107.188Y-86.106
X107.188Y-87.884
X107.696Y-97.282
X107.95Y-135.382
X108.458Y-86.106
X108.458Y-87.884
X108.712Y-75.184
X108.966Y-40.64
X108.966Y-151.384
X109.22Y-71.374
X109.22Y-72.644
X109.22Y-73.914
X109.22Y-120.142
X109.474Y-113.284
X109.474Y-136.144
X109.728Y-86.106
X109.728Y-87.884
X109.982Y-144.526
X110.744Y-71.374
X110.744Y-72.644
X110.744Y-73.914
X110.744Y-75.184
X110.998Y-86.106
X110.998Y-87.884
X110.998Y-166.624
X111.252Y-134.112
X111.506Y-45.72
X111.506Y-48.768
X111.506Y-140.716
X111.76Y-142.748
X112.268Y-71.374
X112.268Y-72.644
X112.268Y-73.914
X112.268Y-75.184
X112.268Y-155.702
X112.522Y-137.668
X113.03Y-95.758
X113.03Y-105.156
X113.03Y-120.904
X113.284Y-40.64
X113.284Y-117.602
X113.538Y-88.138
X114.046Y-134.62
X114.046Y-147.066
X114.046Y-149.098
X114.542Y-152.158
X114.554Y-117.348
X114.808Y-155.956
X114.808Y-161.798
X115.062Y-164.084
X115.062Y-166.878
X116.586Y-159.258
X116.84Y-161.544
X117.094Y-45.72
X117.094Y-48.768
X117.094Y-50.546
X117.094Y-87.122
X117.602Y-40.64
X117.602Y-134.62
X117.602Y-136.906
X117.602Y-139.192
X118.11Y-75.946
X118.618Y-86.868
X119.126Y-155.956
X119.368Y-74.156
X119.888Y-145.034
X119.888Y-167.132
X120.396Y-97.028
X120.904Y-164.592
X121.666Y-40.64
X122.174Y-91.44
X122.174Y-93.472
X122.174Y-154.432
X122.428Y-45.72
X122.428Y-48.768
X122.428Y-50.546
X122.428Y-159.004
X123.444Y-91.44
X123.444Y-93.472
X123.444Y-95.758
X123.952Y-134.366
X124.206Y-167.132
X124.714Y-91.44
X124.714Y-93.472
X124.714Y-146.05
X124.714Y-148.59
X124.968Y-156.21
X125.222Y-151.13
X125.73Y-40.64
X125.984Y-172.72
X126.238Y-144.526
X126.746Y-81.788
X126.746Y-83.312
X126.746Y-84.836
X126.746Y-86.36
X126.746Y-87.884
X126.746Y-89.408
X127.0Y-134.62
X127.254Y-145.542
X127.254Y-160.528
X127.762Y-81.788
X127.762Y-83.312
X127.762Y-84.836
X127.762Y-86.36
X127.762Y-87.884
X127.762Y-89.408
X128.016Y-150.114
X128.27Y-167.132
X128.778Y-81.788
X128.778Y-83.312
X128.778Y-84.836
X128.778Y-86.36
X128.778Y-87.884
X128.778Y-89.408
X128.778Y-106.68
X129.032Y-134.62
X129.286Y-144.272
X129.286Y-160.528
X129.794Y-40.64
X129.794Y-81.788
X129.794Y-83.312
X129.794Y-84.836
X129.794Y-86.36
X129.794Y-87.884
X129.794Y-89.408
X129.794Y-98.044
X129.794Y-116.078
X130.302Y-145.288
X130.302Y-151.13
X130.556Y-149.606
X131.572Y-148.59
X131.572Y-151.892
X131.826Y-65.786
X131.826Y-140.208
X131.826Y-155.448
X131.826Y-173.482
X132.08Y-48.26
X132.08Y-49.276
X132.08Y-50.292
X132.08Y-51.308
X132.08Y-160.782
X132.08Y-167.132
X133.35Y-48.26
X133.35Y-49.276
X133.35Y-50.292
X133.35Y-51.308
X133.858Y-93.726
X133.858Y-94.996
X133.858Y-96.266
X134.112Y-40.64
X134.366Y-107.696
X134.62Y-48.26
X134.62Y-49.276
X134.62Y-50.292
X134.62Y-51.308
X134.874Y-77.978
X134.874Y-174.752
X135.636Y-159.512
X135.89Y-48.26
X135.89Y-49.276
X135.89Y-50.292
X135.89Y-51.308
X135.89Y-150.622
X135.89Y-164.084
X136.144Y-167.132
X136.652Y-103.378
X136.652Y-105.41
X136.652Y-107.696
X136.652Y-157.988
X137.16Y-131.826
X137.668Y-104.394
X137.668Y-106.68
X137.922Y-66.04
X137.922Y-67.31
X137.922Y-68.58
X137.922Y-69.85
X137.922Y-138.684
X138.176Y-73.406
X138.43Y-40.64
X138.43Y-78.232
X138.684Y-103.378
X138.684Y-105.41
X138.684Y-107.696
X138.684Y-155.448
X139.7Y-47.244
X139.7Y-50.038
X139.7Y-104.394
X139.7Y-106.68
X140.208Y-167.132
X140.716Y-103.378
X140.716Y-105.41
X140.716Y-107.696
X140.716Y-146.558
X140.716Y-148.59
X141.224Y-164.846
X141.478Y-144.018
X141.732Y-104.394
X141.732Y-106.68
X141.732Y-138.43
X141.986Y-79.756
X142.24Y-66.04
X142.24Y-67.31
X142.24Y-68.58
X142.24Y-69.85
X142.494Y-40.64
X142.748Y-103.378
X142.748Y-105.41
X142.748Y-107.696
X142.748Y-148.59
X143.764Y-46.228
X143.764Y-104.394
X143.764Y-106.68
X144.018Y-119.38
X144.018Y-167.132
X144.272Y-64.262
X144.272Y-113.538
X144.78Y-103.378
X144.78Y-105.41
X144.78Y-107.696
X144.78Y-162.814
X145.034Y-49.276
X145.034Y-71.12
X145.542Y-58.928
X145.542Y-60.198
X146.05Y-76.962
X146.304Y-148.844
X146.304Y-152.908
X146.558Y-40.64
X146.812Y-155.448
X147.066Y-52.324
X147.066Y-53.848
X147.32Y-60.198
X148.336Y-45.72
X148.336Y-52.324
X148.336Y-53.848
X148.844Y-137.414
X148.844Y-150.114
X148.844Y-155.702
X149.098Y-57.658
X149.098Y-58.928
X149.098Y-60.198
X149.352Y-67.564
X149.606Y-42.672
X149.86Y-52.324
X149.86Y-53.848
X149.86Y-55.372
X151.13Y-49.276
X151.13Y-52.324
X151.13Y-53.848
X151.13Y-55.372
X152.654Y-51.562
X152.654Y-54.61
X152.654Y-64.77
X154.178Y-46.736
X155.702Y-49.022
X155.702Y-53.086
X155.702Y-57.15
X155.702Y-61.468
X155.702Y-65.786
X155.702Y-69.85
X155.702Y-73.914
X155.702Y-77.978
X155.702Y-82.296
X155.702Y-86.614
X155.702Y-90.932
X155.702Y-95.25
X155.702Y-99.314
X155.702Y-103.378
X155.702Y-107.442
X155.702Y-111.76
X155.702Y-115.824
X155.702Y-120.142
X155.702Y-124.206
X155.702Y-128.27
X155.956Y-156.718
X155.956Y-164.846
T4
X63.246Y-105.41
X63.246Y-114.34
X63.246Y-118.09
X68.326Y-105.41
X73.406Y-105.41
X73.406Y-114.34
X73.406Y-118.09
X91.46Y-97.79
X91.46Y-107.95
X91.46Y-112.268
X91.46Y-122.428
X95.21Y-97.79
X95.21Y-107.95
X95.21Y-112.268
X95.21Y-122.428
X104.14Y-97.79
X104.14Y-102.87
X104.14Y-107.95
X104.14Y-112.268
X104.14Y-117.348
X104.14Y-122.428
X113.812Y-98.044
X113.812Y-108.204
X113.812Y-112.522
X113.812Y-122.682
X117.562Y-98.044
X117.562Y-108.204
X117.562Y-112.522
X117.562Y-122.682
X126.492Y-98.044
X126.492Y-103.124
X126.492Y-108.204
X126.492Y-112.522
X126.492Y-117.602
X126.492Y-122.682
T5
X53.086Y-132.588
X53.086Y-142.748
X145.034Y-117.348
X145.034Y-127.508
T6
X33.274Y-55.88
X54.356Y-47.752
X54.356Y-49.784
X54.356Y-51.816
X54.356Y-53.848
X54.356Y-55.88
X54.356Y-57.912
X54.356Y-59.944
X54.356Y-61.976
X56.134Y-46.736
X56.134Y-48.768
X56.134Y-50.8
X56.134Y-52.832
X56.134Y-54.864
X56.134Y-56.896
X56.134Y-58.928
X56.134Y-60.96
X56.134Y-62.992
X57.912Y-47.752
X57.912Y-49.784
X57.912Y-51.816
X57.912Y-53.848
X57.912Y-55.88
X57.912Y-57.912
X57.912Y-59.944
X57.912Y-61.976
X60.96Y-152.146
X63.5Y-152.146
X66.04Y-152.146
X69.85Y-54.864
X69.85Y-57.404
X69.85Y-59.69
X69.85Y-61.976
X72.39Y-54.864
X72.39Y-57.404
X72.39Y-59.69
X72.39Y-61.976
X75.692Y-54.864
X75.692Y-57.404
X75.692Y-59.69
X75.692Y-61.976
X78.486Y-54.864
X78.486Y-57.404
X78.486Y-59.69
X78.486Y-61.976
X86.36Y-54.864
X86.36Y-57.404
X86.36Y-59.69
X86.36Y-61.976
X89.154Y-54.864
X89.154Y-57.404
X89.154Y-59.69
X89.154Y-61.976
X92.202Y-54.864
X92.202Y-57.404
X92.202Y-59.69
X92.202Y-61.976
X94.996Y-54.864
X94.996Y-57.404
X94.996Y-59.69
X94.996Y-61.976
X103.886Y-54.864
X103.886Y-57.404
X103.886Y-59.69
X103.886Y-61.976
X106.68Y-54.864
X106.68Y-57.404
X106.68Y-59.69
X106.68Y-61.976
X109.728Y-54.864
X109.728Y-57.404
X109.728Y-59.69
X109.728Y-61.976
X112.522Y-54.864
X112.522Y-57.404
X112.522Y-59.69
X112.522Y-61.976
X123.19Y-54.864
X123.19Y-59.69
X126.238Y-54.864
X126.238Y-57.404
X126.238Y-59.69
X126.238Y-61.976
X129.032Y-54.864
X129.032Y-57.404
X129.032Y-59.69
X129.032Y-61.976
X133.096Y-57.658
X133.096Y-62.23
X133.35Y-100.076
X135.89Y-59.944
X138.938Y-55.118
X138.938Y-57.658
X138.938Y-59.944
X141.732Y-55.118
X141.732Y-59.944
X148.59Y-71.628
X150.622Y-141.224
X150.622Y-143.764
X150.622Y-146.304
X150.622Y-148.844
X150.622Y-151.384
T7
X40.386Y-134.62
X40.386Y-137.16
X40.386Y-142.494
X40.386Y-145.034
X40.386Y-150.622
X40.386Y-153.162
X40.386Y-158.496
X40.386Y-161.036
X74.422Y-158.496
X74.422Y-168.91
X76.962Y-158.496
X76.962Y-168.91
X80.772Y-158.496
X80.772Y-168.91
X83.312Y-158.496
X83.312Y-168.91
T8
X104.902Y-153.67
X104.902Y-159.004
X104.902Y-169.164
X104.949Y-164.359
X107.442Y-153.67
X107.442Y-159.004
X107.442Y-169.164
X107.489Y-164.359
X109.982Y-153.67
X109.982Y-159.004
X109.982Y-169.164
X110.029Y-164.359
T9
X35.306Y-172.212
X35.56Y-43.18
X42.672Y-48.006
X42.672Y-54.864
X42.672Y-62.484
X42.672Y-69.596
X42.672Y-76.962
X42.672Y-84.328
X42.672Y-91.44
X42.672Y-98.552
X42.672Y-105.41
X42.672Y-112.014
X42.672Y-118.364
X152.654Y-160.782
X152.654Y-172.212
X153.162Y-42.926
T0
M30
