G04 #@! TF.GenerationSoftware,KiCad,Pcbnew,(5.1.10)-1*
G04 #@! TF.CreationDate,2021-12-23T23:11:10-06:00*
G04 #@! TF.ProjectId,BTMS,42544d53-2e6b-4696-9361-645f70636258,rev?*
G04 #@! TF.SameCoordinates,Original*
G04 #@! TF.FileFunction,Soldermask,Bot*
G04 #@! TF.FilePolarity,Negative*
%FSLAX46Y46*%
G04 Gerber Fmt 4.6, Leading zero omitted, Abs format (unit mm)*
G04 Created by KiCad (PCBNEW (5.1.10)-1) date 2021-12-23 23:11:10*
%MOMM*%
%LPD*%
G01*
G04 APERTURE LIST*
%ADD10O,3.602000X3.602000*%
%ADD11O,1.902000X1.902000*%
%ADD12C,4.166000*%
%ADD13O,1.802000X1.802000*%
%ADD14C,2.122000*%
%ADD15C,2.202000*%
%ADD16C,1.626000*%
%ADD17C,2.802000*%
%ADD18C,1.702000*%
%ADD19O,1.702000X1.702000*%
%ADD20C,0.100000*%
G04 APERTURE END LIST*
G36*
G01*
X85402000Y-140149000D02*
X86302000Y-140149000D01*
G75*
G02*
X86353000Y-140200000I0J-51000D01*
G01*
X86353000Y-140700000D01*
G75*
G02*
X86302000Y-140751000I-51000J0D01*
G01*
X85402000Y-140751000D01*
G75*
G02*
X85351000Y-140700000I0J51000D01*
G01*
X85351000Y-140200000D01*
G75*
G02*
X85402000Y-140149000I51000J0D01*
G01*
G37*
G36*
G01*
X85402000Y-138649000D02*
X86302000Y-138649000D01*
G75*
G02*
X86353000Y-138700000I0J-51000D01*
G01*
X86353000Y-139200000D01*
G75*
G02*
X86302000Y-139251000I-51000J0D01*
G01*
X85402000Y-139251000D01*
G75*
G02*
X85351000Y-139200000I0J51000D01*
G01*
X85351000Y-138700000D01*
G75*
G02*
X85402000Y-138649000I51000J0D01*
G01*
G37*
D10*
X63500000Y-135486000D03*
G36*
G01*
X60009000Y-153046000D02*
X60009000Y-151246000D01*
G75*
G02*
X60060000Y-151195000I51000J0D01*
G01*
X61860000Y-151195000D01*
G75*
G02*
X61911000Y-151246000I0J-51000D01*
G01*
X61911000Y-153046000D01*
G75*
G02*
X61860000Y-153097000I-51000J0D01*
G01*
X60060000Y-153097000D01*
G75*
G02*
X60009000Y-153046000I0J51000D01*
G01*
G37*
D11*
X63500000Y-152146000D03*
X66040000Y-152146000D03*
G36*
G01*
X133585000Y-124948000D02*
X133585000Y-122448000D01*
G75*
G02*
X133636000Y-122397000I51000J0D01*
G01*
X134636000Y-122397000D01*
G75*
G02*
X134687000Y-122448000I0J-51000D01*
G01*
X134687000Y-124948000D01*
G75*
G02*
X134636000Y-124999000I-51000J0D01*
G01*
X133636000Y-124999000D01*
G75*
G02*
X133585000Y-124948000I0J51000D01*
G01*
G37*
G36*
G01*
X136585000Y-124948000D02*
X136585000Y-122448000D01*
G75*
G02*
X136636000Y-122397000I51000J0D01*
G01*
X137636000Y-122397000D01*
G75*
G02*
X137687000Y-122448000I0J-51000D01*
G01*
X137687000Y-124948000D01*
G75*
G02*
X137636000Y-124999000I-51000J0D01*
G01*
X136636000Y-124999000D01*
G75*
G02*
X136585000Y-124948000I0J51000D01*
G01*
G37*
G36*
G01*
X133585000Y-121646000D02*
X133585000Y-119146000D01*
G75*
G02*
X133636000Y-119095000I51000J0D01*
G01*
X134636000Y-119095000D01*
G75*
G02*
X134687000Y-119146000I0J-51000D01*
G01*
X134687000Y-121646000D01*
G75*
G02*
X134636000Y-121697000I-51000J0D01*
G01*
X133636000Y-121697000D01*
G75*
G02*
X133585000Y-121646000I0J51000D01*
G01*
G37*
G36*
G01*
X136585000Y-121646000D02*
X136585000Y-119146000D01*
G75*
G02*
X136636000Y-119095000I51000J0D01*
G01*
X137636000Y-119095000D01*
G75*
G02*
X137687000Y-119146000I0J-51000D01*
G01*
X137687000Y-121646000D01*
G75*
G02*
X137636000Y-121697000I-51000J0D01*
G01*
X136636000Y-121697000D01*
G75*
G02*
X136585000Y-121646000I0J51000D01*
G01*
G37*
D12*
X42672000Y-48006000D03*
X42672000Y-76962000D03*
X42672000Y-91440000D03*
X42672000Y-98552000D03*
X42672000Y-112014000D03*
X42672000Y-118364000D03*
X42672000Y-69596000D03*
X42672000Y-62484000D03*
X42672000Y-54864000D03*
X153162000Y-42926000D03*
X152654000Y-172212000D03*
D13*
X150622000Y-151384000D03*
X150622000Y-148844000D03*
X150622000Y-146304000D03*
X150622000Y-143764000D03*
G36*
G01*
X149721000Y-142074000D02*
X149721000Y-140374000D01*
G75*
G02*
X149772000Y-140323000I51000J0D01*
G01*
X151472000Y-140323000D01*
G75*
G02*
X151523000Y-140374000I0J-51000D01*
G01*
X151523000Y-142074000D01*
G75*
G02*
X151472000Y-142125000I-51000J0D01*
G01*
X149772000Y-142125000D01*
G75*
G02*
X149721000Y-142074000I0J51000D01*
G01*
G37*
D12*
X35306000Y-172212000D03*
X42672000Y-105410000D03*
X42672000Y-84328000D03*
X35560000Y-43180000D03*
D14*
X40386000Y-142494000D03*
X40386000Y-145034000D03*
X40386000Y-153162000D03*
X40386000Y-150622000D03*
X40386000Y-134620000D03*
X40386000Y-137160000D03*
X76962000Y-168910000D03*
X74422000Y-168910000D03*
X40386000Y-161036000D03*
X40386000Y-158496000D03*
D15*
X104902000Y-153670000D03*
X107442000Y-153670000D03*
X109982000Y-153670000D03*
X109982000Y-159004000D03*
X107442000Y-159004000D03*
X104902000Y-159004000D03*
X110029001Y-164359001D03*
X107489001Y-164359001D03*
X104949001Y-164359001D03*
X104902000Y-169164000D03*
X107442000Y-169164000D03*
X109982000Y-169164000D03*
D14*
X74422000Y-158496000D03*
X76962000Y-158496000D03*
X83312000Y-158496000D03*
X80772000Y-158496000D03*
X80772000Y-168910000D03*
X83312000Y-168910000D03*
D16*
X104140000Y-102870000D03*
X104140000Y-107950000D03*
X104140000Y-97790000D03*
X95210000Y-97790000D03*
X91460000Y-97790000D03*
X95210000Y-107950000D03*
X91460000Y-107950000D03*
X91460000Y-122428000D03*
X95210000Y-122428000D03*
X91460000Y-112268000D03*
X95210000Y-112268000D03*
X104140000Y-112268000D03*
X104140000Y-122428000D03*
X104140000Y-117348000D03*
X68326000Y-105410000D03*
X73406000Y-105410000D03*
X63246000Y-105410000D03*
X63246000Y-114340000D03*
X63246000Y-118090000D03*
X73406000Y-114340000D03*
X73406000Y-118090000D03*
X126492000Y-117602000D03*
X126492000Y-122682000D03*
X126492000Y-112522000D03*
X117562000Y-112522000D03*
X113812000Y-112522000D03*
X117562000Y-122682000D03*
X113812000Y-122682000D03*
X113812000Y-108204000D03*
X117562000Y-108204000D03*
X113812000Y-98044000D03*
X117562000Y-98044000D03*
X126492000Y-98044000D03*
X126492000Y-108204000D03*
X126492000Y-103124000D03*
D17*
X99314000Y-52324000D03*
D12*
X152654000Y-160782000D03*
D17*
X129794000Y-73406000D03*
X56388000Y-71120000D03*
G36*
G01*
X135577000Y-110099000D02*
X135577000Y-108849000D01*
G75*
G02*
X135628000Y-108798000I51000J0D01*
G01*
X136628000Y-108798000D01*
G75*
G02*
X136679000Y-108849000I0J-51000D01*
G01*
X136679000Y-110099000D01*
G75*
G02*
X136628000Y-110150000I-51000J0D01*
G01*
X135628000Y-110150000D01*
G75*
G02*
X135577000Y-110099000I0J51000D01*
G01*
G37*
G36*
G01*
X133577000Y-110099000D02*
X133577000Y-108849000D01*
G75*
G02*
X133628000Y-108798000I51000J0D01*
G01*
X134628000Y-108798000D01*
G75*
G02*
X134679000Y-108849000I0J-51000D01*
G01*
X134679000Y-110099000D01*
G75*
G02*
X134628000Y-110150000I-51000J0D01*
G01*
X133628000Y-110150000D01*
G75*
G02*
X133577000Y-110099000I0J51000D01*
G01*
G37*
G36*
G01*
X133577000Y-112131000D02*
X133577000Y-110881000D01*
G75*
G02*
X133628000Y-110830000I51000J0D01*
G01*
X134628000Y-110830000D01*
G75*
G02*
X134679000Y-110881000I0J-51000D01*
G01*
X134679000Y-112131000D01*
G75*
G02*
X134628000Y-112182000I-51000J0D01*
G01*
X133628000Y-112182000D01*
G75*
G02*
X133577000Y-112131000I0J51000D01*
G01*
G37*
G36*
G01*
X135577000Y-112131000D02*
X135577000Y-110881000D01*
G75*
G02*
X135628000Y-110830000I51000J0D01*
G01*
X136628000Y-110830000D01*
G75*
G02*
X136679000Y-110881000I0J-51000D01*
G01*
X136679000Y-112131000D01*
G75*
G02*
X136628000Y-112182000I-51000J0D01*
G01*
X135628000Y-112182000D01*
G75*
G02*
X135577000Y-112131000I0J51000D01*
G01*
G37*
G36*
G01*
X135561000Y-114163000D02*
X135561000Y-112913000D01*
G75*
G02*
X135612000Y-112862000I51000J0D01*
G01*
X136612000Y-112862000D01*
G75*
G02*
X136663000Y-112913000I0J-51000D01*
G01*
X136663000Y-114163000D01*
G75*
G02*
X136612000Y-114214000I-51000J0D01*
G01*
X135612000Y-114214000D01*
G75*
G02*
X135561000Y-114163000I0J51000D01*
G01*
G37*
G36*
G01*
X133561000Y-114163000D02*
X133561000Y-112913000D01*
G75*
G02*
X133612000Y-112862000I51000J0D01*
G01*
X134612000Y-112862000D01*
G75*
G02*
X134663000Y-112913000I0J-51000D01*
G01*
X134663000Y-114163000D01*
G75*
G02*
X134612000Y-114214000I-51000J0D01*
G01*
X133612000Y-114214000D01*
G75*
G02*
X133561000Y-114163000I0J51000D01*
G01*
G37*
G36*
G01*
X133577000Y-116195000D02*
X133577000Y-114945000D01*
G75*
G02*
X133628000Y-114894000I51000J0D01*
G01*
X134628000Y-114894000D01*
G75*
G02*
X134679000Y-114945000I0J-51000D01*
G01*
X134679000Y-116195000D01*
G75*
G02*
X134628000Y-116246000I-51000J0D01*
G01*
X133628000Y-116246000D01*
G75*
G02*
X133577000Y-116195000I0J51000D01*
G01*
G37*
G36*
G01*
X135577000Y-116195000D02*
X135577000Y-114945000D01*
G75*
G02*
X135628000Y-114894000I51000J0D01*
G01*
X136628000Y-114894000D01*
G75*
G02*
X136679000Y-114945000I0J-51000D01*
G01*
X136679000Y-116195000D01*
G75*
G02*
X136628000Y-116246000I-51000J0D01*
G01*
X135628000Y-116246000D01*
G75*
G02*
X135577000Y-116195000I0J51000D01*
G01*
G37*
G36*
G01*
X133577000Y-118227000D02*
X133577000Y-116977000D01*
G75*
G02*
X133628000Y-116926000I51000J0D01*
G01*
X134628000Y-116926000D01*
G75*
G02*
X134679000Y-116977000I0J-51000D01*
G01*
X134679000Y-118227000D01*
G75*
G02*
X134628000Y-118278000I-51000J0D01*
G01*
X133628000Y-118278000D01*
G75*
G02*
X133577000Y-118227000I0J51000D01*
G01*
G37*
G36*
G01*
X135577000Y-118227000D02*
X135577000Y-116977000D01*
G75*
G02*
X135628000Y-116926000I51000J0D01*
G01*
X136628000Y-116926000D01*
G75*
G02*
X136679000Y-116977000I0J-51000D01*
G01*
X136679000Y-118227000D01*
G75*
G02*
X136628000Y-118278000I-51000J0D01*
G01*
X135628000Y-118278000D01*
G75*
G02*
X135577000Y-118227000I0J51000D01*
G01*
G37*
G36*
G01*
X117622000Y-92135000D02*
X120122000Y-92135000D01*
G75*
G02*
X120173000Y-92186000I0J-51000D01*
G01*
X120173000Y-93186000D01*
G75*
G02*
X120122000Y-93237000I-51000J0D01*
G01*
X117622000Y-93237000D01*
G75*
G02*
X117571000Y-93186000I0J51000D01*
G01*
X117571000Y-92186000D01*
G75*
G02*
X117622000Y-92135000I51000J0D01*
G01*
G37*
G36*
G01*
X117622000Y-89135000D02*
X120122000Y-89135000D01*
G75*
G02*
X120173000Y-89186000I0J-51000D01*
G01*
X120173000Y-90186000D01*
G75*
G02*
X120122000Y-90237000I-51000J0D01*
G01*
X117622000Y-90237000D01*
G75*
G02*
X117571000Y-90186000I0J51000D01*
G01*
X117571000Y-89186000D01*
G75*
G02*
X117622000Y-89135000I51000J0D01*
G01*
G37*
G36*
G01*
X110119000Y-91635000D02*
X111369000Y-91635000D01*
G75*
G02*
X111420000Y-91686000I0J-51000D01*
G01*
X111420000Y-92686000D01*
G75*
G02*
X111369000Y-92737000I-51000J0D01*
G01*
X110119000Y-92737000D01*
G75*
G02*
X110068000Y-92686000I0J51000D01*
G01*
X110068000Y-91686000D01*
G75*
G02*
X110119000Y-91635000I51000J0D01*
G01*
G37*
G36*
G01*
X110119000Y-89635000D02*
X111369000Y-89635000D01*
G75*
G02*
X111420000Y-89686000I0J-51000D01*
G01*
X111420000Y-90686000D01*
G75*
G02*
X111369000Y-90737000I-51000J0D01*
G01*
X110119000Y-90737000D01*
G75*
G02*
X110068000Y-90686000I0J51000D01*
G01*
X110068000Y-89686000D01*
G75*
G02*
X110119000Y-89635000I51000J0D01*
G01*
G37*
G36*
G01*
X115199000Y-91635000D02*
X116449000Y-91635000D01*
G75*
G02*
X116500000Y-91686000I0J-51000D01*
G01*
X116500000Y-92686000D01*
G75*
G02*
X116449000Y-92737000I-51000J0D01*
G01*
X115199000Y-92737000D01*
G75*
G02*
X115148000Y-92686000I0J51000D01*
G01*
X115148000Y-91686000D01*
G75*
G02*
X115199000Y-91635000I51000J0D01*
G01*
G37*
G36*
G01*
X115199000Y-89635000D02*
X116449000Y-89635000D01*
G75*
G02*
X116500000Y-89686000I0J-51000D01*
G01*
X116500000Y-90686000D01*
G75*
G02*
X116449000Y-90737000I-51000J0D01*
G01*
X115199000Y-90737000D01*
G75*
G02*
X115148000Y-90686000I0J51000D01*
G01*
X115148000Y-89686000D01*
G75*
G02*
X115199000Y-89635000I51000J0D01*
G01*
G37*
G36*
G01*
X112659000Y-89635000D02*
X113909000Y-89635000D01*
G75*
G02*
X113960000Y-89686000I0J-51000D01*
G01*
X113960000Y-90686000D01*
G75*
G02*
X113909000Y-90737000I-51000J0D01*
G01*
X112659000Y-90737000D01*
G75*
G02*
X112608000Y-90686000I0J51000D01*
G01*
X112608000Y-89686000D01*
G75*
G02*
X112659000Y-89635000I51000J0D01*
G01*
G37*
G36*
G01*
X112659000Y-91635000D02*
X113909000Y-91635000D01*
G75*
G02*
X113960000Y-91686000I0J-51000D01*
G01*
X113960000Y-92686000D01*
G75*
G02*
X113909000Y-92737000I-51000J0D01*
G01*
X112659000Y-92737000D01*
G75*
G02*
X112608000Y-92686000I0J51000D01*
G01*
X112608000Y-91686000D01*
G75*
G02*
X112659000Y-91635000I51000J0D01*
G01*
G37*
D18*
X145034000Y-117348000D03*
D19*
X145034000Y-127508000D03*
X53086000Y-132588000D03*
D18*
X53086000Y-142748000D03*
G36*
G01*
X94419000Y-152279000D02*
X94419000Y-153029000D01*
G75*
G02*
X94368000Y-153080000I-51000J0D01*
G01*
X93568000Y-153080000D01*
G75*
G02*
X93517000Y-153029000I0J51000D01*
G01*
X93517000Y-152279000D01*
G75*
G02*
X93568000Y-152228000I51000J0D01*
G01*
X94368000Y-152228000D01*
G75*
G02*
X94419000Y-152279000I0J-51000D01*
G01*
G37*
G36*
G01*
X92919000Y-152279000D02*
X92919000Y-153029000D01*
G75*
G02*
X92868000Y-153080000I-51000J0D01*
G01*
X92068000Y-153080000D01*
G75*
G02*
X92017000Y-153029000I0J51000D01*
G01*
X92017000Y-152279000D01*
G75*
G02*
X92068000Y-152228000I51000J0D01*
G01*
X92868000Y-152228000D01*
G75*
G02*
X92919000Y-152279000I0J-51000D01*
G01*
G37*
G36*
G01*
X83191000Y-91786000D02*
X83191000Y-90586000D01*
G75*
G02*
X83242000Y-90535000I51000J0D01*
G01*
X84142000Y-90535000D01*
G75*
G02*
X84193000Y-90586000I0J-51000D01*
G01*
X84193000Y-91786000D01*
G75*
G02*
X84142000Y-91837000I-51000J0D01*
G01*
X83242000Y-91837000D01*
G75*
G02*
X83191000Y-91786000I0J51000D01*
G01*
G37*
G36*
G01*
X79891000Y-91786000D02*
X79891000Y-90586000D01*
G75*
G02*
X79942000Y-90535000I51000J0D01*
G01*
X80842000Y-90535000D01*
G75*
G02*
X80893000Y-90586000I0J-51000D01*
G01*
X80893000Y-91786000D01*
G75*
G02*
X80842000Y-91837000I-51000J0D01*
G01*
X79942000Y-91837000D01*
G75*
G02*
X79891000Y-91786000I0J51000D01*
G01*
G37*
G36*
G01*
X80907000Y-132934000D02*
X80907000Y-131734000D01*
G75*
G02*
X80958000Y-131683000I51000J0D01*
G01*
X81858000Y-131683000D01*
G75*
G02*
X81909000Y-131734000I0J-51000D01*
G01*
X81909000Y-132934000D01*
G75*
G02*
X81858000Y-132985000I-51000J0D01*
G01*
X80958000Y-132985000D01*
G75*
G02*
X80907000Y-132934000I0J51000D01*
G01*
G37*
G36*
G01*
X84207000Y-132934000D02*
X84207000Y-131734000D01*
G75*
G02*
X84258000Y-131683000I51000J0D01*
G01*
X85158000Y-131683000D01*
G75*
G02*
X85209000Y-131734000I0J-51000D01*
G01*
X85209000Y-132934000D01*
G75*
G02*
X85158000Y-132985000I-51000J0D01*
G01*
X84258000Y-132985000D01*
G75*
G02*
X84207000Y-132934000I0J51000D01*
G01*
G37*
G36*
G01*
X82966000Y-140849000D02*
X84166000Y-140849000D01*
G75*
G02*
X84217000Y-140900000I0J-51000D01*
G01*
X84217000Y-141800000D01*
G75*
G02*
X84166000Y-141851000I-51000J0D01*
G01*
X82966000Y-141851000D01*
G75*
G02*
X82915000Y-141800000I0J51000D01*
G01*
X82915000Y-140900000D01*
G75*
G02*
X82966000Y-140849000I51000J0D01*
G01*
G37*
G36*
G01*
X82966000Y-137549000D02*
X84166000Y-137549000D01*
G75*
G02*
X84217000Y-137600000I0J-51000D01*
G01*
X84217000Y-138500000D01*
G75*
G02*
X84166000Y-138551000I-51000J0D01*
G01*
X82966000Y-138551000D01*
G75*
G02*
X82915000Y-138500000I0J51000D01*
G01*
X82915000Y-137600000D01*
G75*
G02*
X82966000Y-137549000I51000J0D01*
G01*
G37*
G36*
G01*
X81642000Y-144517000D02*
X82442000Y-144517000D01*
G75*
G02*
X82493000Y-144568000I0J-51000D01*
G01*
X82493000Y-145468000D01*
G75*
G02*
X82442000Y-145519000I-51000J0D01*
G01*
X81642000Y-145519000D01*
G75*
G02*
X81591000Y-145468000I0J51000D01*
G01*
X81591000Y-144568000D01*
G75*
G02*
X81642000Y-144517000I51000J0D01*
G01*
G37*
G36*
G01*
X82592000Y-142517000D02*
X83392000Y-142517000D01*
G75*
G02*
X83443000Y-142568000I0J-51000D01*
G01*
X83443000Y-143468000D01*
G75*
G02*
X83392000Y-143519000I-51000J0D01*
G01*
X82592000Y-143519000D01*
G75*
G02*
X82541000Y-143468000I0J51000D01*
G01*
X82541000Y-142568000D01*
G75*
G02*
X82592000Y-142517000I51000J0D01*
G01*
G37*
G36*
G01*
X80692000Y-142517000D02*
X81492000Y-142517000D01*
G75*
G02*
X81543000Y-142568000I0J-51000D01*
G01*
X81543000Y-143468000D01*
G75*
G02*
X81492000Y-143519000I-51000J0D01*
G01*
X80692000Y-143519000D01*
G75*
G02*
X80641000Y-143468000I0J51000D01*
G01*
X80641000Y-142568000D01*
G75*
G02*
X80692000Y-142517000I51000J0D01*
G01*
G37*
G36*
G01*
X79213000Y-89350000D02*
X79213000Y-88450000D01*
G75*
G02*
X79264000Y-88399000I51000J0D01*
G01*
X79764000Y-88399000D01*
G75*
G02*
X79815000Y-88450000I0J-51000D01*
G01*
X79815000Y-89350000D01*
G75*
G02*
X79764000Y-89401000I-51000J0D01*
G01*
X79264000Y-89401000D01*
G75*
G02*
X79213000Y-89350000I0J51000D01*
G01*
G37*
G36*
G01*
X80713000Y-89350000D02*
X80713000Y-88450000D01*
G75*
G02*
X80764000Y-88399000I51000J0D01*
G01*
X81264000Y-88399000D01*
G75*
G02*
X81315000Y-88450000I0J-51000D01*
G01*
X81315000Y-89350000D01*
G75*
G02*
X81264000Y-89401000I-51000J0D01*
G01*
X80764000Y-89401000D01*
G75*
G02*
X80713000Y-89350000I0J51000D01*
G01*
G37*
G36*
G01*
X83117000Y-88450000D02*
X83117000Y-89350000D01*
G75*
G02*
X83066000Y-89401000I-51000J0D01*
G01*
X82566000Y-89401000D01*
G75*
G02*
X82515000Y-89350000I0J51000D01*
G01*
X82515000Y-88450000D01*
G75*
G02*
X82566000Y-88399000I51000J0D01*
G01*
X83066000Y-88399000D01*
G75*
G02*
X83117000Y-88450000I0J-51000D01*
G01*
G37*
G36*
G01*
X84617000Y-88450000D02*
X84617000Y-89350000D01*
G75*
G02*
X84566000Y-89401000I-51000J0D01*
G01*
X84066000Y-89401000D01*
G75*
G02*
X84015000Y-89350000I0J51000D01*
G01*
X84015000Y-88450000D01*
G75*
G02*
X84066000Y-88399000I51000J0D01*
G01*
X84566000Y-88399000D01*
G75*
G02*
X84617000Y-88450000I0J-51000D01*
G01*
G37*
G36*
G01*
X101151000Y-130360000D02*
X101151000Y-131260000D01*
G75*
G02*
X101100000Y-131311000I-51000J0D01*
G01*
X100600000Y-131311000D01*
G75*
G02*
X100549000Y-131260000I0J51000D01*
G01*
X100549000Y-130360000D01*
G75*
G02*
X100600000Y-130309000I51000J0D01*
G01*
X101100000Y-130309000D01*
G75*
G02*
X101151000Y-130360000I0J-51000D01*
G01*
G37*
G36*
G01*
X102651000Y-130360000D02*
X102651000Y-131260000D01*
G75*
G02*
X102600000Y-131311000I-51000J0D01*
G01*
X102100000Y-131311000D01*
G75*
G02*
X102049000Y-131260000I0J51000D01*
G01*
X102049000Y-130360000D01*
G75*
G02*
X102100000Y-130309000I51000J0D01*
G01*
X102600000Y-130309000D01*
G75*
G02*
X102651000Y-130360000I0J-51000D01*
G01*
G37*
G36*
G01*
X99627000Y-133154000D02*
X99627000Y-134054000D01*
G75*
G02*
X99576000Y-134105000I-51000J0D01*
G01*
X99076000Y-134105000D01*
G75*
G02*
X99025000Y-134054000I0J51000D01*
G01*
X99025000Y-133154000D01*
G75*
G02*
X99076000Y-133103000I51000J0D01*
G01*
X99576000Y-133103000D01*
G75*
G02*
X99627000Y-133154000I0J-51000D01*
G01*
G37*
G36*
G01*
X101127000Y-133154000D02*
X101127000Y-134054000D01*
G75*
G02*
X101076000Y-134105000I-51000J0D01*
G01*
X100576000Y-134105000D01*
G75*
G02*
X100525000Y-134054000I0J51000D01*
G01*
X100525000Y-133154000D01*
G75*
G02*
X100576000Y-133103000I51000J0D01*
G01*
X101076000Y-133103000D01*
G75*
G02*
X101127000Y-133154000I0J-51000D01*
G01*
G37*
G36*
G01*
X84293000Y-144976000D02*
X84293000Y-144076000D01*
G75*
G02*
X84344000Y-144025000I51000J0D01*
G01*
X84844000Y-144025000D01*
G75*
G02*
X84895000Y-144076000I0J-51000D01*
G01*
X84895000Y-144976000D01*
G75*
G02*
X84844000Y-145027000I-51000J0D01*
G01*
X84344000Y-145027000D01*
G75*
G02*
X84293000Y-144976000I0J51000D01*
G01*
G37*
G36*
G01*
X85793000Y-144976000D02*
X85793000Y-144076000D01*
G75*
G02*
X85844000Y-144025000I51000J0D01*
G01*
X86344000Y-144025000D01*
G75*
G02*
X86395000Y-144076000I0J-51000D01*
G01*
X86395000Y-144976000D01*
G75*
G02*
X86344000Y-145027000I-51000J0D01*
G01*
X85844000Y-145027000D01*
G75*
G02*
X85793000Y-144976000I0J51000D01*
G01*
G37*
G36*
G01*
X81476000Y-141767000D02*
X80576000Y-141767000D01*
G75*
G02*
X80525000Y-141716000I0J51000D01*
G01*
X80525000Y-141216000D01*
G75*
G02*
X80576000Y-141165000I51000J0D01*
G01*
X81476000Y-141165000D01*
G75*
G02*
X81527000Y-141216000I0J-51000D01*
G01*
X81527000Y-141716000D01*
G75*
G02*
X81476000Y-141767000I-51000J0D01*
G01*
G37*
G36*
G01*
X81476000Y-140267000D02*
X80576000Y-140267000D01*
G75*
G02*
X80525000Y-140216000I0J51000D01*
G01*
X80525000Y-139716000D01*
G75*
G02*
X80576000Y-139665000I51000J0D01*
G01*
X81476000Y-139665000D01*
G75*
G02*
X81527000Y-139716000I0J-51000D01*
G01*
X81527000Y-140216000D01*
G75*
G02*
X81476000Y-140267000I-51000J0D01*
G01*
G37*
G36*
G01*
X93737000Y-151294000D02*
X93737000Y-150894000D01*
G75*
G02*
X93788000Y-150843000I51000J0D01*
G01*
X95348000Y-150843000D01*
G75*
G02*
X95399000Y-150894000I0J-51000D01*
G01*
X95399000Y-151294000D01*
G75*
G02*
X95348000Y-151345000I-51000J0D01*
G01*
X93788000Y-151345000D01*
G75*
G02*
X93737000Y-151294000I0J51000D01*
G01*
G37*
G36*
G01*
X93737000Y-150644000D02*
X93737000Y-150244000D01*
G75*
G02*
X93788000Y-150193000I51000J0D01*
G01*
X95348000Y-150193000D01*
G75*
G02*
X95399000Y-150244000I0J-51000D01*
G01*
X95399000Y-150644000D01*
G75*
G02*
X95348000Y-150695000I-51000J0D01*
G01*
X93788000Y-150695000D01*
G75*
G02*
X93737000Y-150644000I0J51000D01*
G01*
G37*
G36*
G01*
X93737000Y-149984000D02*
X93737000Y-149584000D01*
G75*
G02*
X93788000Y-149533000I51000J0D01*
G01*
X95348000Y-149533000D01*
G75*
G02*
X95399000Y-149584000I0J-51000D01*
G01*
X95399000Y-149984000D01*
G75*
G02*
X95348000Y-150035000I-51000J0D01*
G01*
X93788000Y-150035000D01*
G75*
G02*
X93737000Y-149984000I0J51000D01*
G01*
G37*
G36*
G01*
X93737000Y-149334000D02*
X93737000Y-148934000D01*
G75*
G02*
X93788000Y-148883000I51000J0D01*
G01*
X95348000Y-148883000D01*
G75*
G02*
X95399000Y-148934000I0J-51000D01*
G01*
X95399000Y-149334000D01*
G75*
G02*
X95348000Y-149385000I-51000J0D01*
G01*
X93788000Y-149385000D01*
G75*
G02*
X93737000Y-149334000I0J51000D01*
G01*
G37*
G36*
G01*
X91037000Y-149334000D02*
X91037000Y-148934000D01*
G75*
G02*
X91088000Y-148883000I51000J0D01*
G01*
X92648000Y-148883000D01*
G75*
G02*
X92699000Y-148934000I0J-51000D01*
G01*
X92699000Y-149334000D01*
G75*
G02*
X92648000Y-149385000I-51000J0D01*
G01*
X91088000Y-149385000D01*
G75*
G02*
X91037000Y-149334000I0J51000D01*
G01*
G37*
G36*
G01*
X91037000Y-149984000D02*
X91037000Y-149584000D01*
G75*
G02*
X91088000Y-149533000I51000J0D01*
G01*
X92648000Y-149533000D01*
G75*
G02*
X92699000Y-149584000I0J-51000D01*
G01*
X92699000Y-149984000D01*
G75*
G02*
X92648000Y-150035000I-51000J0D01*
G01*
X91088000Y-150035000D01*
G75*
G02*
X91037000Y-149984000I0J51000D01*
G01*
G37*
G36*
G01*
X91037000Y-150644000D02*
X91037000Y-150244000D01*
G75*
G02*
X91088000Y-150193000I51000J0D01*
G01*
X92648000Y-150193000D01*
G75*
G02*
X92699000Y-150244000I0J-51000D01*
G01*
X92699000Y-150644000D01*
G75*
G02*
X92648000Y-150695000I-51000J0D01*
G01*
X91088000Y-150695000D01*
G75*
G02*
X91037000Y-150644000I0J51000D01*
G01*
G37*
G36*
G01*
X91037000Y-151294000D02*
X91037000Y-150894000D01*
G75*
G02*
X91088000Y-150843000I51000J0D01*
G01*
X92648000Y-150843000D01*
G75*
G02*
X92699000Y-150894000I0J-51000D01*
G01*
X92699000Y-151294000D01*
G75*
G02*
X92648000Y-151345000I-51000J0D01*
G01*
X91088000Y-151345000D01*
G75*
G02*
X91037000Y-151294000I0J51000D01*
G01*
G37*
G36*
G01*
X106145000Y-96637000D02*
X106145000Y-95387000D01*
G75*
G02*
X106196000Y-95336000I51000J0D01*
G01*
X107196000Y-95336000D01*
G75*
G02*
X107247000Y-95387000I0J-51000D01*
G01*
X107247000Y-96637000D01*
G75*
G02*
X107196000Y-96688000I-51000J0D01*
G01*
X106196000Y-96688000D01*
G75*
G02*
X106145000Y-96637000I0J51000D01*
G01*
G37*
G36*
G01*
X108145000Y-96637000D02*
X108145000Y-95387000D01*
G75*
G02*
X108196000Y-95336000I51000J0D01*
G01*
X109196000Y-95336000D01*
G75*
G02*
X109247000Y-95387000I0J-51000D01*
G01*
X109247000Y-96637000D01*
G75*
G02*
X109196000Y-96688000I-51000J0D01*
G01*
X108196000Y-96688000D01*
G75*
G02*
X108145000Y-96637000I0J51000D01*
G01*
G37*
G36*
G01*
X109923000Y-112639000D02*
X109923000Y-111389000D01*
G75*
G02*
X109974000Y-111338000I51000J0D01*
G01*
X110974000Y-111338000D01*
G75*
G02*
X111025000Y-111389000I0J-51000D01*
G01*
X111025000Y-112639000D01*
G75*
G02*
X110974000Y-112690000I-51000J0D01*
G01*
X109974000Y-112690000D01*
G75*
G02*
X109923000Y-112639000I0J51000D01*
G01*
G37*
G36*
G01*
X107923000Y-112639000D02*
X107923000Y-111389000D01*
G75*
G02*
X107974000Y-111338000I51000J0D01*
G01*
X108974000Y-111338000D01*
G75*
G02*
X109025000Y-111389000I0J-51000D01*
G01*
X109025000Y-112639000D01*
G75*
G02*
X108974000Y-112690000I-51000J0D01*
G01*
X107974000Y-112690000D01*
G75*
G02*
X107923000Y-112639000I0J51000D01*
G01*
G37*
G36*
G01*
X61479000Y-105547000D02*
X61479000Y-106797000D01*
G75*
G02*
X61428000Y-106848000I-51000J0D01*
G01*
X60428000Y-106848000D01*
G75*
G02*
X60377000Y-106797000I0J51000D01*
G01*
X60377000Y-105547000D01*
G75*
G02*
X60428000Y-105496000I51000J0D01*
G01*
X61428000Y-105496000D01*
G75*
G02*
X61479000Y-105547000I0J-51000D01*
G01*
G37*
G36*
G01*
X59479000Y-105547000D02*
X59479000Y-106797000D01*
G75*
G02*
X59428000Y-106848000I-51000J0D01*
G01*
X58428000Y-106848000D01*
G75*
G02*
X58377000Y-106797000I0J51000D01*
G01*
X58377000Y-105547000D01*
G75*
G02*
X58428000Y-105496000I51000J0D01*
G01*
X59428000Y-105496000D01*
G75*
G02*
X59479000Y-105547000I0J-51000D01*
G01*
G37*
G36*
G01*
X130767000Y-114671000D02*
X130767000Y-113421000D01*
G75*
G02*
X130818000Y-113370000I51000J0D01*
G01*
X131818000Y-113370000D01*
G75*
G02*
X131869000Y-113421000I0J-51000D01*
G01*
X131869000Y-114671000D01*
G75*
G02*
X131818000Y-114722000I-51000J0D01*
G01*
X130818000Y-114722000D01*
G75*
G02*
X130767000Y-114671000I0J51000D01*
G01*
G37*
G36*
G01*
X128767000Y-114671000D02*
X128767000Y-113421000D01*
G75*
G02*
X128818000Y-113370000I51000J0D01*
G01*
X129818000Y-113370000D01*
G75*
G02*
X129869000Y-113421000I0J-51000D01*
G01*
X129869000Y-114671000D01*
G75*
G02*
X129818000Y-114722000I-51000J0D01*
G01*
X128818000Y-114722000D01*
G75*
G02*
X128767000Y-114671000I0J51000D01*
G01*
G37*
G36*
G01*
X130927000Y-94293000D02*
X129677000Y-94293000D01*
G75*
G02*
X129626000Y-94242000I0J51000D01*
G01*
X129626000Y-93242000D01*
G75*
G02*
X129677000Y-93191000I51000J0D01*
G01*
X130927000Y-93191000D01*
G75*
G02*
X130978000Y-93242000I0J-51000D01*
G01*
X130978000Y-94242000D01*
G75*
G02*
X130927000Y-94293000I-51000J0D01*
G01*
G37*
G36*
G01*
X130927000Y-96293000D02*
X129677000Y-96293000D01*
G75*
G02*
X129626000Y-96242000I0J51000D01*
G01*
X129626000Y-95242000D01*
G75*
G02*
X129677000Y-95191000I51000J0D01*
G01*
X130927000Y-95191000D01*
G75*
G02*
X130978000Y-95242000I0J-51000D01*
G01*
X130978000Y-96242000D01*
G75*
G02*
X130927000Y-96293000I-51000J0D01*
G01*
G37*
G36*
G01*
X107247000Y-93530000D02*
X107247000Y-94430000D01*
G75*
G02*
X107196000Y-94481000I-51000J0D01*
G01*
X106696000Y-94481000D01*
G75*
G02*
X106645000Y-94430000I0J51000D01*
G01*
X106645000Y-93530000D01*
G75*
G02*
X106696000Y-93479000I51000J0D01*
G01*
X107196000Y-93479000D01*
G75*
G02*
X107247000Y-93530000I0J-51000D01*
G01*
G37*
G36*
G01*
X108747000Y-93530000D02*
X108747000Y-94430000D01*
G75*
G02*
X108696000Y-94481000I-51000J0D01*
G01*
X108196000Y-94481000D01*
G75*
G02*
X108145000Y-94430000I0J51000D01*
G01*
X108145000Y-93530000D01*
G75*
G02*
X108196000Y-93479000I51000J0D01*
G01*
X108696000Y-93479000D01*
G75*
G02*
X108747000Y-93530000I0J-51000D01*
G01*
G37*
G36*
G01*
X109041999Y-109562001D02*
X109041999Y-110462001D01*
G75*
G02*
X108990999Y-110513001I-51000J0D01*
G01*
X108490999Y-110513001D01*
G75*
G02*
X108439999Y-110462001I0J51000D01*
G01*
X108439999Y-109562001D01*
G75*
G02*
X108490999Y-109511001I51000J0D01*
G01*
X108990999Y-109511001D01*
G75*
G02*
X109041999Y-109562001I0J-51000D01*
G01*
G37*
G36*
G01*
X110541999Y-109562001D02*
X110541999Y-110462001D01*
G75*
G02*
X110490999Y-110513001I-51000J0D01*
G01*
X109990999Y-110513001D01*
G75*
G02*
X109939999Y-110462001I0J51000D01*
G01*
X109939999Y-109562001D01*
G75*
G02*
X109990999Y-109511001I51000J0D01*
G01*
X110490999Y-109511001D01*
G75*
G02*
X110541999Y-109562001I0J-51000D01*
G01*
G37*
G36*
G01*
X58893000Y-108400000D02*
X58893000Y-107500000D01*
G75*
G02*
X58944000Y-107449000I51000J0D01*
G01*
X59444000Y-107449000D01*
G75*
G02*
X59495000Y-107500000I0J-51000D01*
G01*
X59495000Y-108400000D01*
G75*
G02*
X59444000Y-108451000I-51000J0D01*
G01*
X58944000Y-108451000D01*
G75*
G02*
X58893000Y-108400000I0J51000D01*
G01*
G37*
G36*
G01*
X60393000Y-108400000D02*
X60393000Y-107500000D01*
G75*
G02*
X60444000Y-107449000I51000J0D01*
G01*
X60944000Y-107449000D01*
G75*
G02*
X60995000Y-107500000I0J-51000D01*
G01*
X60995000Y-108400000D01*
G75*
G02*
X60944000Y-108451000I-51000J0D01*
G01*
X60444000Y-108451000D01*
G75*
G02*
X60393000Y-108400000I0J51000D01*
G01*
G37*
G36*
G01*
X131375999Y-111594001D02*
X131375999Y-112494001D01*
G75*
G02*
X131324999Y-112545001I-51000J0D01*
G01*
X130824999Y-112545001D01*
G75*
G02*
X130773999Y-112494001I0J51000D01*
G01*
X130773999Y-111594001D01*
G75*
G02*
X130824999Y-111543001I51000J0D01*
G01*
X131324999Y-111543001D01*
G75*
G02*
X131375999Y-111594001I0J-51000D01*
G01*
G37*
G36*
G01*
X129875999Y-111594001D02*
X129875999Y-112494001D01*
G75*
G02*
X129824999Y-112545001I-51000J0D01*
G01*
X129324999Y-112545001D01*
G75*
G02*
X129273999Y-112494001I0J51000D01*
G01*
X129273999Y-111594001D01*
G75*
G02*
X129324999Y-111543001I51000J0D01*
G01*
X129824999Y-111543001D01*
G75*
G02*
X129875999Y-111594001I0J-51000D01*
G01*
G37*
G36*
G01*
X126296000Y-95191000D02*
X127196000Y-95191000D01*
G75*
G02*
X127247000Y-95242000I0J-51000D01*
G01*
X127247000Y-95742000D01*
G75*
G02*
X127196000Y-95793000I-51000J0D01*
G01*
X126296000Y-95793000D01*
G75*
G02*
X126245000Y-95742000I0J51000D01*
G01*
X126245000Y-95242000D01*
G75*
G02*
X126296000Y-95191000I51000J0D01*
G01*
G37*
G36*
G01*
X126296000Y-93691000D02*
X127196000Y-93691000D01*
G75*
G02*
X127247000Y-93742000I0J-51000D01*
G01*
X127247000Y-94242000D01*
G75*
G02*
X127196000Y-94293000I-51000J0D01*
G01*
X126296000Y-94293000D01*
G75*
G02*
X126245000Y-94242000I0J51000D01*
G01*
X126245000Y-93742000D01*
G75*
G02*
X126296000Y-93691000I51000J0D01*
G01*
G37*
D20*
G36*
X95400732Y-150694000D02*
G01*
X95401000Y-150695000D01*
X95401000Y-150843000D01*
X95400000Y-150844732D01*
X95399000Y-150845000D01*
X93737000Y-150845000D01*
X93735268Y-150844000D01*
X93735000Y-150843000D01*
X93735000Y-150695000D01*
X93736000Y-150693268D01*
X93737000Y-150693000D01*
X95399000Y-150693000D01*
X95400732Y-150694000D01*
G37*
G36*
X92700732Y-150694000D02*
G01*
X92701000Y-150695000D01*
X92701000Y-150843000D01*
X92700000Y-150844732D01*
X92699000Y-150845000D01*
X91037000Y-150845000D01*
X91035268Y-150844000D01*
X91035000Y-150843000D01*
X91035000Y-150695000D01*
X91036000Y-150693268D01*
X91037000Y-150693000D01*
X92699000Y-150693000D01*
X92700732Y-150694000D01*
G37*
G36*
X95400732Y-150034000D02*
G01*
X95401000Y-150035000D01*
X95401000Y-150193000D01*
X95400000Y-150194732D01*
X95399000Y-150195000D01*
X93737000Y-150195000D01*
X93735268Y-150194000D01*
X93735000Y-150193000D01*
X93735000Y-150035000D01*
X93736000Y-150033268D01*
X93737000Y-150033000D01*
X95399000Y-150033000D01*
X95400732Y-150034000D01*
G37*
G36*
X92700732Y-150034000D02*
G01*
X92701000Y-150035000D01*
X92701000Y-150193000D01*
X92700000Y-150194732D01*
X92699000Y-150195000D01*
X91037000Y-150195000D01*
X91035268Y-150194000D01*
X91035000Y-150193000D01*
X91035000Y-150035000D01*
X91036000Y-150033268D01*
X91037000Y-150033000D01*
X92699000Y-150033000D01*
X92700732Y-150034000D01*
G37*
G36*
X95400732Y-149384000D02*
G01*
X95401000Y-149385000D01*
X95401000Y-149533000D01*
X95400000Y-149534732D01*
X95399000Y-149535000D01*
X93737000Y-149535000D01*
X93735268Y-149534000D01*
X93735000Y-149533000D01*
X93735000Y-149385000D01*
X93736000Y-149383268D01*
X93737000Y-149383000D01*
X95399000Y-149383000D01*
X95400732Y-149384000D01*
G37*
G36*
X92700732Y-149384000D02*
G01*
X92701000Y-149385000D01*
X92701000Y-149533000D01*
X92700000Y-149534732D01*
X92699000Y-149535000D01*
X91037000Y-149535000D01*
X91035268Y-149534000D01*
X91035000Y-149533000D01*
X91035000Y-149385000D01*
X91036000Y-149383268D01*
X91037000Y-149383000D01*
X92699000Y-149383000D01*
X92700732Y-149384000D01*
G37*
M02*
